<?xml version="1.0" encoding="utf-8" standalone="no"?>
<!DOCTYPE svg PUBLIC "-//W3C//DTD SVG 1.1//EN"
  "http://www.w3.org/Graphics/SVG/1.1/DTD/svg11.dtd">
<svg xmlns:xlink="http://www.w3.org/1999/xlink" width="432pt" height="432pt" viewBox="0 0 432 432" xmlns="http://www.w3.org/2000/svg" version="1.1">
 <metadata>
  <rdf:RDF xmlns:dc="http://purl.org/dc/elements/1.1/" xmlns:cc="http://creativecommons.org/ns#" xmlns:rdf="http://www.w3.org/1999/02/22-rdf-syntax-ns#">
   <cc:Work>
    <dc:type rdf:resource="http://purl.org/dc/dcmitype/StillImage"/>
    <dc:date>2023-05-30T13:14:06.286898</dc:date>
    <dc:format>image/svg+xml</dc:format>
    <dc:creator>
     <cc:Agent>
      <dc:title>Matplotlib v3.7.1, https://matplotlib.org/</dc:title>
     </cc:Agent>
    </dc:creator>
   </cc:Work>
  </rdf:RDF>
 </metadata>
 <defs>
  <style type="text/css">*{stroke-linejoin: round; stroke-linecap: butt}</style>
 </defs>
 <g id="figure_1">
  <g id="patch_1">
   <path d="M 0 432 
L 432 432 
L 432 0 
L 0 0 
z
" style="fill: #ffffff"/>
  </g>
  <g id="axes_1">
   <g id="patch_2">
    <path d="M 387.72 218.16 
C 387.72 196.319058 383.417811 174.690491 375.059644 154.512092 
C 366.701477 134.333692 354.449878 115.997879 339.006 100.554 
C 323.562121 85.110122 305.226308 72.858523 285.047908 64.500356 
C 264.869509 56.142189 243.240942 51.84 221.4 51.84 
C 199.559058 51.84 177.930491 56.142189 157.752092 64.500356 
C 137.573692 72.858523 119.237879 85.110122 103.794 100.554 
C 88.350122 115.997879 76.098523 134.333692 67.740356 154.512092 
C 59.382189 174.690491 55.08 196.319058 55.08 218.16 
C 55.08 240.000942 59.382189 261.629509 67.740356 281.807908 
C 76.098523 301.986308 88.350122 320.322121 103.794 335.766 
C 119.237879 351.209878 137.573692 363.461477 157.752092 371.819644 
C 177.930491 380.177811 199.559058 384.48 221.4 384.48 
C 243.240942 384.48 264.869509 380.177811 285.047908 371.819644 
C 305.226308 363.461477 323.562121 351.209878 339.006 335.766 
C 354.449878 320.322121 366.701477 301.986308 375.059644 281.807908 
C 383.417811 261.629509 387.72 240.000942 387.72 218.16 
M 221.4 218.16 
C 221.4 218.16 221.4 218.16 221.4 218.16 
C 221.4 218.16 221.4 218.16 221.4 218.16 
C 221.4 218.16 221.4 218.16 221.4 218.16 
C 221.4 218.16 221.4 218.16 221.4 218.16 
C 221.4 218.16 221.4 218.16 221.4 218.16 
C 221.4 218.16 221.4 218.16 221.4 218.16 
C 221.4 218.16 221.4 218.16 221.4 218.16 
C 221.4 218.16 221.4 218.16 221.4 218.16 
C 221.4 218.16 221.4 218.16 221.4 218.16 
C 221.4 218.16 221.4 218.16 221.4 218.16 
C 221.4 218.16 221.4 218.16 221.4 218.16 
C 221.4 218.16 221.4 218.16 221.4 218.16 
C 221.4 218.16 221.4 218.16 221.4 218.16 
C 221.4 218.16 221.4 218.16 221.4 218.16 
C 221.4 218.16 221.4 218.16 221.4 218.16 
C 221.4 218.16 221.4 218.16 221.4 218.16 
z
" style="fill: #ffffff"/>
   </g>
   <g id="patch_3">
    <path d="M 293.186473 218.16 
L 264.148563 208.402919 
L 232.648999 212.742768 
L 242.677205 201.191996 
L 226.156231 212.195874 
L 224.755922 211.191355 
L 223.117681 210.634349 
L 221.4 209.022582 
L 219.662438 210.547244 
L 218.048421 211.200374 
L 216.526837 212.049247 
L 215.349055 213.334532 
L 214.375837 214.777341 
L 213.935673 216.456316 
L 213.701451 218.16 
L 213.859842 219.880992 
L 214.49847 221.483601 
L 215.429507 222.921309 
L 216.618403 224.155933 
L 218.070892 225.072964 
L 219.649502 225.829431 
L 221.4 225.940831 
L 223.099923 225.607851 
L 224.783742 225.186413 
L 226.316351 224.324909 
L 227.407818 222.951075 
L 228.211325 221.440161 
L 228.990191 219.892411 
z
" clip-path="url(#p91f7357086)" style="fill: #ff0000; opacity: 0.1"/>
   </g>
   <g id="patch_4">
    <path d="M 320.551358 218.16 
L 319.548513 195.758242 
L 322.954887 169.253744 
L 308.049897 149.059013 
L 303.903523 114.703855 
L 231.201109 197.807788 
L 256.727423 63.380445 
L 221.4 98.49251 
L 219.575133 210.164736 
L 216.929942 208.87783 
L 191.048641 180.100599 
L 136.88338 150.760244 
L 105.746309 162.464118 
L 120.029175 195.022771 
L 164.485484 218.16 
L 96.29015 246.715507 
L 211.918609 222.725997 
L 117.337002 301.147472 
L 193.581976 253.042699 
L 173.725179 317.157786 
L 202.699622 300.091708 
L 221.4 228.740072 
L 231.592143 262.814697 
L 225.30594 226.270768 
L 267.017479 275.362509 
L 306.037474 285.656133 
L 266.814968 240.030696 
L 253.535035 225.494612 
z
" clip-path="url(#p91f7357086)" style="fill: #0000ff; opacity: 0.1"/>
   </g>
   <g id="matplotlib.axis_1">
    <g id="xtick_1">
     <g id="line2d_1">
      <path d="M 221.4 218.16 
L 387.72 218.16 
" clip-path="url(#p91f7357086)" style="fill: none; stroke: #b0b0b0; stroke-width: 0.8; stroke-linecap: square"/>
     </g>
     <g id="text_1">
      <!-- V2 -->
      <g transform="translate(395.118437 220.919375) scale(0.1 -0.1)">
       <defs>
        <path id="DejaVuSans-56" d="M 1831 0 
L 50 4666 
L 709 4666 
L 2188 738 
L 3669 4666 
L 4325 4666 
L 2547 0 
L 1831 0 
z
" transform="scale(0.015625)"/>
        <path id="DejaVuSans-32" d="M 1228 531 
L 3431 531 
L 3431 0 
L 469 0 
L 469 531 
Q 828 903 1448 1529 
Q 2069 2156 2228 2338 
Q 2531 2678 2651 2914 
Q 2772 3150 2772 3378 
Q 2772 3750 2511 3984 
Q 2250 4219 1831 4219 
Q 1534 4219 1204 4116 
Q 875 4013 500 3803 
L 500 4441 
Q 881 4594 1212 4672 
Q 1544 4750 1819 4750 
Q 2544 4750 2975 4387 
Q 3406 4025 3406 3419 
Q 3406 3131 3298 2873 
Q 3191 2616 2906 2266 
Q 2828 2175 2409 1742 
Q 1991 1309 1228 531 
z
" transform="scale(0.015625)"/>
       </defs>
       <use xlink:href="#DejaVuSans-56"/>
       <use xlink:href="#DejaVuSans-32" x="68.408203"/>
      </g>
     </g>
    </g>
    <g id="xtick_2">
     <g id="line2d_2">
      <path d="M 221.4 218.16 
L 383.55001 181.150318 
" clip-path="url(#p91f7357086)" style="fill: none; stroke: #b0b0b0; stroke-width: 0.8; stroke-linecap: square"/>
     </g>
     <g id="text_2">
      <!-- V4 -->
      <g transform="translate(390.597439 180.7944) scale(0.1 -0.1)">
       <defs>
        <path id="DejaVuSans-34" d="M 2419 4116 
L 825 1625 
L 2419 1625 
L 2419 4116 
z
M 2253 4666 
L 3047 4666 
L 3047 1625 
L 3713 1625 
L 3713 1100 
L 3047 1100 
L 3047 0 
L 2419 0 
L 2419 1100 
L 313 1100 
L 313 1709 
L 2253 4666 
z
" transform="scale(0.015625)"/>
       </defs>
       <use xlink:href="#DejaVuSans-56"/>
       <use xlink:href="#DejaVuSans-34" x="68.408203"/>
      </g>
     </g>
    </g>
    <g id="xtick_3">
     <g id="line2d_3">
      <path d="M 221.4 218.16 
L 371.249142 145.996457 
" clip-path="url(#p91f7357086)" style="fill: none; stroke: #b0b0b0; stroke-width: 0.8; stroke-linecap: square"/>
     </g>
     <g id="text_3">
      <!-- DP -->
      <g transform="translate(376.997863 142.681459) scale(0.1 -0.1)">
       <defs>
        <path id="DejaVuSans-44" d="M 1259 4147 
L 1259 519 
L 2022 519 
Q 2988 519 3436 956 
Q 3884 1394 3884 2338 
Q 3884 3275 3436 3711 
Q 2988 4147 2022 4147 
L 1259 4147 
z
M 628 4666 
L 1925 4666 
Q 3281 4666 3915 4102 
Q 4550 3538 4550 2338 
Q 4550 1131 3912 565 
Q 3275 0 1925 0 
L 628 0 
L 628 4666 
z
" transform="scale(0.015625)"/>
        <path id="DejaVuSans-50" d="M 1259 4147 
L 1259 2394 
L 2053 2394 
Q 2494 2394 2734 2622 
Q 2975 2850 2975 3272 
Q 2975 3691 2734 3919 
Q 2494 4147 2053 4147 
L 1259 4147 
z
M 628 4666 
L 2053 4666 
Q 2838 4666 3239 4311 
Q 3641 3956 3641 3272 
Q 3641 2581 3239 2228 
Q 2838 1875 2053 1875 
L 1259 1875 
L 1259 0 
L 628 0 
L 628 4666 
z
" transform="scale(0.015625)"/>
       </defs>
       <use xlink:href="#DejaVuSans-44"/>
       <use xlink:href="#DejaVuSans-50" x="77.001953"/>
      </g>
     </g>
    </g>
    <g id="xtick_4">
     <g id="line2d_4">
      <path d="M 221.4 218.16 
L 351.434212 114.461176 
" clip-path="url(#p91f7357086)" style="fill: none; stroke: #b0b0b0; stroke-width: 0.8; stroke-linecap: square"/>
     </g>
     <g id="text_4">
      <!-- MT -->
      <g transform="translate(355.011884 108.491694) scale(0.1 -0.1)">
       <defs>
        <path id="DejaVuSans-4d" d="M 628 4666 
L 1569 4666 
L 2759 1491 
L 3956 4666 
L 4897 4666 
L 4897 0 
L 4281 0 
L 4281 4097 
L 3078 897 
L 2444 897 
L 1241 4097 
L 1241 0 
L 628 0 
L 628 4666 
z
" transform="scale(0.015625)"/>
        <path id="DejaVuSans-54" d="M -19 4666 
L 3928 4666 
L 3928 4134 
L 2272 4134 
L 2272 0 
L 1638 0 
L 1638 4134 
L -19 4134 
L -19 4666 
z
" transform="scale(0.015625)"/>
       </defs>
       <use xlink:href="#DejaVuSans-4d"/>
       <use xlink:href="#DejaVuSans-54" x="86.279297"/>
      </g>
     </g>
    </g>
    <g id="xtick_5">
     <g id="line2d_5">
      <path d="M 221.4 218.16 
L 325.098824 88.125788 
" clip-path="url(#p91f7357086)" style="fill: none; stroke: #b0b0b0; stroke-width: 0.8; stroke-linecap: square"/>
     </g>
     <g id="text_5">
      <!-- 8m -->
      <g transform="translate(325.776119 79.939522) scale(0.1 -0.1)">
       <defs>
        <path id="DejaVuSans-38" d="M 2034 2216 
Q 1584 2216 1326 1975 
Q 1069 1734 1069 1313 
Q 1069 891 1326 650 
Q 1584 409 2034 409 
Q 2484 409 2743 651 
Q 3003 894 3003 1313 
Q 3003 1734 2745 1975 
Q 2488 2216 2034 2216 
z
M 1403 2484 
Q 997 2584 770 2862 
Q 544 3141 544 3541 
Q 544 4100 942 4425 
Q 1341 4750 2034 4750 
Q 2731 4750 3128 4425 
Q 3525 4100 3525 3541 
Q 3525 3141 3298 2862 
Q 3072 2584 2669 2484 
Q 3125 2378 3379 2068 
Q 3634 1759 3634 1313 
Q 3634 634 3220 271 
Q 2806 -91 2034 -91 
Q 1263 -91 848 271 
Q 434 634 434 1313 
Q 434 1759 690 2068 
Q 947 2378 1403 2484 
z
M 1172 3481 
Q 1172 3119 1398 2916 
Q 1625 2713 2034 2713 
Q 2441 2713 2670 2916 
Q 2900 3119 2900 3481 
Q 2900 3844 2670 4047 
Q 2441 4250 2034 4250 
Q 1625 4250 1398 4047 
Q 1172 3844 1172 3481 
z
" transform="scale(0.015625)"/>
        <path id="DejaVuSans-6d" d="M 3328 2828 
Q 3544 3216 3844 3400 
Q 4144 3584 4550 3584 
Q 5097 3584 5394 3201 
Q 5691 2819 5691 2113 
L 5691 0 
L 5113 0 
L 5113 2094 
Q 5113 2597 4934 2840 
Q 4756 3084 4391 3084 
Q 3944 3084 3684 2787 
Q 3425 2491 3425 1978 
L 3425 0 
L 2847 0 
L 2847 2094 
Q 2847 2600 2669 2842 
Q 2491 3084 2119 3084 
Q 1678 3084 1418 2786 
Q 1159 2488 1159 1978 
L 1159 0 
L 581 0 
L 581 3500 
L 1159 3500 
L 1159 2956 
Q 1356 3278 1631 3431 
Q 1906 3584 2284 3584 
Q 2666 3584 2933 3390 
Q 3200 3197 3328 2828 
z
" transform="scale(0.015625)"/>
       </defs>
       <use xlink:href="#DejaVuSans-38"/>
       <use xlink:href="#DejaVuSans-6d" x="63.623047"/>
      </g>
     </g>
    </g>
    <g id="xtick_6">
     <g id="line2d_6">
      <path d="M 221.4 218.16 
L 293.563543 68.310858 
" clip-path="url(#p91f7357086)" style="fill: none; stroke: #b0b0b0; stroke-width: 0.8; stroke-linecap: square"/>
     </g>
     <g id="text_6">
      <!-- 5 -->
      <g transform="translate(296.456666 58.456669) scale(0.1 -0.1)">
       <defs>
        <path id="DejaVuSans-35" d="M 691 4666 
L 3169 4666 
L 3169 4134 
L 1269 4134 
L 1269 2991 
Q 1406 3038 1543 3061 
Q 1681 3084 1819 3084 
Q 2600 3084 3056 2656 
Q 3513 2228 3513 1497 
Q 3513 744 3044 326 
Q 2575 -91 1722 -91 
Q 1428 -91 1123 -41 
Q 819 9 494 109 
L 494 744 
Q 775 591 1075 516 
Q 1375 441 1709 441 
Q 2250 441 2565 725 
Q 2881 1009 2881 1497 
Q 2881 1984 2565 2268 
Q 2250 2553 1709 2553 
Q 1456 2553 1204 2497 
Q 953 2441 691 2322 
L 691 4666 
z
" transform="scale(0.015625)"/>
       </defs>
       <use xlink:href="#DejaVuSans-35"/>
      </g>
     </g>
    </g>
    <g id="xtick_7">
     <g id="line2d_7">
      <path d="M 221.4 218.16 
L 258.409682 56.00999 
" clip-path="url(#p91f7357086)" style="fill: none; stroke: #b0b0b0; stroke-width: 0.8; stroke-linecap: square"/>
     </g>
     <g id="text_7">
      <!-- 8l -->
      <g transform="translate(256.954662 45.120374) scale(0.1 -0.1)">
       <defs>
        <path id="DejaVuSans-6c" d="M 603 4863 
L 1178 4863 
L 1178 0 
L 603 0 
L 603 4863 
z
" transform="scale(0.015625)"/>
       </defs>
       <use xlink:href="#DejaVuSans-38"/>
       <use xlink:href="#DejaVuSans-6c" x="63.623047"/>
      </g>
     </g>
    </g>
    <g id="xtick_8">
     <g id="line2d_8">
      <path d="M 221.4 218.16 
L 221.4 51.84 
" clip-path="url(#p91f7357086)" style="fill: none; stroke: #b0b0b0; stroke-width: 0.8; stroke-linecap: square"/>
     </g>
     <g id="text_8">
      <!-- TEO -->
      <g transform="translate(211.250781 40.599375) scale(0.1 -0.1)">
       <defs>
        <path id="DejaVuSans-45" d="M 628 4666 
L 3578 4666 
L 3578 4134 
L 1259 4134 
L 1259 2753 
L 3481 2753 
L 3481 2222 
L 1259 2222 
L 1259 531 
L 3634 531 
L 3634 0 
L 628 0 
L 628 4666 
z
" transform="scale(0.015625)"/>
        <path id="DejaVuSans-4f" d="M 2522 4238 
Q 1834 4238 1429 3725 
Q 1025 3213 1025 2328 
Q 1025 1447 1429 934 
Q 1834 422 2522 422 
Q 3209 422 3611 934 
Q 4013 1447 4013 2328 
Q 4013 3213 3611 3725 
Q 3209 4238 2522 4238 
z
M 2522 4750 
Q 3503 4750 4090 4092 
Q 4678 3434 4678 2328 
Q 4678 1225 4090 567 
Q 3503 -91 2522 -91 
Q 1538 -91 948 565 
Q 359 1222 359 2328 
Q 359 3434 948 4092 
Q 1538 4750 2522 4750 
z
" transform="scale(0.015625)"/>
       </defs>
       <use xlink:href="#DejaVuSans-54"/>
       <use xlink:href="#DejaVuSans-45" x="61.083984"/>
       <use xlink:href="#DejaVuSans-4f" x="124.267578"/>
      </g>
     </g>
    </g>
    <g id="xtick_9">
     <g id="line2d_9">
      <path d="M 221.4 218.16 
L 184.390318 56.00999 
" clip-path="url(#p91f7357086)" style="fill: none; stroke: #b0b0b0; stroke-width: 0.8; stroke-linecap: square"/>
     </g>
     <g id="text_9">
      <!-- 2 -->
      <g transform="translate(178.093775 45.120374) scale(0.1 -0.1)">
       <use xlink:href="#DejaVuSans-32"/>
      </g>
     </g>
    </g>
    <g id="xtick_10">
     <g id="line2d_10">
      <path d="M 221.4 218.16 
L 149.236457 68.310858 
" clip-path="url(#p91f7357086)" style="fill: none; stroke: #b0b0b0; stroke-width: 0.8; stroke-linecap: square"/>
     </g>
     <g id="text_10">
      <!-- F1 -->
      <g transform="translate(137.105053 58.456669) scale(0.1 -0.1)">
       <defs>
        <path id="DejaVuSans-46" d="M 628 4666 
L 3309 4666 
L 3309 4134 
L 1259 4134 
L 1259 2759 
L 3109 2759 
L 3109 2228 
L 1259 2228 
L 1259 0 
L 628 0 
L 628 4666 
z
" transform="scale(0.015625)"/>
        <path id="DejaVuSans-31" d="M 794 531 
L 1825 531 
L 1825 4091 
L 703 3866 
L 703 4441 
L 1819 4666 
L 2450 4666 
L 2450 531 
L 3481 531 
L 3481 0 
L 794 0 
L 794 531 
z
" transform="scale(0.015625)"/>
       </defs>
       <use xlink:href="#DejaVuSans-46"/>
       <use xlink:href="#DejaVuSans-31" x="57.519531"/>
      </g>
     </g>
    </g>
    <g id="xtick_11">
     <g id="line2d_11">
      <path d="M 221.4 218.16 
L 117.701176 88.125788 
" clip-path="url(#p91f7357086)" style="fill: none; stroke: #b0b0b0; stroke-width: 0.8; stroke-linecap: square"/>
     </g>
     <g id="text_11">
      <!-- STPc -->
      <g transform="translate(96.980131 79.939522) scale(0.1 -0.1)">
       <defs>
        <path id="DejaVuSans-53" d="M 3425 4513 
L 3425 3897 
Q 3066 4069 2747 4153 
Q 2428 4238 2131 4238 
Q 1616 4238 1336 4038 
Q 1056 3838 1056 3469 
Q 1056 3159 1242 3001 
Q 1428 2844 1947 2747 
L 2328 2669 
Q 3034 2534 3370 2195 
Q 3706 1856 3706 1288 
Q 3706 609 3251 259 
Q 2797 -91 1919 -91 
Q 1588 -91 1214 -16 
Q 841 59 441 206 
L 441 856 
Q 825 641 1194 531 
Q 1563 422 1919 422 
Q 2459 422 2753 634 
Q 3047 847 3047 1241 
Q 3047 1584 2836 1778 
Q 2625 1972 2144 2069 
L 1759 2144 
Q 1053 2284 737 2584 
Q 422 2884 422 3419 
Q 422 4038 858 4394 
Q 1294 4750 2059 4750 
Q 2388 4750 2728 4690 
Q 3069 4631 3425 4513 
z
" transform="scale(0.015625)"/>
        <path id="DejaVuSans-63" d="M 3122 3366 
L 3122 2828 
Q 2878 2963 2633 3030 
Q 2388 3097 2138 3097 
Q 1578 3097 1268 2742 
Q 959 2388 959 1747 
Q 959 1106 1268 751 
Q 1578 397 2138 397 
Q 2388 397 2633 464 
Q 2878 531 3122 666 
L 3122 134 
Q 2881 22 2623 -34 
Q 2366 -91 2075 -91 
Q 1284 -91 818 406 
Q 353 903 353 1747 
Q 353 2603 823 3093 
Q 1294 3584 2113 3584 
Q 2378 3584 2631 3529 
Q 2884 3475 3122 3366 
z
" transform="scale(0.015625)"/>
       </defs>
       <use xlink:href="#DejaVuSans-53"/>
       <use xlink:href="#DejaVuSans-54" x="63.476562"/>
       <use xlink:href="#DejaVuSans-50" x="124.560547"/>
       <use xlink:href="#DejaVuSans-63" x="184.863281"/>
      </g>
     </g>
    </g>
    <g id="xtick_12">
     <g id="line2d_12">
      <path d="M 221.4 218.16 
L 91.365788 114.461176 
" clip-path="url(#p91f7357086)" style="fill: none; stroke: #b0b0b0; stroke-width: 0.8; stroke-linecap: square"/>
     </g>
     <g id="text_12">
      <!-- 7A -->
      <g transform="translate(73.818585 108.491694) scale(0.1 -0.1)">
       <defs>
        <path id="DejaVuSans-37" d="M 525 4666 
L 3525 4666 
L 3525 4397 
L 1831 0 
L 1172 0 
L 2766 4134 
L 525 4134 
L 525 4666 
z
" transform="scale(0.015625)"/>
        <path id="DejaVuSans-41" d="M 2188 4044 
L 1331 1722 
L 3047 1722 
L 2188 4044 
z
M 1831 4666 
L 2547 4666 
L 4325 0 
L 3669 0 
L 3244 1197 
L 1141 1197 
L 716 0 
L 50 0 
L 1831 4666 
z
" transform="scale(0.015625)"/>
       </defs>
       <use xlink:href="#DejaVuSans-37"/>
       <use xlink:href="#DejaVuSans-41" x="63.623047"/>
      </g>
     </g>
    </g>
    <g id="xtick_13">
     <g id="line2d_13">
      <path d="M 221.4 218.16 
L 71.550858 145.996457 
" clip-path="url(#p91f7357086)" style="fill: none; stroke: #b0b0b0; stroke-width: 0.8; stroke-linecap: square"/>
     </g>
     <g id="text_13">
      <!-- 46d -->
      <g transform="translate(49.400575 142.681459) scale(0.1 -0.1)">
       <defs>
        <path id="DejaVuSans-36" d="M 2113 2584 
Q 1688 2584 1439 2293 
Q 1191 2003 1191 1497 
Q 1191 994 1439 701 
Q 1688 409 2113 409 
Q 2538 409 2786 701 
Q 3034 994 3034 1497 
Q 3034 2003 2786 2293 
Q 2538 2584 2113 2584 
z
M 3366 4563 
L 3366 3988 
Q 3128 4100 2886 4159 
Q 2644 4219 2406 4219 
Q 1781 4219 1451 3797 
Q 1122 3375 1075 2522 
Q 1259 2794 1537 2939 
Q 1816 3084 2150 3084 
Q 2853 3084 3261 2657 
Q 3669 2231 3669 1497 
Q 3669 778 3244 343 
Q 2819 -91 2113 -91 
Q 1303 -91 875 529 
Q 447 1150 447 2328 
Q 447 3434 972 4092 
Q 1497 4750 2381 4750 
Q 2619 4750 2861 4703 
Q 3103 4656 3366 4563 
z
" transform="scale(0.015625)"/>
        <path id="DejaVuSans-64" d="M 2906 2969 
L 2906 4863 
L 3481 4863 
L 3481 0 
L 2906 0 
L 2906 525 
Q 2725 213 2448 61 
Q 2172 -91 1784 -91 
Q 1150 -91 751 415 
Q 353 922 353 1747 
Q 353 2572 751 3078 
Q 1150 3584 1784 3584 
Q 2172 3584 2448 3432 
Q 2725 3281 2906 2969 
z
M 947 1747 
Q 947 1113 1208 752 
Q 1469 391 1925 391 
Q 2381 391 2643 752 
Q 2906 1113 2906 1747 
Q 2906 2381 2643 2742 
Q 2381 3103 1925 3103 
Q 1469 3103 1208 2742 
Q 947 2381 947 1747 
z
" transform="scale(0.015625)"/>
       </defs>
       <use xlink:href="#DejaVuSans-34"/>
       <use xlink:href="#DejaVuSans-36" x="63.623047"/>
       <use xlink:href="#DejaVuSans-64" x="127.246094"/>
      </g>
     </g>
    </g>
    <g id="xtick_14">
     <g id="line2d_14">
      <path d="M 221.4 218.16 
L 59.24999 181.150318 
" clip-path="url(#p91f7357086)" style="fill: none; stroke: #b0b0b0; stroke-width: 0.8; stroke-linecap: square"/>
     </g>
     <g id="text_14">
      <!-- 10 -->
      <g transform="translate(39.238499 180.7944) scale(0.1 -0.1)">
       <defs>
        <path id="DejaVuSans-30" d="M 2034 4250 
Q 1547 4250 1301 3770 
Q 1056 3291 1056 2328 
Q 1056 1369 1301 889 
Q 1547 409 2034 409 
Q 2525 409 2770 889 
Q 3016 1369 3016 2328 
Q 3016 3291 2770 3770 
Q 2525 4250 2034 4250 
z
M 2034 4750 
Q 2819 4750 3233 4129 
Q 3647 3509 3647 2328 
Q 3647 1150 3233 529 
Q 2819 -91 2034 -91 
Q 1250 -91 836 529 
Q 422 1150 422 2328 
Q 422 3509 836 4129 
Q 1250 4750 2034 4750 
z
" transform="scale(0.015625)"/>
       </defs>
       <use xlink:href="#DejaVuSans-31"/>
       <use xlink:href="#DejaVuSans-30" x="63.623047"/>
      </g>
     </g>
    </g>
    <g id="xtick_15">
     <g id="line2d_15">
      <path d="M 221.4 218.16 
L 55.08 218.16 
" clip-path="url(#p91f7357086)" style="fill: none; stroke: #b0b0b0; stroke-width: 0.8; stroke-linecap: square"/>
     </g>
     <g id="text_15">
      <!-- 9/46v -->
      <g transform="translate(26.8925 220.919375) scale(0.1 -0.1)">
       <defs>
        <path id="DejaVuSans-39" d="M 703 97 
L 703 672 
Q 941 559 1184 500 
Q 1428 441 1663 441 
Q 2288 441 2617 861 
Q 2947 1281 2994 2138 
Q 2813 1869 2534 1725 
Q 2256 1581 1919 1581 
Q 1219 1581 811 2004 
Q 403 2428 403 3163 
Q 403 3881 828 4315 
Q 1253 4750 1959 4750 
Q 2769 4750 3195 4129 
Q 3622 3509 3622 2328 
Q 3622 1225 3098 567 
Q 2575 -91 1691 -91 
Q 1453 -91 1209 -44 
Q 966 3 703 97 
z
M 1959 2075 
Q 2384 2075 2632 2365 
Q 2881 2656 2881 3163 
Q 2881 3666 2632 3958 
Q 2384 4250 1959 4250 
Q 1534 4250 1286 3958 
Q 1038 3666 1038 3163 
Q 1038 2656 1286 2365 
Q 1534 2075 1959 2075 
z
" transform="scale(0.015625)"/>
        <path id="DejaVuSans-2f" d="M 1625 4666 
L 2156 4666 
L 531 -594 
L 0 -594 
L 1625 4666 
z
" transform="scale(0.015625)"/>
        <path id="DejaVuSans-76" d="M 191 3500 
L 800 3500 
L 1894 563 
L 2988 3500 
L 3597 3500 
L 2284 0 
L 1503 0 
L 191 3500 
z
" transform="scale(0.015625)"/>
       </defs>
       <use xlink:href="#DejaVuSans-39"/>
       <use xlink:href="#DejaVuSans-2f" x="63.623047"/>
       <use xlink:href="#DejaVuSans-34" x="97.314453"/>
       <use xlink:href="#DejaVuSans-36" x="160.9375"/>
       <use xlink:href="#DejaVuSans-76" x="224.560547"/>
      </g>
     </g>
    </g>
    <g id="xtick_16">
     <g id="line2d_16">
      <path d="M 221.4 218.16 
L 59.24999 255.169682 
" clip-path="url(#p91f7357086)" style="fill: none; stroke: #b0b0b0; stroke-width: 0.8; stroke-linecap: square"/>
     </g>
     <g id="text_16">
      <!-- 9/46d -->
      <g transform="translate(31.198655 261.04435) scale(0.1 -0.1)">
       <use xlink:href="#DejaVuSans-39"/>
       <use xlink:href="#DejaVuSans-2f" x="63.623047"/>
       <use xlink:href="#DejaVuSans-34" x="97.314453"/>
       <use xlink:href="#DejaVuSans-36" x="160.9375"/>
       <use xlink:href="#DejaVuSans-64" x="224.560547"/>
      </g>
     </g>
    </g>
    <g id="xtick_17">
     <g id="line2d_17">
      <path d="M 221.4 218.16 
L 71.550858 290.323543 
" clip-path="url(#p91f7357086)" style="fill: none; stroke: #b0b0b0; stroke-width: 0.8; stroke-linecap: square"/>
     </g>
     <g id="text_17">
      <!-- F5 -->
      <g transform="translate(52.880262 299.157291) scale(0.1 -0.1)">
       <use xlink:href="#DejaVuSans-46"/>
       <use xlink:href="#DejaVuSans-35" x="57.519531"/>
      </g>
     </g>
    </g>
    <g id="xtick_18">
     <g id="line2d_18">
      <path d="M 221.4 218.16 
L 91.365788 321.858824 
" clip-path="url(#p91f7357086)" style="fill: none; stroke: #b0b0b0; stroke-width: 0.8; stroke-linecap: square"/>
     </g>
     <g id="text_18">
      <!-- TEpd -->
      <g transform="translate(67.858428 333.347056) scale(0.1 -0.1)">
       <defs>
        <path id="DejaVuSans-70" d="M 1159 525 
L 1159 -1331 
L 581 -1331 
L 581 3500 
L 1159 3500 
L 1159 2969 
Q 1341 3281 1617 3432 
Q 1894 3584 2278 3584 
Q 2916 3584 3314 3078 
Q 3713 2572 3713 1747 
Q 3713 922 3314 415 
Q 2916 -91 2278 -91 
Q 1894 -91 1617 61 
Q 1341 213 1159 525 
z
M 3116 1747 
Q 3116 2381 2855 2742 
Q 2594 3103 2138 3103 
Q 1681 3103 1420 2742 
Q 1159 2381 1159 1747 
Q 1159 1113 1420 752 
Q 1681 391 2138 391 
Q 2594 391 2855 752 
Q 3116 1113 3116 1747 
z
" transform="scale(0.015625)"/>
       </defs>
       <use xlink:href="#DejaVuSans-54"/>
       <use xlink:href="#DejaVuSans-45" x="61.083984"/>
       <use xlink:href="#DejaVuSans-70" x="124.267578"/>
       <use xlink:href="#DejaVuSans-64" x="187.744141"/>
      </g>
     </g>
    </g>
    <g id="xtick_19">
     <g id="line2d_19">
      <path d="M 221.4 218.16 
L 117.701176 348.194212 
" clip-path="url(#p91f7357086)" style="fill: none; stroke: #b0b0b0; stroke-width: 0.8; stroke-linecap: square"/>
     </g>
     <g id="text_19">
      <!-- PBr -->
      <g transform="translate(100.471538 361.899228) scale(0.1 -0.1)">
       <defs>
        <path id="DejaVuSans-42" d="M 1259 2228 
L 1259 519 
L 2272 519 
Q 2781 519 3026 730 
Q 3272 941 3272 1375 
Q 3272 1813 3026 2020 
Q 2781 2228 2272 2228 
L 1259 2228 
z
M 1259 4147 
L 1259 2741 
L 2194 2741 
Q 2656 2741 2882 2914 
Q 3109 3088 3109 3444 
Q 3109 3797 2882 3972 
Q 2656 4147 2194 4147 
L 1259 4147 
z
M 628 4666 
L 2241 4666 
Q 2963 4666 3353 4366 
Q 3744 4066 3744 3513 
Q 3744 3084 3544 2831 
Q 3344 2578 2956 2516 
Q 3422 2416 3680 2098 
Q 3938 1781 3938 1306 
Q 3938 681 3513 340 
Q 3088 0 2303 0 
L 628 0 
L 628 4666 
z
" transform="scale(0.015625)"/>
        <path id="DejaVuSans-72" d="M 2631 2963 
Q 2534 3019 2420 3045 
Q 2306 3072 2169 3072 
Q 1681 3072 1420 2755 
Q 1159 2438 1159 1844 
L 1159 0 
L 581 0 
L 581 3500 
L 1159 3500 
L 1159 2956 
Q 1341 3275 1631 3429 
Q 1922 3584 2338 3584 
Q 2397 3584 2469 3576 
Q 2541 3569 2628 3553 
L 2631 2963 
z
" transform="scale(0.015625)"/>
       </defs>
       <use xlink:href="#DejaVuSans-50"/>
       <use xlink:href="#DejaVuSans-42" x="60.302734"/>
       <use xlink:href="#DejaVuSans-72" x="128.90625"/>
      </g>
     </g>
    </g>
    <g id="xtick_20">
     <g id="line2d_20">
      <path d="M 221.4 218.16 
L 149.236457 368.009142 
" clip-path="url(#p91f7357086)" style="fill: none; stroke: #b0b0b0; stroke-width: 0.8; stroke-linecap: square"/>
     </g>
     <g id="text_20">
      <!-- 7m -->
      <g transform="translate(135.110522 383.382081) scale(0.1 -0.1)">
       <use xlink:href="#DejaVuSans-37"/>
       <use xlink:href="#DejaVuSans-6d" x="63.623047"/>
      </g>
     </g>
    </g>
    <g id="xtick_21">
     <g id="line2d_21">
      <path d="M 221.4 218.16 
L 184.390318 380.31001 
" clip-path="url(#p91f7357086)" style="fill: none; stroke: #b0b0b0; stroke-width: 0.8; stroke-linecap: square"/>
     </g>
     <g id="text_21">
      <!-- 7B -->
      <g transform="translate(174.663306 396.718376) scale(0.1 -0.1)">
       <use xlink:href="#DejaVuSans-37"/>
       <use xlink:href="#DejaVuSans-42" x="63.623047"/>
      </g>
     </g>
    </g>
    <g id="xtick_22">
     <g id="line2d_22">
      <path d="M 221.4 218.16 
L 221.4 384.48 
" clip-path="url(#p91f7357086)" style="fill: none; stroke: #b0b0b0; stroke-width: 0.8; stroke-linecap: square"/>
     </g>
     <g id="text_22">
      <!-- F2 -->
      <g transform="translate(215.342969 401.239375) scale(0.1 -0.1)">
       <use xlink:href="#DejaVuSans-46"/>
       <use xlink:href="#DejaVuSans-32" x="57.519531"/>
      </g>
     </g>
    </g>
    <g id="xtick_23">
     <g id="line2d_23">
      <path d="M 221.4 218.16 
L 258.409682 380.31001 
" clip-path="url(#p91f7357086)" style="fill: none; stroke: #b0b0b0; stroke-width: 0.8; stroke-linecap: square"/>
     </g>
     <g id="text_23">
      <!-- STPi -->
      <g transform="translate(251.005444 396.718376) scale(0.1 -0.1)">
       <defs>
        <path id="DejaVuSans-69" d="M 603 3500 
L 1178 3500 
L 1178 0 
L 603 0 
L 603 3500 
z
M 603 4863 
L 1178 4863 
L 1178 4134 
L 603 4134 
L 603 4863 
z
" transform="scale(0.015625)"/>
       </defs>
       <use xlink:href="#DejaVuSans-53"/>
       <use xlink:href="#DejaVuSans-54" x="63.476562"/>
       <use xlink:href="#DejaVuSans-50" x="124.560547"/>
       <use xlink:href="#DejaVuSans-69" x="182.613281"/>
      </g>
     </g>
    </g>
    <g id="xtick_24">
     <g id="line2d_24">
      <path d="M 221.4 218.16 
L 293.563543 368.009142 
" clip-path="url(#p91f7357086)" style="fill: none; stroke: #b0b0b0; stroke-width: 0.8; stroke-linecap: square"/>
     </g>
     <g id="text_24">
      <!-- PROm -->
      <g transform="translate(284.342603 383.382081) scale(0.1 -0.1)">
       <defs>
        <path id="DejaVuSans-52" d="M 2841 2188 
Q 3044 2119 3236 1894 
Q 3428 1669 3622 1275 
L 4263 0 
L 3584 0 
L 2988 1197 
Q 2756 1666 2539 1819 
Q 2322 1972 1947 1972 
L 1259 1972 
L 1259 0 
L 628 0 
L 628 4666 
L 2053 4666 
Q 2853 4666 3247 4331 
Q 3641 3997 3641 3322 
Q 3641 2881 3436 2590 
Q 3231 2300 2841 2188 
z
M 1259 4147 
L 1259 2491 
L 2053 2491 
Q 2509 2491 2742 2702 
Q 2975 2913 2975 3322 
Q 2975 3731 2742 3939 
Q 2509 4147 2053 4147 
L 1259 4147 
z
" transform="scale(0.015625)"/>
       </defs>
       <use xlink:href="#DejaVuSans-50"/>
       <use xlink:href="#DejaVuSans-52" x="60.302734"/>
       <use xlink:href="#DejaVuSans-4f" x="129.785156"/>
       <use xlink:href="#DejaVuSans-6d" x="208.496094"/>
      </g>
     </g>
    </g>
    <g id="xtick_25">
     <g id="line2d_25">
      <path d="M 221.4 218.16 
L 325.098824 348.194212 
" clip-path="url(#p91f7357086)" style="fill: none; stroke: #b0b0b0; stroke-width: 0.8; stroke-linecap: square"/>
     </g>
     <g id="text_25">
      <!-- F7 -->
      <g transform="translate(327.77065 361.899228) scale(0.1 -0.1)">
       <use xlink:href="#DejaVuSans-46"/>
       <use xlink:href="#DejaVuSans-37" x="57.519531"/>
      </g>
     </g>
    </g>
    <g id="xtick_26">
     <g id="line2d_26">
      <path d="M 221.4 218.16 
L 351.434212 321.858824 
" clip-path="url(#p91f7357086)" style="fill: none; stroke: #b0b0b0; stroke-width: 0.8; stroke-linecap: square"/>
     </g>
     <g id="text_26">
      <!-- 8B -->
      <g transform="translate(355.768134 333.347056) scale(0.1 -0.1)">
       <use xlink:href="#DejaVuSans-38"/>
       <use xlink:href="#DejaVuSans-42" x="63.623047"/>
      </g>
     </g>
    </g>
    <g id="xtick_27">
     <g id="line2d_27">
      <path d="M 221.4 218.16 
L 371.249142 290.323543 
" clip-path="url(#p91f7357086)" style="fill: none; stroke: #b0b0b0; stroke-width: 0.8; stroke-linecap: square"/>
     </g>
     <g id="text_27">
      <!-- STPr -->
      <g transform="translate(372.651769 299.157291) scale(0.1 -0.1)">
       <use xlink:href="#DejaVuSans-53"/>
       <use xlink:href="#DejaVuSans-54" x="63.476562"/>
       <use xlink:href="#DejaVuSans-50" x="124.560547"/>
       <use xlink:href="#DejaVuSans-72" x="183.113281"/>
      </g>
     </g>
    </g>
    <g id="xtick_28">
     <g id="line2d_28">
      <path d="M 221.4 218.16 
L 383.55001 255.169682 
" clip-path="url(#p91f7357086)" style="fill: none; stroke: #b0b0b0; stroke-width: 0.8; stroke-linecap: square"/>
     </g>
     <g id="text_28">
      <!-- 24c -->
      <g transform="translate(388.087282 261.04435) scale(0.1 -0.1)">
       <use xlink:href="#DejaVuSans-32"/>
       <use xlink:href="#DejaVuSans-34" x="63.623047"/>
       <use xlink:href="#DejaVuSans-63" x="127.246094"/>
      </g>
     </g>
    </g>
   </g>
   <g id="matplotlib.axis_2">
    <g id="ytick_1">
     <g id="line2d_29">
      <path d="M 229.69636 218.16 
C 229.69636 217.070532 229.481759 215.991658 229.064838 214.98512 
C 228.647916 213.978583 228.036783 213.063958 227.266413 212.293587 
C 226.496042 211.523217 225.581417 210.912084 224.57488 210.495162 
C 223.568342 210.078241 222.489468 209.86364 221.4 209.86364 
C 220.310532 209.86364 219.231658 210.078241 218.22512 210.495162 
C 217.218583 210.912084 216.303958 211.523217 215.533587 212.293587 
C 214.763217 213.063958 214.152084 213.978583 213.735162 214.98512 
C 213.318241 215.991658 213.10364 217.070532 213.10364 218.16 
C 213.10364 219.249468 213.318241 220.328342 213.735162 221.33488 
C 214.152084 222.341417 214.763217 223.256042 215.533587 224.026413 
C 216.303958 224.796783 217.218583 225.407916 218.22512 225.824838 
C 219.231658 226.241759 220.310532 226.45636 221.4 226.45636 
C 222.489468 226.45636 223.568342 226.241759 224.57488 225.824838 
C 225.581417 225.407916 226.496042 224.796783 227.266413 224.026413 
C 228.036783 223.256042 228.647916 222.341417 229.064838 221.33488 
C 229.481759 220.328342 229.69636 219.249468 229.69636 218.16 
" clip-path="url(#p91f7357086)" style="fill: none; stroke: #b0b0b0; stroke-width: 0.8; stroke-linecap: square"/>
     </g>
     <g id="text_29">
      <!-- 0.00 -->
      <g transform="translate(229.064838 212.905433) scale(0.1 -0.1)">
       <defs>
        <path id="DejaVuSans-2e" d="M 684 794 
L 1344 794 
L 1344 0 
L 684 0 
L 684 794 
z
" transform="scale(0.015625)"/>
       </defs>
       <use xlink:href="#DejaVuSans-30"/>
       <use xlink:href="#DejaVuSans-2e" x="63.623047"/>
       <use xlink:href="#DejaVuSans-30" x="95.410156"/>
       <use xlink:href="#DejaVuSans-30" x="159.033203"/>
      </g>
     </g>
    </g>
    <g id="ytick_2">
     <g id="line2d_30">
      <path d="M 248.291432 218.16 
C 248.291432 214.62865 247.595833 211.131637 246.244443 207.869095 
C 244.893054 204.606552 242.912156 201.641928 240.415114 199.144886 
C 237.918072 196.647844 234.953448 194.666946 231.690905 193.315557 
C 228.428363 191.964167 224.93135 191.268568 221.4 191.268568 
C 217.86865 191.268568 214.371637 191.964167 211.109095 193.315557 
C 207.846552 194.666946 204.881928 196.647844 202.384886 199.144886 
C 199.887844 201.641928 197.906946 204.606552 196.555557 207.869095 
C 195.204167 211.131637 194.508568 214.62865 194.508568 218.16 
C 194.508568 221.69135 195.204167 225.188363 196.555557 228.450905 
C 197.906946 231.713448 199.887844 234.678072 202.384886 237.175114 
C 204.881928 239.672156 207.846552 241.653054 211.109095 243.004443 
C 214.371637 244.355833 217.86865 245.051432 221.4 245.051432 
C 224.93135 245.051432 228.428363 244.355833 231.690905 243.004443 
C 234.953448 241.653054 237.918072 239.672156 240.415114 237.175114 
C 242.912156 234.678072 244.893054 231.713448 246.244443 228.450905 
C 247.595833 225.188363 248.291432 221.69135 248.291432 218.16 
" clip-path="url(#p91f7357086)" style="fill: none; stroke: #b0b0b0; stroke-width: 0.8; stroke-linecap: square"/>
     </g>
     <g id="text_30">
      <!-- 0.01 -->
      <g transform="translate(246.244443 205.789407) scale(0.1 -0.1)">
       <use xlink:href="#DejaVuSans-30"/>
       <use xlink:href="#DejaVuSans-2e" x="63.623047"/>
       <use xlink:href="#DejaVuSans-30" x="95.410156"/>
       <use xlink:href="#DejaVuSans-31" x="159.033203"/>
      </g>
     </g>
    </g>
    <g id="ytick_3">
     <g id="line2d_31">
      <path d="M 266.886503 218.16 
C 266.886503 212.186767 265.709906 206.271617 263.424049 200.753069 
C 261.138192 195.234521 257.787528 190.219899 253.563815 185.996185 
C 249.340101 181.772472 244.325479 178.421808 238.806931 176.135951 
C 233.288383 173.850094 227.373233 172.673497 221.4 172.673497 
C 215.426767 172.673497 209.511617 173.850094 203.993069 176.135951 
C 198.474521 178.421808 193.459899 181.772472 189.236185 185.996185 
C 185.012472 190.219899 181.661808 195.234521 179.375951 200.753069 
C 177.090094 206.271617 175.913497 212.186767 175.913497 218.16 
C 175.913497 224.133233 177.090094 230.048383 179.375951 235.566931 
C 181.661808 241.085479 185.012472 246.100101 189.236185 250.323815 
C 193.459899 254.547528 198.474521 257.898192 203.993069 260.184049 
C 209.511617 262.469906 215.426767 263.646503 221.4 263.646503 
C 227.373233 263.646503 233.288383 262.469906 238.806931 260.184049 
C 244.325479 257.898192 249.340101 254.547528 253.563815 250.323815 
C 257.787528 246.100101 261.138192 241.085479 263.424049 235.566931 
C 265.709906 230.048383 266.886503 224.133233 266.886503 218.16 
" clip-path="url(#p91f7357086)" style="fill: none; stroke: #b0b0b0; stroke-width: 0.8; stroke-linecap: square"/>
     </g>
     <g id="text_31">
      <!-- 0.02 -->
      <g transform="translate(263.424049 198.673381) scale(0.1 -0.1)">
       <use xlink:href="#DejaVuSans-30"/>
       <use xlink:href="#DejaVuSans-2e" x="63.623047"/>
       <use xlink:href="#DejaVuSans-30" x="95.410156"/>
       <use xlink:href="#DejaVuSans-32" x="159.033203"/>
      </g>
     </g>
    </g>
    <g id="ytick_4">
     <g id="line2d_32">
      <path d="M 285.481574 218.16 
C 285.481574 209.744885 283.82398 201.411596 280.603655 193.637043 
C 277.38333 185.862491 272.662901 178.797869 266.712516 172.847484 
C 260.762131 166.897099 253.697509 162.17667 245.922957 158.956345 
C 238.148404 155.73602 229.815115 154.078426 221.4 154.078426 
C 212.984885 154.078426 204.651596 155.73602 196.877043 158.956345 
C 189.102491 162.17667 182.037869 166.897099 176.087484 172.847484 
C 170.137099 178.797869 165.41667 185.862491 162.196345 193.637043 
C 158.97602 201.411596 157.318426 209.744885 157.318426 218.16 
C 157.318426 226.575115 158.97602 234.908404 162.196345 242.682957 
C 165.41667 250.457509 170.137099 257.522131 176.087484 263.472516 
C 182.037869 269.422901 189.102491 274.14333 196.877043 277.363655 
C 204.651596 280.58398 212.984885 282.241574 221.4 282.241574 
C 229.815115 282.241574 238.148404 280.58398 245.922957 277.363655 
C 253.697509 274.14333 260.762131 269.422901 266.712516 263.472516 
C 272.662901 257.522131 277.38333 250.457509 280.603655 242.682957 
C 283.82398 234.908404 285.481574 226.575115 285.481574 218.16 
" clip-path="url(#p91f7357086)" style="fill: none; stroke: #b0b0b0; stroke-width: 0.8; stroke-linecap: square"/>
     </g>
     <g id="text_32">
      <!-- 0.03 -->
      <g transform="translate(280.603655 191.557356) scale(0.1 -0.1)">
       <defs>
        <path id="DejaVuSans-33" d="M 2597 2516 
Q 3050 2419 3304 2112 
Q 3559 1806 3559 1356 
Q 3559 666 3084 287 
Q 2609 -91 1734 -91 
Q 1441 -91 1130 -33 
Q 819 25 488 141 
L 488 750 
Q 750 597 1062 519 
Q 1375 441 1716 441 
Q 2309 441 2620 675 
Q 2931 909 2931 1356 
Q 2931 1769 2642 2001 
Q 2353 2234 1838 2234 
L 1294 2234 
L 1294 2753 
L 1863 2753 
Q 2328 2753 2575 2939 
Q 2822 3125 2822 3475 
Q 2822 3834 2567 4026 
Q 2313 4219 1838 4219 
Q 1578 4219 1281 4162 
Q 984 4106 628 3988 
L 628 4550 
Q 988 4650 1302 4700 
Q 1616 4750 1894 4750 
Q 2613 4750 3031 4423 
Q 3450 4097 3450 3541 
Q 3450 3153 3228 2886 
Q 3006 2619 2597 2516 
z
" transform="scale(0.015625)"/>
       </defs>
       <use xlink:href="#DejaVuSans-30"/>
       <use xlink:href="#DejaVuSans-2e" x="63.623047"/>
       <use xlink:href="#DejaVuSans-30" x="95.410156"/>
       <use xlink:href="#DejaVuSans-33" x="159.033203"/>
      </g>
     </g>
    </g>
    <g id="ytick_5">
     <g id="line2d_33">
      <path d="M 304.076645 218.16 
C 304.076645 207.303002 301.938054 196.551575 297.78326 186.521018 
C 293.628467 176.49046 287.538273 167.37584 279.861217 159.698783 
C 272.18416 152.021727 263.06954 145.931533 253.038982 141.77674 
C 243.008425 137.621946 232.256998 135.483355 221.4 135.483355 
C 210.543002 135.483355 199.791575 137.621946 189.761018 141.77674 
C 179.73046 145.931533 170.61584 152.021727 162.938783 159.698783 
C 155.261727 167.37584 149.171533 176.49046 145.01674 186.521018 
C 140.861946 196.551575 138.723355 207.303002 138.723355 218.16 
C 138.723355 229.016998 140.861946 239.768425 145.01674 249.798982 
C 149.171533 259.82954 155.261727 268.94416 162.938783 276.621217 
C 170.61584 284.298273 179.73046 290.388467 189.761018 294.54326 
C 199.791575 298.698054 210.543002 300.836645 221.4 300.836645 
C 232.256998 300.836645 243.008425 298.698054 253.038982 294.54326 
C 263.06954 290.388467 272.18416 284.298273 279.861217 276.621217 
C 287.538273 268.94416 293.628467 259.82954 297.78326 249.798982 
C 301.938054 239.768425 304.076645 229.016998 304.076645 218.16 
" clip-path="url(#p91f7357086)" style="fill: none; stroke: #b0b0b0; stroke-width: 0.8; stroke-linecap: square"/>
     </g>
     <g id="text_33">
      <!-- 0.04 -->
      <g transform="translate(297.78326 184.44133) scale(0.1 -0.1)">
       <use xlink:href="#DejaVuSans-30"/>
       <use xlink:href="#DejaVuSans-2e" x="63.623047"/>
       <use xlink:href="#DejaVuSans-30" x="95.410156"/>
       <use xlink:href="#DejaVuSans-34" x="159.033203"/>
      </g>
     </g>
    </g>
    <g id="ytick_6">
     <g id="line2d_34">
      <path d="M 322.671717 218.16 
C 322.671717 204.86112 320.052127 191.691555 314.962866 179.404992 
C 309.873605 167.118429 302.413646 155.953811 293.009918 146.550082 
C 283.606189 137.146354 272.441571 129.686395 260.155008 124.597134 
C 247.868445 119.507873 234.69888 116.888283 221.4 116.888283 
C 208.10112 116.888283 194.931555 119.507873 182.644992 124.597134 
C 170.358429 129.686395 159.193811 137.146354 149.790082 146.550082 
C 140.386354 155.953811 132.926395 167.118429 127.837134 179.404992 
C 122.747873 191.691555 120.128283 204.86112 120.128283 218.16 
C 120.128283 231.45888 122.747873 244.628445 127.837134 256.915008 
C 132.926395 269.201571 140.386354 280.366189 149.790082 289.769918 
C 159.193811 299.173646 170.358429 306.633605 182.644992 311.722866 
C 194.931555 316.812127 208.10112 319.431717 221.4 319.431717 
C 234.69888 319.431717 247.868445 316.812127 260.155008 311.722866 
C 272.441571 306.633605 283.606189 299.173646 293.009918 289.769918 
C 302.413646 280.366189 309.873605 269.201571 314.962866 256.915008 
C 320.052127 244.628445 322.671717 231.45888 322.671717 218.16 
" clip-path="url(#p91f7357086)" style="fill: none; stroke: #b0b0b0; stroke-width: 0.8; stroke-linecap: square"/>
     </g>
     <g id="text_34">
      <!-- 0.05 -->
      <g transform="translate(314.962866 177.325304) scale(0.1 -0.1)">
       <use xlink:href="#DejaVuSans-30"/>
       <use xlink:href="#DejaVuSans-2e" x="63.623047"/>
       <use xlink:href="#DejaVuSans-30" x="95.410156"/>
       <use xlink:href="#DejaVuSans-35" x="159.033203"/>
      </g>
     </g>
    </g>
    <g id="ytick_7">
     <g id="line2d_35">
      <path d="M 341.266788 218.16 
C 341.266788 202.419238 338.166201 186.831534 332.142472 172.288966 
C 326.118743 157.746398 317.289018 144.531781 306.158619 133.401381 
C 295.028219 122.270982 281.813602 113.441257 267.271034 107.417528 
C 252.728466 101.393799 237.140762 98.293212 221.4 98.293212 
C 205.659238 98.293212 190.071534 101.393799 175.528966 107.417528 
C 160.986398 113.441257 147.771781 122.270982 136.641381 133.401381 
C 125.510982 144.531781 116.681257 157.746398 110.657528 172.288966 
C 104.633799 186.831534 101.533212 202.419238 101.533212 218.16 
C 101.533212 233.900762 104.633799 249.488466 110.657528 264.031034 
C 116.681257 278.573602 125.510982 291.788219 136.641381 302.918619 
C 147.771781 314.049018 160.986398 322.878743 175.528966 328.902472 
C 190.071534 334.926201 205.659238 338.026788 221.4 338.026788 
C 237.140762 338.026788 252.728466 334.926201 267.271034 328.902472 
C 281.813602 322.878743 295.028219 314.049018 306.158619 302.918619 
C 317.289018 291.788219 326.118743 278.573602 332.142472 264.031034 
C 338.166201 249.488466 341.266788 233.900762 341.266788 218.16 
" clip-path="url(#p91f7357086)" style="fill: none; stroke: #b0b0b0; stroke-width: 0.8; stroke-linecap: square"/>
     </g>
     <g id="text_35">
      <!-- 0.06 -->
      <g transform="translate(332.142472 170.209279) scale(0.1 -0.1)">
       <use xlink:href="#DejaVuSans-30"/>
       <use xlink:href="#DejaVuSans-2e" x="63.623047"/>
       <use xlink:href="#DejaVuSans-30" x="95.410156"/>
       <use xlink:href="#DejaVuSans-36" x="159.033203"/>
      </g>
     </g>
    </g>
    <g id="ytick_8">
     <g id="line2d_36">
      <path d="M 359.861859 218.16 
C 359.861859 199.977355 356.280275 181.971514 349.322078 165.172941 
C 342.363881 148.374367 332.164391 133.109752 319.30732 120.25268 
C 306.450248 107.395609 291.185633 97.196119 274.387059 90.237922 
C 257.588486 83.279725 239.582645 79.698141 221.4 79.698141 
C 203.217355 79.698141 185.211514 83.279725 168.412941 90.237922 
C 151.614367 97.196119 136.349752 107.395609 123.49268 120.25268 
C 110.635609 133.109752 100.436119 148.374367 93.477922 165.172941 
C 86.519725 181.971514 82.938141 199.977355 82.938141 218.16 
C 82.938141 236.342645 86.519725 254.348486 93.477922 271.147059 
C 100.436119 287.945633 110.635609 303.210248 123.49268 316.06732 
C 136.349752 328.924391 151.614367 339.123881 168.412941 346.082078 
C 185.211514 353.040275 203.217355 356.621859 221.4 356.621859 
C 239.582645 356.621859 257.588486 353.040275 274.387059 346.082078 
C 291.185633 339.123881 306.450248 328.924391 319.30732 316.06732 
C 332.164391 303.210248 342.363881 287.945633 349.322078 271.147059 
C 356.280275 254.348486 359.861859 236.342645 359.861859 218.16 
" clip-path="url(#p91f7357086)" style="fill: none; stroke: #b0b0b0; stroke-width: 0.8; stroke-linecap: square"/>
     </g>
     <g id="text_36">
      <!-- 0.07 -->
      <g transform="translate(349.322078 163.093253) scale(0.1 -0.1)">
       <use xlink:href="#DejaVuSans-30"/>
       <use xlink:href="#DejaVuSans-2e" x="63.623047"/>
       <use xlink:href="#DejaVuSans-30" x="95.410156"/>
       <use xlink:href="#DejaVuSans-37" x="159.033203"/>
      </g>
     </g>
    </g>
    <g id="ytick_9">
     <g id="line2d_37">
      <path d="M 378.45693 218.16 
C 378.45693 197.535473 374.394348 177.111493 366.501683 158.056915 
C 358.609019 139.002336 347.039763 121.687723 332.45602 107.10398 
C 317.872277 92.520237 300.557664 80.950981 281.503085 73.058317 
C 262.448507 65.165652 242.024527 61.10307 221.4 61.10307 
C 200.775473 61.10307 180.351493 65.165652 161.296915 73.058317 
C 142.242336 80.950981 124.927723 92.520237 110.34398 107.10398 
C 95.760237 121.687723 84.190981 139.002336 76.298317 158.056915 
C 68.405652 177.111493 64.34307 197.535473 64.34307 218.16 
C 64.34307 238.784527 68.405652 259.208507 76.298317 278.263085 
C 84.190981 297.317664 95.760237 314.632277 110.34398 329.21602 
C 124.927723 343.799763 142.242336 355.369019 161.296915 363.261683 
C 180.351493 371.154348 200.775473 375.21693 221.4 375.21693 
C 242.024527 375.21693 262.448507 371.154348 281.503085 363.261683 
C 300.557664 355.369019 317.872277 343.799763 332.45602 329.21602 
C 347.039763 314.632277 358.609019 297.317664 366.501683 278.263085 
C 374.394348 259.208507 378.45693 238.784527 378.45693 218.16 
" clip-path="url(#p91f7357086)" style="fill: none; stroke: #b0b0b0; stroke-width: 0.8; stroke-linecap: square"/>
     </g>
     <g id="text_37">
      <!-- 0.08 -->
      <g transform="translate(366.501683 155.977227) scale(0.1 -0.1)">
       <use xlink:href="#DejaVuSans-30"/>
       <use xlink:href="#DejaVuSans-2e" x="63.623047"/>
       <use xlink:href="#DejaVuSans-30" x="95.410156"/>
       <use xlink:href="#DejaVuSans-38" x="159.033203"/>
      </g>
     </g>
    </g>
   </g>
   <g id="line2d_38">
    <path d="M 293.186473 218.16 
L 264.148563 208.402919 
L 232.648999 212.742768 
L 242.677205 201.191996 
L 226.156231 212.195874 
L 224.755922 211.191355 
L 223.117681 210.634349 
L 221.4 209.022582 
L 219.662438 210.547244 
L 218.048421 211.200374 
L 216.526837 212.049247 
L 215.349055 213.334532 
L 214.375837 214.777341 
L 213.935673 216.456316 
L 213.701451 218.16 
L 213.859842 219.880992 
L 214.49847 221.483601 
L 215.429507 222.921309 
L 216.618403 224.155933 
L 218.070892 225.072964 
L 219.649502 225.829431 
L 221.4 225.940831 
L 223.099923 225.607851 
L 224.783742 225.186413 
L 226.316351 224.324909 
L 227.407818 222.951075 
L 228.211325 221.440161 
L 228.990191 219.892411 
" clip-path="url(#p91f7357086)" style="fill: none; stroke: #ff0000; stroke-width: 1.5; stroke-linecap: square"/>
   </g>
   <g id="line2d_39">
    <path d="M 320.551358 218.16 
L 319.548513 195.758242 
L 322.954887 169.253744 
L 308.049897 149.059013 
L 303.903523 114.703855 
L 231.201109 197.807788 
L 256.727423 63.380445 
L 221.4 98.49251 
L 219.575133 210.164736 
L 216.929942 208.87783 
L 191.048641 180.100599 
L 136.88338 150.760244 
L 105.746309 162.464118 
L 120.029175 195.022771 
L 164.485484 218.16 
L 96.29015 246.715507 
L 211.918609 222.725997 
L 117.337002 301.147472 
L 193.581976 253.042699 
L 173.725179 317.157786 
L 202.699622 300.091708 
L 221.4 228.740072 
L 231.592143 262.814697 
L 225.30594 226.270768 
L 267.017479 275.362509 
L 306.037474 285.656133 
L 266.814968 240.030696 
L 253.535035 225.494612 
" clip-path="url(#p91f7357086)" style="fill: none; stroke: #0000ff; stroke-width: 1.5; stroke-linecap: square"/>
   </g>
   <g id="patch_5">
    <path d="M 387.72 218.16 
C 387.72 196.319058 383.417811 174.690491 375.059644 154.512092 
C 366.701477 134.333692 354.449878 115.997879 339.006 100.554 
C 323.562121 85.110122 305.226308 72.858523 285.047908 64.500356 
C 264.869509 56.142189 243.240942 51.84 221.4 51.84 
C 199.559058 51.84 177.930491 56.142189 157.752092 64.500356 
C 137.573692 72.858523 119.237879 85.110122 103.794 100.554 
C 88.350122 115.997879 76.098523 134.333692 67.740356 154.512092 
C 59.382189 174.690491 55.08 196.319058 55.08 218.16 
C 55.08 240.000942 59.382189 261.629509 67.740356 281.807908 
C 76.098523 301.986308 88.350122 320.322121 103.794 335.766 
C 119.237879 351.209878 137.573692 363.461477 157.752092 371.819644 
C 177.930491 380.177811 199.559058 384.48 221.4 384.48 
C 243.240942 384.48 264.869509 380.177811 285.047908 371.819644 
C 305.226308 363.461477 323.562121 351.209878 339.006 335.766 
C 354.449878 320.322121 366.701477 301.986308 375.059644 281.807908 
C 383.417811 261.629509 387.72 240.000942 387.72 218.16 
" style="fill: none; stroke: #000000; stroke-width: 0.8; stroke-linejoin: miter; stroke-linecap: square"/>
   </g>
  </g>
 </g>
 <defs>
  <clipPath id="p91f7357086">
   <path d="M 387.72 218.16 
C 387.72 196.319058 383.417811 174.690491 375.059644 154.512092 
C 366.701477 134.333692 354.449878 115.997879 339.006 100.554 
C 323.562121 85.110122 305.226308 72.858523 285.047908 64.500356 
C 264.869509 56.142189 243.240942 51.84 221.4 51.84 
C 199.559058 51.84 177.930491 56.142189 157.752092 64.500356 
C 137.573692 72.858523 119.237879 85.110122 103.794 100.554 
C 88.350122 115.997879 76.098523 134.333692 67.740356 154.512092 
C 59.382189 174.690491 55.08 196.319058 55.08 218.16 
C 55.08 240.000942 59.382189 261.629509 67.740356 281.807908 
C 76.098523 301.986308 88.350122 320.322121 103.794 335.766 
C 119.237879 351.209878 137.573692 363.461477 157.752092 371.819644 
C 177.930491 380.177811 199.559058 384.48 221.4 384.48 
C 243.240942 384.48 264.869509 380.177811 285.047908 371.819644 
C 305.226308 363.461477 323.562121 351.209878 339.006 335.766 
C 354.449878 320.322121 366.701477 301.986308 375.059644 281.807908 
C 383.417811 261.629509 387.72 240.000942 387.72 218.16 
M 221.4 218.16 
C 221.4 218.16 221.4 218.16 221.4 218.16 
C 221.4 218.16 221.4 218.16 221.4 218.16 
C 221.4 218.16 221.4 218.16 221.4 218.16 
C 221.4 218.16 221.4 218.16 221.4 218.16 
C 221.4 218.16 221.4 218.16 221.4 218.16 
C 221.4 218.16 221.4 218.16 221.4 218.16 
C 221.4 218.16 221.4 218.16 221.4 218.16 
C 221.4 218.16 221.4 218.16 221.4 218.16 
C 221.4 218.16 221.4 218.16 221.4 218.16 
C 221.4 218.16 221.4 218.16 221.4 218.16 
C 221.4 218.16 221.4 218.16 221.4 218.16 
C 221.4 218.16 221.4 218.16 221.4 218.16 
C 221.4 218.16 221.4 218.16 221.4 218.16 
C 221.4 218.16 221.4 218.16 221.4 218.16 
C 221.4 218.16 221.4 218.16 221.4 218.16 
C 221.4 218.16 221.4 218.16 221.4 218.16 
z
"/>
  </clipPath>
 </defs>
</svg>
