<?xml version="1.0" encoding="utf-8" standalone="no"?>
<!DOCTYPE svg PUBLIC "-//W3C//DTD SVG 1.1//EN"
  "http://www.w3.org/Graphics/SVG/1.1/DTD/svg11.dtd">
<svg xmlns:xlink="http://www.w3.org/1999/xlink" width="432pt" height="432pt" viewBox="0 0 432 432" xmlns="http://www.w3.org/2000/svg" version="1.1">
 <metadata>
  <rdf:RDF xmlns:dc="http://purl.org/dc/elements/1.1/" xmlns:cc="http://creativecommons.org/ns#" xmlns:rdf="http://www.w3.org/1999/02/22-rdf-syntax-ns#">
   <cc:Work>
    <dc:type rdf:resource="http://purl.org/dc/dcmitype/StillImage"/>
    <dc:date>2023-04-24T16:25:08.269873</dc:date>
    <dc:format>image/svg+xml</dc:format>
    <dc:creator>
     <cc:Agent>
      <dc:title>Matplotlib v3.5.2, https://matplotlib.org/</dc:title>
     </cc:Agent>
    </dc:creator>
   </cc:Work>
  </rdf:RDF>
 </metadata>
 <defs>
  <style type="text/css">*{stroke-linejoin: round; stroke-linecap: butt}</style>
 </defs>
 <g id="figure_1">
  <g id="patch_1">
   <path d="M 0 432 
L 432 432 
L 432 0 
L 0 0 
z
" style="fill: #ffffff"/>
  </g>
  <g id="axes_1">
   <g id="patch_2">
    <path d="M 398.6275 223.56 
C 398.6275 200.074946 394.001457 176.818255 385.014116 155.120895 
C 376.026775 133.423535 362.852917 113.707464 346.246477 97.101023 
C 329.640036 80.494583 309.923965 67.320725 288.226605 58.333384 
C 266.529245 49.346043 243.272554 44.72 219.7875 44.72 
C 196.302446 44.72 173.045755 49.346043 151.348395 58.333384 
C 129.651035 67.320725 109.934964 80.494583 93.328523 97.101023 
C 76.722083 113.707464 63.548225 133.423535 54.560884 155.120895 
C 45.573543 176.818255 40.9475 200.074946 40.9475 223.56 
C 40.9475 247.045054 45.573543 270.301745 54.560884 291.999105 
C 63.548225 313.696465 76.722083 333.412536 93.328523 350.018977 
C 109.934964 366.625417 129.651035 379.799275 151.348395 388.786616 
C 173.045755 397.773957 196.302446 402.4 219.7875 402.4 
C 243.272554 402.4 266.529245 397.773957 288.226605 388.786616 
C 309.923965 379.799275 329.640036 366.625417 346.246477 350.018977 
C 362.852917 333.412536 376.026775 313.696465 385.014116 291.999105 
C 394.001457 270.301745 398.6275 247.045054 398.6275 223.56 
M 219.7875 223.56 
C 219.7875 223.56 219.7875 223.56 219.7875 223.56 
C 219.7875 223.56 219.7875 223.56 219.7875 223.56 
C 219.7875 223.56 219.7875 223.56 219.7875 223.56 
C 219.7875 223.56 219.7875 223.56 219.7875 223.56 
C 219.7875 223.56 219.7875 223.56 219.7875 223.56 
C 219.7875 223.56 219.7875 223.56 219.7875 223.56 
C 219.7875 223.56 219.7875 223.56 219.7875 223.56 
C 219.7875 223.56 219.7875 223.56 219.7875 223.56 
C 219.7875 223.56 219.7875 223.56 219.7875 223.56 
C 219.7875 223.56 219.7875 223.56 219.7875 223.56 
C 219.7875 223.56 219.7875 223.56 219.7875 223.56 
C 219.7875 223.56 219.7875 223.56 219.7875 223.56 
C 219.7875 223.56 219.7875 223.56 219.7875 223.56 
C 219.7875 223.56 219.7875 223.56 219.7875 223.56 
C 219.7875 223.56 219.7875 223.56 219.7875 223.56 
C 219.7875 223.56 219.7875 223.56 219.7875 223.56 
M 398.6275 223.56 
z
" style="fill: #ffffff"/>
   </g>
   <g id="patch_3">
    <path d="M 258.579878 223.56 
L 243.042788 218.252132 
L 229.254533 219.000917 
L 232.892788 213.108881 
L 224.865081 217.192914 
L 223.344439 216.173939 
L 221.618064 215.539775 
L 219.7875 214.835787 
L 217.977531 215.630006 
L 216.226274 216.165038 
L 214.615174 217.074109 
L 213.286443 218.37558 
L 212.463442 220.03292 
L 211.824113 221.742409 
L 211.587471 223.56 
L 211.73129 225.398777 
L 212.442469 227.09718 
L 213.429263 228.630524 
L 214.647677 230.005134 
L 216.236045 230.934673 
L 217.942677 231.642698 
L 219.7875 231.786117 
L 221.615253 231.56791 
L 223.3469 230.951171 
L 224.916783 229.991917 
L 226.238763 228.70471 
L 227.192505 227.126063 
L 227.927198 225.417833 
z
" clip-path="url(#p876078f18a)" style="fill: #ff0000; opacity: 0.1"/>
   </g>
   <g id="patch_4">
    <path d="M 390.498409 223.56 
L 349.761479 193.894287 
L 291.614217 188.970076 
L 296.139075 162.671651 
L 239.238187 199.16961 
L 224.5371 213.697353 
L 228.023627 187.475172 
L 219.7875 139.16492 
L 217.968311 215.589613 
L 216.096391 215.895333 
L 210.295737 211.657705 
L 198.384048 206.491317 
L 192.919729 210.621163 
L 194.711078 217.83647 
L 204.238186 223.56 
L 190.570987 230.228478 
L 212.037602 227.292154 
L 180.492317 254.896863 
L 210.931475 234.665104 
L 208.061003 247.910322 
L 214.905619 244.948918 
L 219.7875 232.154834 
L 223.046648 237.83926 
L 223.416468 231.09563 
L 231.664531 238.453326 
L 240.50247 240.079638 
L 233.596227 230.209932 
L 231.217705 226.16887 
z
" clip-path="url(#p876078f18a)" style="fill: #0000ff; opacity: 0.1"/>
   </g>
   <g id="matplotlib.axis_1">
    <g id="xtick_1">
     <g id="line2d_1">
      <path d="M 219.7875 223.56 
L 398.6275 223.56 
" clip-path="url(#p876078f18a)" style="fill: none; stroke: #b0b0b0; stroke-width: 0.8; stroke-linecap: square"/>
     </g>
     <g id="text_1">
      <!-- V2 -->
      <g transform="translate(406.025937 226.319375)scale(0.1 -0.1)">
       <defs>
        <path id="DejaVuSans-56" d="M 1831 0 
L 50 4666 
L 709 4666 
L 2188 738 
L 3669 4666 
L 4325 4666 
L 2547 0 
L 1831 0 
z
" transform="scale(0.015625)"/>
        <path id="DejaVuSans-32" d="M 1228 531 
L 3431 531 
L 3431 0 
L 469 0 
L 469 531 
Q 828 903 1448 1529 
Q 2069 2156 2228 2338 
Q 2531 2678 2651 2914 
Q 2772 3150 2772 3378 
Q 2772 3750 2511 3984 
Q 2250 4219 1831 4219 
Q 1534 4219 1204 4116 
Q 875 4013 500 3803 
L 500 4441 
Q 881 4594 1212 4672 
Q 1544 4750 1819 4750 
Q 2544 4750 2975 4387 
Q 3406 4025 3406 3419 
Q 3406 3131 3298 2873 
Q 3191 2616 2906 2266 
Q 2828 2175 2409 1742 
Q 1991 1309 1228 531 
z
" transform="scale(0.015625)"/>
       </defs>
       <use xlink:href="#DejaVuSans-56"/>
       <use xlink:href="#DejaVuSans-32" x="68.408203"/>
      </g>
     </g>
    </g>
    <g id="xtick_2">
     <g id="line2d_2">
      <path d="M 219.7875 223.56 
L 394.143608 183.764356 
" clip-path="url(#p876078f18a)" style="fill: none; stroke: #b0b0b0; stroke-width: 0.8; stroke-linecap: square"/>
     </g>
     <g id="text_2">
      <!-- V4 -->
      <g transform="translate(401.191036 183.408438)scale(0.1 -0.1)">
       <defs>
        <path id="DejaVuSans-34" d="M 2419 4116 
L 825 1625 
L 2419 1625 
L 2419 4116 
z
M 2253 4666 
L 3047 4666 
L 3047 1625 
L 3713 1625 
L 3713 1100 
L 3047 1100 
L 3047 0 
L 2419 0 
L 2419 1100 
L 313 1100 
L 313 1709 
L 2253 4666 
z
" transform="scale(0.015625)"/>
       </defs>
       <use xlink:href="#DejaVuSans-56"/>
       <use xlink:href="#DejaVuSans-34" x="68.408203"/>
      </g>
     </g>
    </g>
    <g id="xtick_3">
     <g id="line2d_3">
      <path d="M 219.7875 223.56 
L 380.916772 145.964232 
" clip-path="url(#p876078f18a)" style="fill: none; stroke: #b0b0b0; stroke-width: 0.8; stroke-linecap: square"/>
     </g>
     <g id="text_3">
      <!-- DP -->
      <g transform="translate(386.665493 142.649235)scale(0.1 -0.1)">
       <defs>
        <path id="DejaVuSans-44" d="M 1259 4147 
L 1259 519 
L 2022 519 
Q 2988 519 3436 956 
Q 3884 1394 3884 2338 
Q 3884 3275 3436 3711 
Q 2988 4147 2022 4147 
L 1259 4147 
z
M 628 4666 
L 1925 4666 
Q 3281 4666 3915 4102 
Q 4550 3538 4550 2338 
Q 4550 1131 3912 565 
Q 3275 0 1925 0 
L 628 0 
L 628 4666 
z
" transform="scale(0.015625)"/>
        <path id="DejaVuSans-50" d="M 1259 4147 
L 1259 2394 
L 2053 2394 
Q 2494 2394 2734 2622 
Q 2975 2850 2975 3272 
Q 2975 3691 2734 3919 
Q 2494 4147 2053 4147 
L 1259 4147 
z
M 628 4666 
L 2053 4666 
Q 2838 4666 3239 4311 
Q 3641 3956 3641 3272 
Q 3641 2581 3239 2228 
Q 2838 1875 2053 1875 
L 1259 1875 
L 1259 0 
L 628 0 
L 628 4666 
z
" transform="scale(0.015625)"/>
       </defs>
       <use xlink:href="#DejaVuSans-44"/>
       <use xlink:href="#DejaVuSans-50" x="77.001953"/>
      </g>
     </g>
    </g>
    <g id="xtick_4">
     <g id="line2d_4">
      <path d="M 219.7875 223.56 
L 359.610242 112.055084 
" clip-path="url(#p876078f18a)" style="fill: none; stroke: #b0b0b0; stroke-width: 0.8; stroke-linecap: square"/>
     </g>
     <g id="text_4">
      <!-- MT -->
      <g transform="translate(363.187914 106.085602)scale(0.1 -0.1)">
       <defs>
        <path id="DejaVuSans-4d" d="M 628 4666 
L 1569 4666 
L 2759 1491 
L 3956 4666 
L 4897 4666 
L 4897 0 
L 4281 0 
L 4281 4097 
L 3078 897 
L 2444 897 
L 1241 4097 
L 1241 0 
L 628 0 
L 628 4666 
z
" transform="scale(0.015625)"/>
        <path id="DejaVuSans-54" d="M -19 4666 
L 3928 4666 
L 3928 4134 
L 2272 4134 
L 2272 0 
L 1638 0 
L 1638 4134 
L -19 4134 
L -19 4666 
z
" transform="scale(0.015625)"/>
       </defs>
       <use xlink:href="#DejaVuSans-4d"/>
       <use xlink:href="#DejaVuSans-54" x="86.279297"/>
      </g>
     </g>
    </g>
    <g id="xtick_5">
     <g id="line2d_5">
      <path d="M 219.7875 223.56 
L 331.292416 83.737258 
" clip-path="url(#p876078f18a)" style="fill: none; stroke: #b0b0b0; stroke-width: 0.8; stroke-linecap: square"/>
     </g>
     <g id="text_5">
      <!-- 8m -->
      <g transform="translate(331.969711 75.550992)scale(0.1 -0.1)">
       <defs>
        <path id="DejaVuSans-38" d="M 2034 2216 
Q 1584 2216 1326 1975 
Q 1069 1734 1069 1313 
Q 1069 891 1326 650 
Q 1584 409 2034 409 
Q 2484 409 2743 651 
Q 3003 894 3003 1313 
Q 3003 1734 2745 1975 
Q 2488 2216 2034 2216 
z
M 1403 2484 
Q 997 2584 770 2862 
Q 544 3141 544 3541 
Q 544 4100 942 4425 
Q 1341 4750 2034 4750 
Q 2731 4750 3128 4425 
Q 3525 4100 3525 3541 
Q 3525 3141 3298 2862 
Q 3072 2584 2669 2484 
Q 3125 2378 3379 2068 
Q 3634 1759 3634 1313 
Q 3634 634 3220 271 
Q 2806 -91 2034 -91 
Q 1263 -91 848 271 
Q 434 634 434 1313 
Q 434 1759 690 2068 
Q 947 2378 1403 2484 
z
M 1172 3481 
Q 1172 3119 1398 2916 
Q 1625 2713 2034 2713 
Q 2441 2713 2670 2916 
Q 2900 3119 2900 3481 
Q 2900 3844 2670 4047 
Q 2441 4250 2034 4250 
Q 1625 4250 1398 4047 
Q 1172 3844 1172 3481 
z
" transform="scale(0.015625)"/>
        <path id="DejaVuSans-6d" d="M 3328 2828 
Q 3544 3216 3844 3400 
Q 4144 3584 4550 3584 
Q 5097 3584 5394 3201 
Q 5691 2819 5691 2113 
L 5691 0 
L 5113 0 
L 5113 2094 
Q 5113 2597 4934 2840 
Q 4756 3084 4391 3084 
Q 3944 3084 3684 2787 
Q 3425 2491 3425 1978 
L 3425 0 
L 2847 0 
L 2847 2094 
Q 2847 2600 2669 2842 
Q 2491 3084 2119 3084 
Q 1678 3084 1418 2786 
Q 1159 2488 1159 1978 
L 1159 0 
L 581 0 
L 581 3500 
L 1159 3500 
L 1159 2956 
Q 1356 3278 1631 3431 
Q 1906 3584 2284 3584 
Q 2666 3584 2933 3390 
Q 3200 3197 3328 2828 
z
" transform="scale(0.015625)"/>
       </defs>
       <use xlink:href="#DejaVuSans-38"/>
       <use xlink:href="#DejaVuSans-6d" x="63.623047"/>
      </g>
     </g>
    </g>
    <g id="xtick_6">
     <g id="line2d_6">
      <path d="M 219.7875 223.56 
L 297.383268 62.430728 
" clip-path="url(#p876078f18a)" style="fill: none; stroke: #b0b0b0; stroke-width: 0.8; stroke-linecap: square"/>
     </g>
     <g id="text_6">
      <!-- 5 -->
      <g transform="translate(300.27639 52.576539)scale(0.1 -0.1)">
       <defs>
        <path id="DejaVuSans-35" d="M 691 4666 
L 3169 4666 
L 3169 4134 
L 1269 4134 
L 1269 2991 
Q 1406 3038 1543 3061 
Q 1681 3084 1819 3084 
Q 2600 3084 3056 2656 
Q 3513 2228 3513 1497 
Q 3513 744 3044 326 
Q 2575 -91 1722 -91 
Q 1428 -91 1123 -41 
Q 819 9 494 109 
L 494 744 
Q 775 591 1075 516 
Q 1375 441 1709 441 
Q 2250 441 2565 725 
Q 2881 1009 2881 1497 
Q 2881 1984 2565 2268 
Q 2250 2553 1709 2553 
Q 1456 2553 1204 2497 
Q 953 2441 691 2322 
L 691 4666 
z
" transform="scale(0.015625)"/>
       </defs>
       <use xlink:href="#DejaVuSans-35"/>
      </g>
     </g>
    </g>
    <g id="xtick_7">
     <g id="line2d_7">
      <path d="M 219.7875 223.56 
L 259.583144 49.203892 
" clip-path="url(#p876078f18a)" style="fill: none; stroke: #b0b0b0; stroke-width: 0.8; stroke-linecap: square"/>
     </g>
     <g id="text_7">
      <!-- 8l -->
      <g transform="translate(258.128124 38.314276)scale(0.1 -0.1)">
       <defs>
        <path id="DejaVuSans-6c" d="M 603 4863 
L 1178 4863 
L 1178 0 
L 603 0 
L 603 4863 
z
" transform="scale(0.015625)"/>
       </defs>
       <use xlink:href="#DejaVuSans-38"/>
       <use xlink:href="#DejaVuSans-6c" x="63.623047"/>
      </g>
     </g>
    </g>
    <g id="xtick_8">
     <g id="line2d_8">
      <path d="M 219.7875 223.56 
L 219.7875 44.72 
" clip-path="url(#p876078f18a)" style="fill: none; stroke: #b0b0b0; stroke-width: 0.8; stroke-linecap: square"/>
     </g>
     <g id="text_8">
      <!-- TEO -->
      <g transform="translate(209.638281 33.479375)scale(0.1 -0.1)">
       <defs>
        <path id="DejaVuSans-45" d="M 628 4666 
L 3578 4666 
L 3578 4134 
L 1259 4134 
L 1259 2753 
L 3481 2753 
L 3481 2222 
L 1259 2222 
L 1259 531 
L 3634 531 
L 3634 0 
L 628 0 
L 628 4666 
z
" transform="scale(0.015625)"/>
        <path id="DejaVuSans-4f" d="M 2522 4238 
Q 1834 4238 1429 3725 
Q 1025 3213 1025 2328 
Q 1025 1447 1429 934 
Q 1834 422 2522 422 
Q 3209 422 3611 934 
Q 4013 1447 4013 2328 
Q 4013 3213 3611 3725 
Q 3209 4238 2522 4238 
z
M 2522 4750 
Q 3503 4750 4090 4092 
Q 4678 3434 4678 2328 
Q 4678 1225 4090 567 
Q 3503 -91 2522 -91 
Q 1538 -91 948 565 
Q 359 1222 359 2328 
Q 359 3434 948 4092 
Q 1538 4750 2522 4750 
z
" transform="scale(0.015625)"/>
       </defs>
       <use xlink:href="#DejaVuSans-54"/>
       <use xlink:href="#DejaVuSans-45" x="61.083984"/>
       <use xlink:href="#DejaVuSans-4f" x="124.267578"/>
      </g>
     </g>
    </g>
    <g id="xtick_9">
     <g id="line2d_9">
      <path d="M 219.7875 223.56 
L 179.991856 49.203892 
" clip-path="url(#p876078f18a)" style="fill: none; stroke: #b0b0b0; stroke-width: 0.8; stroke-linecap: square"/>
     </g>
     <g id="text_9">
      <!-- 2 -->
      <g transform="translate(173.695313 38.314276)scale(0.1 -0.1)">
       <use xlink:href="#DejaVuSans-32"/>
      </g>
     </g>
    </g>
    <g id="xtick_10">
     <g id="line2d_10">
      <path d="M 219.7875 223.56 
L 142.191732 62.430728 
" clip-path="url(#p876078f18a)" style="fill: none; stroke: #b0b0b0; stroke-width: 0.8; stroke-linecap: square"/>
     </g>
     <g id="text_10">
      <!-- F1 -->
      <g transform="translate(130.060328 52.576539)scale(0.1 -0.1)">
       <defs>
        <path id="DejaVuSans-46" d="M 628 4666 
L 3309 4666 
L 3309 4134 
L 1259 4134 
L 1259 2759 
L 3109 2759 
L 3109 2228 
L 1259 2228 
L 1259 0 
L 628 0 
L 628 4666 
z
" transform="scale(0.015625)"/>
        <path id="DejaVuSans-31" d="M 794 531 
L 1825 531 
L 1825 4091 
L 703 3866 
L 703 4441 
L 1819 4666 
L 2450 4666 
L 2450 531 
L 3481 531 
L 3481 0 
L 794 0 
L 794 531 
z
" transform="scale(0.015625)"/>
       </defs>
       <use xlink:href="#DejaVuSans-46"/>
       <use xlink:href="#DejaVuSans-31" x="57.519531"/>
      </g>
     </g>
    </g>
    <g id="xtick_11">
     <g id="line2d_11">
      <path d="M 219.7875 223.56 
L 108.282584 83.737258 
" clip-path="url(#p876078f18a)" style="fill: none; stroke: #b0b0b0; stroke-width: 0.8; stroke-linecap: square"/>
     </g>
     <g id="text_11">
      <!-- STPc -->
      <g transform="translate(87.561539 75.550992)scale(0.1 -0.1)">
       <defs>
        <path id="DejaVuSans-53" d="M 3425 4513 
L 3425 3897 
Q 3066 4069 2747 4153 
Q 2428 4238 2131 4238 
Q 1616 4238 1336 4038 
Q 1056 3838 1056 3469 
Q 1056 3159 1242 3001 
Q 1428 2844 1947 2747 
L 2328 2669 
Q 3034 2534 3370 2195 
Q 3706 1856 3706 1288 
Q 3706 609 3251 259 
Q 2797 -91 1919 -91 
Q 1588 -91 1214 -16 
Q 841 59 441 206 
L 441 856 
Q 825 641 1194 531 
Q 1563 422 1919 422 
Q 2459 422 2753 634 
Q 3047 847 3047 1241 
Q 3047 1584 2836 1778 
Q 2625 1972 2144 2069 
L 1759 2144 
Q 1053 2284 737 2584 
Q 422 2884 422 3419 
Q 422 4038 858 4394 
Q 1294 4750 2059 4750 
Q 2388 4750 2728 4690 
Q 3069 4631 3425 4513 
z
" transform="scale(0.015625)"/>
        <path id="DejaVuSans-63" d="M 3122 3366 
L 3122 2828 
Q 2878 2963 2633 3030 
Q 2388 3097 2138 3097 
Q 1578 3097 1268 2742 
Q 959 2388 959 1747 
Q 959 1106 1268 751 
Q 1578 397 2138 397 
Q 2388 397 2633 464 
Q 2878 531 3122 666 
L 3122 134 
Q 2881 22 2623 -34 
Q 2366 -91 2075 -91 
Q 1284 -91 818 406 
Q 353 903 353 1747 
Q 353 2603 823 3093 
Q 1294 3584 2113 3584 
Q 2378 3584 2631 3529 
Q 2884 3475 3122 3366 
z
" transform="scale(0.015625)"/>
       </defs>
       <use xlink:href="#DejaVuSans-53"/>
       <use xlink:href="#DejaVuSans-54" x="63.476562"/>
       <use xlink:href="#DejaVuSans-50" x="124.560547"/>
       <use xlink:href="#DejaVuSans-63" x="184.863281"/>
      </g>
     </g>
    </g>
    <g id="xtick_12">
     <g id="line2d_12">
      <path d="M 219.7875 223.56 
L 79.964758 112.055084 
" clip-path="url(#p876078f18a)" style="fill: none; stroke: #b0b0b0; stroke-width: 0.8; stroke-linecap: square"/>
     </g>
     <g id="text_12">
      <!-- 7A -->
      <g transform="translate(62.417554 106.085602)scale(0.1 -0.1)">
       <defs>
        <path id="DejaVuSans-37" d="M 525 4666 
L 3525 4666 
L 3525 4397 
L 1831 0 
L 1172 0 
L 2766 4134 
L 525 4134 
L 525 4666 
z
" transform="scale(0.015625)"/>
        <path id="DejaVuSans-41" d="M 2188 4044 
L 1331 1722 
L 3047 1722 
L 2188 4044 
z
M 1831 4666 
L 2547 4666 
L 4325 0 
L 3669 0 
L 3244 1197 
L 1141 1197 
L 716 0 
L 50 0 
L 1831 4666 
z
" transform="scale(0.015625)"/>
       </defs>
       <use xlink:href="#DejaVuSans-37"/>
       <use xlink:href="#DejaVuSans-41" x="63.623047"/>
      </g>
     </g>
    </g>
    <g id="xtick_13">
     <g id="line2d_13">
      <path d="M 219.7875 223.56 
L 58.658228 145.964232 
" clip-path="url(#p876078f18a)" style="fill: none; stroke: #b0b0b0; stroke-width: 0.8; stroke-linecap: square"/>
     </g>
     <g id="text_13">
      <!-- 46d -->
      <g transform="translate(36.507945 142.649235)scale(0.1 -0.1)">
       <defs>
        <path id="DejaVuSans-36" d="M 2113 2584 
Q 1688 2584 1439 2293 
Q 1191 2003 1191 1497 
Q 1191 994 1439 701 
Q 1688 409 2113 409 
Q 2538 409 2786 701 
Q 3034 994 3034 1497 
Q 3034 2003 2786 2293 
Q 2538 2584 2113 2584 
z
M 3366 4563 
L 3366 3988 
Q 3128 4100 2886 4159 
Q 2644 4219 2406 4219 
Q 1781 4219 1451 3797 
Q 1122 3375 1075 2522 
Q 1259 2794 1537 2939 
Q 1816 3084 2150 3084 
Q 2853 3084 3261 2657 
Q 3669 2231 3669 1497 
Q 3669 778 3244 343 
Q 2819 -91 2113 -91 
Q 1303 -91 875 529 
Q 447 1150 447 2328 
Q 447 3434 972 4092 
Q 1497 4750 2381 4750 
Q 2619 4750 2861 4703 
Q 3103 4656 3366 4563 
z
" transform="scale(0.015625)"/>
        <path id="DejaVuSans-64" d="M 2906 2969 
L 2906 4863 
L 3481 4863 
L 3481 0 
L 2906 0 
L 2906 525 
Q 2725 213 2448 61 
Q 2172 -91 1784 -91 
Q 1150 -91 751 415 
Q 353 922 353 1747 
Q 353 2572 751 3078 
Q 1150 3584 1784 3584 
Q 2172 3584 2448 3432 
Q 2725 3281 2906 2969 
z
M 947 1747 
Q 947 1113 1208 752 
Q 1469 391 1925 391 
Q 2381 391 2643 752 
Q 2906 1113 2906 1747 
Q 2906 2381 2643 2742 
Q 2381 3103 1925 3103 
Q 1469 3103 1208 2742 
Q 947 2381 947 1747 
z
" transform="scale(0.015625)"/>
       </defs>
       <use xlink:href="#DejaVuSans-34"/>
       <use xlink:href="#DejaVuSans-36" x="63.623047"/>
       <use xlink:href="#DejaVuSans-64" x="127.246094"/>
      </g>
     </g>
    </g>
    <g id="xtick_14">
     <g id="line2d_14">
      <path d="M 219.7875 223.56 
L 45.431392 183.764356 
" clip-path="url(#p876078f18a)" style="fill: none; stroke: #b0b0b0; stroke-width: 0.8; stroke-linecap: square"/>
     </g>
     <g id="text_14">
      <!-- 10 -->
      <g transform="translate(25.419901 183.408438)scale(0.1 -0.1)">
       <defs>
        <path id="DejaVuSans-30" d="M 2034 4250 
Q 1547 4250 1301 3770 
Q 1056 3291 1056 2328 
Q 1056 1369 1301 889 
Q 1547 409 2034 409 
Q 2525 409 2770 889 
Q 3016 1369 3016 2328 
Q 3016 3291 2770 3770 
Q 2525 4250 2034 4250 
z
M 2034 4750 
Q 2819 4750 3233 4129 
Q 3647 3509 3647 2328 
Q 3647 1150 3233 529 
Q 2819 -91 2034 -91 
Q 1250 -91 836 529 
Q 422 1150 422 2328 
Q 422 3509 836 4129 
Q 1250 4750 2034 4750 
z
" transform="scale(0.015625)"/>
       </defs>
       <use xlink:href="#DejaVuSans-31"/>
       <use xlink:href="#DejaVuSans-30" x="63.623047"/>
      </g>
     </g>
    </g>
    <g id="xtick_15">
     <g id="line2d_15">
      <path d="M 219.7875 223.56 
L 40.9475 223.56 
" clip-path="url(#p876078f18a)" style="fill: none; stroke: #b0b0b0; stroke-width: 0.8; stroke-linecap: square"/>
     </g>
     <g id="text_15">
      <!-- 9/46v -->
      <g transform="translate(12.76 226.319375)scale(0.1 -0.1)">
       <defs>
        <path id="DejaVuSans-39" d="M 703 97 
L 703 672 
Q 941 559 1184 500 
Q 1428 441 1663 441 
Q 2288 441 2617 861 
Q 2947 1281 2994 2138 
Q 2813 1869 2534 1725 
Q 2256 1581 1919 1581 
Q 1219 1581 811 2004 
Q 403 2428 403 3163 
Q 403 3881 828 4315 
Q 1253 4750 1959 4750 
Q 2769 4750 3195 4129 
Q 3622 3509 3622 2328 
Q 3622 1225 3098 567 
Q 2575 -91 1691 -91 
Q 1453 -91 1209 -44 
Q 966 3 703 97 
z
M 1959 2075 
Q 2384 2075 2632 2365 
Q 2881 2656 2881 3163 
Q 2881 3666 2632 3958 
Q 2384 4250 1959 4250 
Q 1534 4250 1286 3958 
Q 1038 3666 1038 3163 
Q 1038 2656 1286 2365 
Q 1534 2075 1959 2075 
z
" transform="scale(0.015625)"/>
        <path id="DejaVuSans-2f" d="M 1625 4666 
L 2156 4666 
L 531 -594 
L 0 -594 
L 1625 4666 
z
" transform="scale(0.015625)"/>
        <path id="DejaVuSans-76" d="M 191 3500 
L 800 3500 
L 1894 563 
L 2988 3500 
L 3597 3500 
L 2284 0 
L 1503 0 
L 191 3500 
z
" transform="scale(0.015625)"/>
       </defs>
       <use xlink:href="#DejaVuSans-39"/>
       <use xlink:href="#DejaVuSans-2f" x="63.623047"/>
       <use xlink:href="#DejaVuSans-34" x="97.314453"/>
       <use xlink:href="#DejaVuSans-36" x="160.9375"/>
       <use xlink:href="#DejaVuSans-76" x="224.560547"/>
      </g>
     </g>
    </g>
    <g id="xtick_16">
     <g id="line2d_16">
      <path d="M 219.7875 223.56 
L 45.431392 263.355644 
" clip-path="url(#p876078f18a)" style="fill: none; stroke: #b0b0b0; stroke-width: 0.8; stroke-linecap: square"/>
     </g>
     <g id="text_16">
      <!-- 9/46d -->
      <g transform="translate(17.380058 269.230312)scale(0.1 -0.1)">
       <use xlink:href="#DejaVuSans-39"/>
       <use xlink:href="#DejaVuSans-2f" x="63.623047"/>
       <use xlink:href="#DejaVuSans-34" x="97.314453"/>
       <use xlink:href="#DejaVuSans-36" x="160.9375"/>
       <use xlink:href="#DejaVuSans-64" x="224.560547"/>
      </g>
     </g>
    </g>
    <g id="xtick_17">
     <g id="line2d_17">
      <path d="M 219.7875 223.56 
L 58.658228 301.155768 
" clip-path="url(#p876078f18a)" style="fill: none; stroke: #b0b0b0; stroke-width: 0.8; stroke-linecap: square"/>
     </g>
     <g id="text_17">
      <!-- F5 -->
      <g transform="translate(39.987632 309.989515)scale(0.1 -0.1)">
       <use xlink:href="#DejaVuSans-46"/>
       <use xlink:href="#DejaVuSans-35" x="57.519531"/>
      </g>
     </g>
    </g>
    <g id="xtick_18">
     <g id="line2d_18">
      <path d="M 219.7875 223.56 
L 79.964758 335.064916 
" clip-path="url(#p876078f18a)" style="fill: none; stroke: #b0b0b0; stroke-width: 0.8; stroke-linecap: square"/>
     </g>
     <g id="text_18">
      <!-- TEpd -->
      <g transform="translate(56.457398 346.553148)scale(0.1 -0.1)">
       <defs>
        <path id="DejaVuSans-70" d="M 1159 525 
L 1159 -1331 
L 581 -1331 
L 581 3500 
L 1159 3500 
L 1159 2969 
Q 1341 3281 1617 3432 
Q 1894 3584 2278 3584 
Q 2916 3584 3314 3078 
Q 3713 2572 3713 1747 
Q 3713 922 3314 415 
Q 2916 -91 2278 -91 
Q 1894 -91 1617 61 
Q 1341 213 1159 525 
z
M 3116 1747 
Q 3116 2381 2855 2742 
Q 2594 3103 2138 3103 
Q 1681 3103 1420 2742 
Q 1159 2381 1159 1747 
Q 1159 1113 1420 752 
Q 1681 391 2138 391 
Q 2594 391 2855 752 
Q 3116 1113 3116 1747 
z
" transform="scale(0.015625)"/>
       </defs>
       <use xlink:href="#DejaVuSans-54"/>
       <use xlink:href="#DejaVuSans-45" x="61.083984"/>
       <use xlink:href="#DejaVuSans-70" x="124.267578"/>
       <use xlink:href="#DejaVuSans-64" x="187.744141"/>
      </g>
     </g>
    </g>
    <g id="xtick_19">
     <g id="line2d_19">
      <path d="M 219.7875 223.56 
L 108.282584 363.382742 
" clip-path="url(#p876078f18a)" style="fill: none; stroke: #b0b0b0; stroke-width: 0.8; stroke-linecap: square"/>
     </g>
     <g id="text_19">
      <!-- PBr -->
      <g transform="translate(91.052945 377.087758)scale(0.1 -0.1)">
       <defs>
        <path id="DejaVuSans-42" d="M 1259 2228 
L 1259 519 
L 2272 519 
Q 2781 519 3026 730 
Q 3272 941 3272 1375 
Q 3272 1813 3026 2020 
Q 2781 2228 2272 2228 
L 1259 2228 
z
M 1259 4147 
L 1259 2741 
L 2194 2741 
Q 2656 2741 2882 2914 
Q 3109 3088 3109 3444 
Q 3109 3797 2882 3972 
Q 2656 4147 2194 4147 
L 1259 4147 
z
M 628 4666 
L 2241 4666 
Q 2963 4666 3353 4366 
Q 3744 4066 3744 3513 
Q 3744 3084 3544 2831 
Q 3344 2578 2956 2516 
Q 3422 2416 3680 2098 
Q 3938 1781 3938 1306 
Q 3938 681 3513 340 
Q 3088 0 2303 0 
L 628 0 
L 628 4666 
z
" transform="scale(0.015625)"/>
        <path id="DejaVuSans-72" d="M 2631 2963 
Q 2534 3019 2420 3045 
Q 2306 3072 2169 3072 
Q 1681 3072 1420 2755 
Q 1159 2438 1159 1844 
L 1159 0 
L 581 0 
L 581 3500 
L 1159 3500 
L 1159 2956 
Q 1341 3275 1631 3429 
Q 1922 3584 2338 3584 
Q 2397 3584 2469 3576 
Q 2541 3569 2628 3553 
L 2631 2963 
z
" transform="scale(0.015625)"/>
       </defs>
       <use xlink:href="#DejaVuSans-50"/>
       <use xlink:href="#DejaVuSans-42" x="60.302734"/>
       <use xlink:href="#DejaVuSans-72" x="128.90625"/>
      </g>
     </g>
    </g>
    <g id="xtick_20">
     <g id="line2d_20">
      <path d="M 219.7875 223.56 
L 142.191732 384.689272 
" clip-path="url(#p876078f18a)" style="fill: none; stroke: #b0b0b0; stroke-width: 0.8; stroke-linecap: square"/>
     </g>
     <g id="text_20">
      <!-- 7m -->
      <g transform="translate(128.065797 400.062211)scale(0.1 -0.1)">
       <use xlink:href="#DejaVuSans-37"/>
       <use xlink:href="#DejaVuSans-6d" x="63.623047"/>
      </g>
     </g>
    </g>
    <g id="xtick_21">
     <g id="line2d_21">
      <path d="M 219.7875 223.56 
L 179.991856 397.916108 
" clip-path="url(#p876078f18a)" style="fill: none; stroke: #b0b0b0; stroke-width: 0.8; stroke-linecap: square"/>
     </g>
     <g id="text_21">
      <!-- 7B -->
      <g transform="translate(170.264844 414.324474)scale(0.1 -0.1)">
       <use xlink:href="#DejaVuSans-37"/>
       <use xlink:href="#DejaVuSans-42" x="63.623047"/>
      </g>
     </g>
    </g>
    <g id="xtick_22">
     <g id="line2d_22">
      <path d="M 219.7875 223.56 
L 219.7875 402.4 
" clip-path="url(#p876078f18a)" style="fill: none; stroke: #b0b0b0; stroke-width: 0.8; stroke-linecap: square"/>
     </g>
     <g id="text_22">
      <!-- F2 -->
      <g transform="translate(213.730469 419.159375)scale(0.1 -0.1)">
       <use xlink:href="#DejaVuSans-46"/>
       <use xlink:href="#DejaVuSans-32" x="57.519531"/>
      </g>
     </g>
    </g>
    <g id="xtick_23">
     <g id="line2d_23">
      <path d="M 219.7875 223.56 
L 259.583144 397.916108 
" clip-path="url(#p876078f18a)" style="fill: none; stroke: #b0b0b0; stroke-width: 0.8; stroke-linecap: square"/>
     </g>
     <g id="text_23">
      <!-- STPi -->
      <g transform="translate(252.178906 414.324474)scale(0.1 -0.1)">
       <defs>
        <path id="DejaVuSans-69" d="M 603 3500 
L 1178 3500 
L 1178 0 
L 603 0 
L 603 3500 
z
M 603 4863 
L 1178 4863 
L 1178 4134 
L 603 4134 
L 603 4863 
z
" transform="scale(0.015625)"/>
       </defs>
       <use xlink:href="#DejaVuSans-53"/>
       <use xlink:href="#DejaVuSans-54" x="63.476562"/>
       <use xlink:href="#DejaVuSans-50" x="124.560547"/>
       <use xlink:href="#DejaVuSans-69" x="182.613281"/>
      </g>
     </g>
    </g>
    <g id="xtick_24">
     <g id="line2d_24">
      <path d="M 219.7875 223.56 
L 297.383268 384.689272 
" clip-path="url(#p876078f18a)" style="fill: none; stroke: #b0b0b0; stroke-width: 0.8; stroke-linecap: square"/>
     </g>
     <g id="text_24">
      <!-- PROm -->
      <g transform="translate(288.162328 400.062211)scale(0.1 -0.1)">
       <defs>
        <path id="DejaVuSans-52" d="M 2841 2188 
Q 3044 2119 3236 1894 
Q 3428 1669 3622 1275 
L 4263 0 
L 3584 0 
L 2988 1197 
Q 2756 1666 2539 1819 
Q 2322 1972 1947 1972 
L 1259 1972 
L 1259 0 
L 628 0 
L 628 4666 
L 2053 4666 
Q 2853 4666 3247 4331 
Q 3641 3997 3641 3322 
Q 3641 2881 3436 2590 
Q 3231 2300 2841 2188 
z
M 1259 4147 
L 1259 2491 
L 2053 2491 
Q 2509 2491 2742 2702 
Q 2975 2913 2975 3322 
Q 2975 3731 2742 3939 
Q 2509 4147 2053 4147 
L 1259 4147 
z
" transform="scale(0.015625)"/>
       </defs>
       <use xlink:href="#DejaVuSans-50"/>
       <use xlink:href="#DejaVuSans-52" x="60.302734"/>
       <use xlink:href="#DejaVuSans-4f" x="129.785156"/>
       <use xlink:href="#DejaVuSans-6d" x="208.496094"/>
      </g>
     </g>
    </g>
    <g id="xtick_25">
     <g id="line2d_25">
      <path d="M 219.7875 223.56 
L 331.292416 363.382742 
" clip-path="url(#p876078f18a)" style="fill: none; stroke: #b0b0b0; stroke-width: 0.8; stroke-linecap: square"/>
     </g>
     <g id="text_25">
      <!-- F7 -->
      <g transform="translate(333.964242 377.087758)scale(0.1 -0.1)">
       <use xlink:href="#DejaVuSans-46"/>
       <use xlink:href="#DejaVuSans-37" x="57.519531"/>
      </g>
     </g>
    </g>
    <g id="xtick_26">
     <g id="line2d_26">
      <path d="M 219.7875 223.56 
L 359.610242 335.064916 
" clip-path="url(#p876078f18a)" style="fill: none; stroke: #b0b0b0; stroke-width: 0.8; stroke-linecap: square"/>
     </g>
     <g id="text_26">
      <!-- 8B -->
      <g transform="translate(363.944164 346.553148)scale(0.1 -0.1)">
       <use xlink:href="#DejaVuSans-38"/>
       <use xlink:href="#DejaVuSans-42" x="63.623047"/>
      </g>
     </g>
    </g>
    <g id="xtick_27">
     <g id="line2d_27">
      <path d="M 219.7875 223.56 
L 380.916772 301.155768 
" clip-path="url(#p876078f18a)" style="fill: none; stroke: #b0b0b0; stroke-width: 0.8; stroke-linecap: square"/>
     </g>
     <g id="text_27">
      <!-- STPr -->
      <g transform="translate(382.319399 309.989515)scale(0.1 -0.1)">
       <use xlink:href="#DejaVuSans-53"/>
       <use xlink:href="#DejaVuSans-54" x="63.476562"/>
       <use xlink:href="#DejaVuSans-50" x="124.560547"/>
       <use xlink:href="#DejaVuSans-72" x="183.113281"/>
      </g>
     </g>
    </g>
    <g id="xtick_28">
     <g id="line2d_28">
      <path d="M 219.7875 223.56 
L 394.143608 263.355644 
" clip-path="url(#p876078f18a)" style="fill: none; stroke: #b0b0b0; stroke-width: 0.8; stroke-linecap: square"/>
     </g>
     <g id="text_28">
      <!-- 24c -->
      <g transform="translate(398.68088 269.230312)scale(0.1 -0.1)">
       <use xlink:href="#DejaVuSans-32"/>
       <use xlink:href="#DejaVuSans-34" x="63.623047"/>
       <use xlink:href="#DejaVuSans-63" x="127.246094"/>
      </g>
     </g>
    </g>
   </g>
   <g id="matplotlib.axis_2">
    <g id="ytick_1">
     <g id="line2d_29">
      <path d="M 228.017288 223.56 
C 228.017288 222.479274 227.804409 221.409057 227.390833 220.410596 
C 226.977257 219.412136 226.371028 218.50485 225.606839 217.740661 
C 224.84265 216.976472 223.935364 216.370243 222.936904 215.956667 
C 221.938443 215.543091 220.868226 215.330212 219.7875 215.330212 
C 218.706774 215.330212 217.636557 215.543091 216.638096 215.956667 
C 215.639636 216.370243 214.73235 216.976472 213.968161 217.740661 
C 213.203972 218.50485 212.597743 219.412136 212.184167 220.410596 
C 211.770591 221.409057 211.557712 222.479274 211.557712 223.56 
C 211.557712 224.640726 211.770591 225.710943 212.184167 226.709404 
C 212.597743 227.707864 213.203972 228.61515 213.968161 229.379339 
C 214.73235 230.143528 215.639636 230.749757 216.638096 231.163333 
C 217.636557 231.576909 218.706774 231.789788 219.7875 231.789788 
C 220.868226 231.789788 221.938443 231.576909 222.936904 231.163333 
C 223.935364 230.749757 224.84265 230.143528 225.606839 229.379339 
C 226.371028 228.61515 226.977257 227.707864 227.390833 226.709404 
C 227.804409 225.710943 228.017288 224.640726 228.017288 223.56 
" clip-path="url(#p876078f18a)" style="fill: none; stroke: #b0b0b0; stroke-width: 0.8; stroke-linecap: square"/>
     </g>
     <g id="text_29">
      <!-- 0.00 -->
      <g transform="translate(227.390833 218.330909)scale(0.1 -0.1)">
       <defs>
        <path id="DejaVuSans-2e" d="M 684 794 
L 1344 794 
L 1344 0 
L 684 0 
L 684 794 
z
" transform="scale(0.015625)"/>
       </defs>
       <use xlink:href="#DejaVuSans-30"/>
       <use xlink:href="#DejaVuSans-2e" x="63.623047"/>
       <use xlink:href="#DejaVuSans-30" x="95.410156"/>
       <use xlink:href="#DejaVuSans-30" x="159.033203"/>
      </g>
     </g>
    </g>
    <g id="ytick_2">
     <g id="line2d_30">
      <path d="M 259.68311 223.56 
C 259.68311 218.320957 258.651132 213.132856 256.646237 208.292611 
C 254.641342 203.452366 251.702519 199.054107 247.997956 195.349544 
C 244.293393 191.644981 239.895134 188.706158 235.054889 186.701263 
C 230.214644 184.696368 225.026543 183.66439 219.7875 183.66439 
C 214.548457 183.66439 209.360356 184.696368 204.520111 186.701263 
C 199.679866 188.706158 195.281607 191.644981 191.577044 195.349544 
C 187.872481 199.054107 184.933658 203.452366 182.928763 208.292611 
C 180.923868 213.132856 179.89189 218.320957 179.89189 223.56 
C 179.89189 228.799043 180.923868 233.987144 182.928763 238.827389 
C 184.933658 243.667634 187.872481 248.065893 191.577044 251.770456 
C 195.281607 255.475019 199.679866 258.413842 204.520111 260.418737 
C 209.360356 262.423632 214.548457 263.45561 219.7875 263.45561 
C 225.026543 263.45561 230.214644 262.423632 235.054889 260.418737 
C 239.895134 258.413842 244.293393 255.475019 247.997956 251.770456 
C 251.702519 248.065893 254.641342 243.667634 256.646237 238.827389 
C 258.651132 233.987144 259.68311 228.799043 259.68311 223.56 
" clip-path="url(#p876078f18a)" style="fill: none; stroke: #b0b0b0; stroke-width: 0.8; stroke-linecap: square"/>
     </g>
     <g id="text_30">
      <!-- 0.01 -->
      <g transform="translate(256.646237 206.212924)scale(0.1 -0.1)">
       <use xlink:href="#DejaVuSans-30"/>
       <use xlink:href="#DejaVuSans-2e" x="63.623047"/>
       <use xlink:href="#DejaVuSans-30" x="95.410156"/>
       <use xlink:href="#DejaVuSans-31" x="159.033203"/>
      </g>
     </g>
    </g>
    <g id="ytick_3">
     <g id="line2d_31">
      <path d="M 291.348931 223.56 
C 291.348931 214.162639 289.497856 204.856655 285.901642 196.174626 
C 282.305427 187.492596 277.034011 179.603364 270.389073 172.958427 
C 263.744136 166.313489 255.854904 161.042073 247.172874 157.445858 
C 238.490845 153.849644 229.184861 151.998569 219.7875 151.998569 
C 210.390139 151.998569 201.084155 153.849644 192.402126 157.445858 
C 183.720096 161.042073 175.830864 166.313489 169.185927 172.958427 
C 162.540989 179.603364 157.269573 187.492596 153.673358 196.174626 
C 150.077144 204.856655 148.226069 214.162639 148.226069 223.56 
C 148.226069 232.957361 150.077144 242.263345 153.673358 250.945374 
C 157.269573 259.627404 162.540989 267.516636 169.185927 274.161573 
C 175.830864 280.806511 183.720096 286.077927 192.402126 289.674142 
C 201.084155 293.270356 210.390139 295.121431 219.7875 295.121431 
C 229.184861 295.121431 238.490845 293.270356 247.172874 289.674142 
C 255.854904 286.077927 263.744136 280.806511 270.389073 274.161573 
C 277.034011 267.516636 282.305427 259.627404 285.901642 250.945374 
C 289.497856 242.263345 291.348931 232.957361 291.348931 223.56 
" clip-path="url(#p876078f18a)" style="fill: none; stroke: #b0b0b0; stroke-width: 0.8; stroke-linecap: square"/>
     </g>
     <g id="text_31">
      <!-- 0.02 -->
      <g transform="translate(285.901642 194.094938)scale(0.1 -0.1)">
       <use xlink:href="#DejaVuSans-30"/>
       <use xlink:href="#DejaVuSans-2e" x="63.623047"/>
       <use xlink:href="#DejaVuSans-30" x="95.410156"/>
       <use xlink:href="#DejaVuSans-32" x="159.033203"/>
      </g>
     </g>
    </g>
    <g id="ytick_4">
     <g id="line2d_32">
      <path d="M 323.014753 223.56 
C 323.014753 210.004321 320.34458 196.580455 315.157046 184.05664 
C 309.969513 171.532826 302.365503 160.152622 292.780191 150.567309 
C 283.194878 140.981997 271.814674 133.377987 259.29086 128.190454 
C 246.767045 123.00292 233.343179 120.332747 219.7875 120.332747 
C 206.231821 120.332747 192.807955 123.00292 180.28414 128.190454 
C 167.760326 133.377987 156.380122 140.981997 146.794809 150.567309 
C 137.209497 160.152622 129.605487 171.532826 124.417954 184.05664 
C 119.23042 196.580455 116.560247 210.004321 116.560247 223.56 
C 116.560247 237.115679 119.23042 250.539545 124.417954 263.06336 
C 129.605487 275.587174 137.209497 286.967378 146.794809 296.552691 
C 156.380122 306.138003 167.760326 313.742013 180.28414 318.929546 
C 192.807955 324.11708 206.231821 326.787253 219.7875 326.787253 
C 233.343179 326.787253 246.767045 324.11708 259.29086 318.929546 
C 271.814674 313.742013 283.194878 306.138003 292.780191 296.552691 
C 302.365503 286.967378 309.969513 275.587174 315.157046 263.06336 
C 320.34458 250.539545 323.014753 237.115679 323.014753 223.56 
" clip-path="url(#p876078f18a)" style="fill: none; stroke: #b0b0b0; stroke-width: 0.8; stroke-linecap: square"/>
     </g>
     <g id="text_32">
      <!-- 0.03 -->
      <g transform="translate(315.157046 181.976953)scale(0.1 -0.1)">
       <defs>
        <path id="DejaVuSans-33" d="M 2597 2516 
Q 3050 2419 3304 2112 
Q 3559 1806 3559 1356 
Q 3559 666 3084 287 
Q 2609 -91 1734 -91 
Q 1441 -91 1130 -33 
Q 819 25 488 141 
L 488 750 
Q 750 597 1062 519 
Q 1375 441 1716 441 
Q 2309 441 2620 675 
Q 2931 909 2931 1356 
Q 2931 1769 2642 2001 
Q 2353 2234 1838 2234 
L 1294 2234 
L 1294 2753 
L 1863 2753 
Q 2328 2753 2575 2939 
Q 2822 3125 2822 3475 
Q 2822 3834 2567 4026 
Q 2313 4219 1838 4219 
Q 1578 4219 1281 4162 
Q 984 4106 628 3988 
L 628 4550 
Q 988 4650 1302 4700 
Q 1616 4750 1894 4750 
Q 2613 4750 3031 4423 
Q 3450 4097 3450 3541 
Q 3450 3153 3228 2886 
Q 3006 2619 2597 2516 
z
" transform="scale(0.015625)"/>
       </defs>
       <use xlink:href="#DejaVuSans-30"/>
       <use xlink:href="#DejaVuSans-2e" x="63.623047"/>
       <use xlink:href="#DejaVuSans-30" x="95.410156"/>
       <use xlink:href="#DejaVuSans-33" x="159.033203"/>
      </g>
     </g>
    </g>
    <g id="ytick_5">
     <g id="line2d_33">
      <path d="M 354.680575 223.56 
C 354.680575 205.846004 351.191304 188.304254 344.412451 171.938655 
C 337.633598 155.573057 327.696995 140.701879 315.171308 128.176192 
C 302.645621 115.650505 287.774443 105.713902 271.408845 98.935049 
C 255.043246 92.156196 237.501496 88.666925 219.7875 88.666925 
C 202.073504 88.666925 184.531754 92.156196 168.166155 98.935049 
C 151.800557 105.713902 136.929379 115.650505 124.403692 128.176192 
C 111.878005 140.701879 101.941402 155.573057 95.162549 171.938655 
C 88.383696 188.304254 84.894425 205.846004 84.894425 223.56 
C 84.894425 241.273996 88.383696 258.815746 95.162549 275.181345 
C 101.941402 291.546943 111.878005 306.418121 124.403692 318.943808 
C 136.929379 331.469495 151.800557 341.406098 168.166155 348.184951 
C 184.531754 354.963804 202.073504 358.453075 219.7875 358.453075 
C 237.501496 358.453075 255.043246 354.963804 271.408845 348.184951 
C 287.774443 341.406098 302.645621 331.469495 315.171308 318.943808 
C 327.696995 306.418121 337.633598 291.546943 344.412451 275.181345 
C 351.191304 258.815746 354.680575 241.273996 354.680575 223.56 
" clip-path="url(#p876078f18a)" style="fill: none; stroke: #b0b0b0; stroke-width: 0.8; stroke-linecap: square"/>
     </g>
     <g id="text_33">
      <!-- 0.04 -->
      <g transform="translate(344.412451 169.858968)scale(0.1 -0.1)">
       <use xlink:href="#DejaVuSans-30"/>
       <use xlink:href="#DejaVuSans-2e" x="63.623047"/>
       <use xlink:href="#DejaVuSans-30" x="95.410156"/>
       <use xlink:href="#DejaVuSans-34" x="159.033203"/>
      </g>
     </g>
    </g>
    <g id="ytick_6">
     <g id="line2d_34">
      <path d="M 386.346396 223.56 
C 386.346396 201.687686 382.038027 180.028053 373.667855 159.82067 
C 365.297683 139.613287 353.028487 121.251136 337.562425 105.785075 
C 322.096364 90.319013 303.734213 78.049817 283.52683 69.679645 
C 263.319447 61.309473 241.659814 57.001104 219.7875 57.001104 
C 197.915186 57.001104 176.255553 61.309473 156.04817 69.679645 
C 135.840787 78.049817 117.478636 90.319013 102.012575 105.785075 
C 86.546513 121.251136 74.277317 139.613287 65.907145 159.82067 
C 57.536973 180.028053 53.228604 201.687686 53.228604 223.56 
C 53.228604 245.432314 57.536973 267.091947 65.907145 287.29933 
C 74.277317 307.506713 86.546513 325.868864 102.012575 341.334925 
C 117.478636 356.800987 135.840787 369.070183 156.04817 377.440355 
C 176.255553 385.810527 197.915186 390.118896 219.7875 390.118896 
C 241.659814 390.118896 263.319447 385.810527 283.52683 377.440355 
C 303.734213 369.070183 322.096364 356.800987 337.562425 341.334925 
C 353.028487 325.868864 365.297683 307.506713 373.667855 287.29933 
C 382.038027 267.091947 386.346396 245.432314 386.346396 223.56 
" clip-path="url(#p876078f18a)" style="fill: none; stroke: #b0b0b0; stroke-width: 0.8; stroke-linecap: square"/>
     </g>
     <g id="text_34">
      <!-- 0.05 -->
      <g transform="translate(373.667855 157.740982)scale(0.1 -0.1)">
       <use xlink:href="#DejaVuSans-30"/>
       <use xlink:href="#DejaVuSans-2e" x="63.623047"/>
       <use xlink:href="#DejaVuSans-30" x="95.410156"/>
       <use xlink:href="#DejaVuSans-35" x="159.033203"/>
      </g>
     </g>
    </g>
   </g>
   <g id="line2d_35">
    <path d="M 258.579878 223.56 
L 243.042788 218.252132 
L 229.254533 219.000917 
L 232.892788 213.108881 
L 224.865081 217.192914 
L 223.344439 216.173939 
L 221.618064 215.539775 
L 219.7875 214.835787 
L 217.977531 215.630006 
L 216.226274 216.165038 
L 214.615174 217.074109 
L 213.286443 218.37558 
L 212.463442 220.03292 
L 211.824113 221.742409 
L 211.587471 223.56 
L 211.73129 225.398777 
L 212.442469 227.09718 
L 213.429263 228.630524 
L 214.647677 230.005134 
L 216.236045 230.934673 
L 217.942677 231.642698 
L 219.7875 231.786117 
L 221.615253 231.56791 
L 223.3469 230.951171 
L 224.916783 229.991917 
L 226.238763 228.70471 
L 227.192505 227.126063 
L 227.927198 225.417833 
" clip-path="url(#p876078f18a)" style="fill: none; stroke: #ff0000; stroke-width: 1.5; stroke-linecap: square"/>
   </g>
   <g id="line2d_36">
    <path d="M 390.498409 223.56 
L 349.761479 193.894287 
L 291.614217 188.970076 
L 296.139075 162.671651 
L 239.238187 199.16961 
L 224.5371 213.697353 
L 228.023627 187.475172 
L 219.7875 139.16492 
L 217.968311 215.589613 
L 216.096391 215.895333 
L 210.295737 211.657705 
L 198.384048 206.491317 
L 192.919729 210.621163 
L 194.711078 217.83647 
L 204.238186 223.56 
L 190.570987 230.228478 
L 212.037602 227.292154 
L 180.492317 254.896863 
L 210.931475 234.665104 
L 208.061003 247.910322 
L 214.905619 244.948918 
L 219.7875 232.154834 
L 223.046648 237.83926 
L 223.416468 231.09563 
L 231.664531 238.453326 
L 240.50247 240.079638 
L 233.596227 230.209932 
L 231.217705 226.16887 
" clip-path="url(#p876078f18a)" style="fill: none; stroke: #0000ff; stroke-width: 1.5; stroke-linecap: square"/>
   </g>
   <g id="patch_5">
    <path d="M 398.6275 223.56 
C 398.6275 200.074946 394.001457 176.818255 385.014116 155.120895 
C 376.026775 133.423535 362.852917 113.707464 346.246477 97.101023 
C 329.640036 80.494583 309.923965 67.320725 288.226605 58.333384 
C 266.529245 49.346043 243.272554 44.72 219.7875 44.72 
C 196.302446 44.72 173.045755 49.346043 151.348395 58.333384 
C 129.651035 67.320725 109.934964 80.494583 93.328523 97.101023 
C 76.722083 113.707464 63.548225 133.423535 54.560884 155.120895 
C 45.573543 176.818255 40.9475 200.074946 40.9475 223.56 
C 40.9475 247.045054 45.573543 270.301745 54.560884 291.999105 
C 63.548225 313.696465 76.722083 333.412536 93.328523 350.018977 
C 109.934964 366.625417 129.651035 379.799275 151.348395 388.786616 
C 173.045755 397.773957 196.302446 402.4 219.7875 402.4 
C 243.272554 402.4 266.529245 397.773957 288.226605 388.786616 
C 309.923965 379.799275 329.640036 366.625417 346.246477 350.018977 
C 362.852917 333.412536 376.026775 313.696465 385.014116 291.999105 
C 394.001457 270.301745 398.6275 247.045054 398.6275 223.56 
" style="fill: none; stroke: #000000; stroke-width: 0.8; stroke-linejoin: miter; stroke-linecap: square"/>
   </g>
   <g id="text_35">
    <!-- FB -->
    <g transform="translate(212.22 19.880938)scale(0.12 -0.12)">
     <use xlink:href="#DejaVuSans-46"/>
     <use xlink:href="#DejaVuSans-42" x="57.519531"/>
    </g>
   </g>
  </g>
 </g>
 <defs>
  <clipPath id="p876078f18a">
   <path d="M 398.6275 223.56 
C 398.6275 200.074946 394.001457 176.818255 385.014116 155.120895 
C 376.026775 133.423535 362.852917 113.707464 346.246477 97.101023 
C 329.640036 80.494583 309.923965 67.320725 288.226605 58.333384 
C 266.529245 49.346043 243.272554 44.72 219.7875 44.72 
C 196.302446 44.72 173.045755 49.346043 151.348395 58.333384 
C 129.651035 67.320725 109.934964 80.494583 93.328523 97.101023 
C 76.722083 113.707464 63.548225 133.423535 54.560884 155.120895 
C 45.573543 176.818255 40.9475 200.074946 40.9475 223.56 
C 40.9475 247.045054 45.573543 270.301745 54.560884 291.999105 
C 63.548225 313.696465 76.722083 333.412536 93.328523 350.018977 
C 109.934964 366.625417 129.651035 379.799275 151.348395 388.786616 
C 173.045755 397.773957 196.302446 402.4 219.7875 402.4 
C 243.272554 402.4 266.529245 397.773957 288.226605 388.786616 
C 309.923965 379.799275 329.640036 366.625417 346.246477 350.018977 
C 362.852917 333.412536 376.026775 313.696465 385.014116 291.999105 
C 394.001457 270.301745 398.6275 247.045054 398.6275 223.56 
M 219.7875 223.56 
C 219.7875 223.56 219.7875 223.56 219.7875 223.56 
C 219.7875 223.56 219.7875 223.56 219.7875 223.56 
C 219.7875 223.56 219.7875 223.56 219.7875 223.56 
C 219.7875 223.56 219.7875 223.56 219.7875 223.56 
C 219.7875 223.56 219.7875 223.56 219.7875 223.56 
C 219.7875 223.56 219.7875 223.56 219.7875 223.56 
C 219.7875 223.56 219.7875 223.56 219.7875 223.56 
C 219.7875 223.56 219.7875 223.56 219.7875 223.56 
C 219.7875 223.56 219.7875 223.56 219.7875 223.56 
C 219.7875 223.56 219.7875 223.56 219.7875 223.56 
C 219.7875 223.56 219.7875 223.56 219.7875 223.56 
C 219.7875 223.56 219.7875 223.56 219.7875 223.56 
C 219.7875 223.56 219.7875 223.56 219.7875 223.56 
C 219.7875 223.56 219.7875 223.56 219.7875 223.56 
C 219.7875 223.56 219.7875 223.56 219.7875 223.56 
C 219.7875 223.56 219.7875 223.56 219.7875 223.56 
M 398.6275 223.56 
z
"/>
  </clipPath>
 </defs>
</svg>
