<?xml version="1.0" encoding="utf-8" standalone="no"?>
<!DOCTYPE svg PUBLIC "-//W3C//DTD SVG 1.1//EN"
  "http://www.w3.org/Graphics/SVG/1.1/DTD/svg11.dtd">
<svg xmlns:xlink="http://www.w3.org/1999/xlink" width="432pt" height="432pt" viewBox="0 0 432 432" xmlns="http://www.w3.org/2000/svg" version="1.1">
 <metadata>
  <rdf:RDF xmlns:dc="http://purl.org/dc/elements/1.1/" xmlns:cc="http://creativecommons.org/ns#" xmlns:rdf="http://www.w3.org/1999/02/22-rdf-syntax-ns#">
   <cc:Work>
    <dc:type rdf:resource="http://purl.org/dc/dcmitype/StillImage"/>
    <dc:date>2023-05-30T13:17:43.444385</dc:date>
    <dc:format>image/svg+xml</dc:format>
    <dc:creator>
     <cc:Agent>
      <dc:title>Matplotlib v3.7.1, https://matplotlib.org/</dc:title>
     </cc:Agent>
    </dc:creator>
   </cc:Work>
  </rdf:RDF>
 </metadata>
 <defs>
  <style type="text/css">*{stroke-linejoin: round; stroke-linecap: butt}</style>
 </defs>
 <g id="figure_1">
  <g id="patch_1">
   <path d="M 0 432 
L 432 432 
L 432 0 
L 0 0 
z
" style="fill: #ffffff"/>
  </g>
  <g id="axes_1">
   <g id="patch_2">
    <path d="M 398.6275 223.56 
C 398.6275 200.074946 394.001457 176.818255 385.014116 155.120895 
C 376.026775 133.423535 362.852917 113.707464 346.246477 97.101023 
C 329.640036 80.494583 309.923965 67.320725 288.226605 58.333384 
C 266.529245 49.346043 243.272554 44.72 219.7875 44.72 
C 196.302446 44.72 173.045755 49.346043 151.348395 58.333384 
C 129.651035 67.320725 109.934964 80.494583 93.328523 97.101023 
C 76.722083 113.707464 63.548225 133.423535 54.560884 155.120895 
C 45.573543 176.818255 40.9475 200.074946 40.9475 223.56 
C 40.9475 247.045054 45.573543 270.301745 54.560884 291.999105 
C 63.548225 313.696465 76.722083 333.412536 93.328523 350.018977 
C 109.934964 366.625417 129.651035 379.799275 151.348395 388.786616 
C 173.045755 397.773957 196.302446 402.4 219.7875 402.4 
C 243.272554 402.4 266.529245 397.773957 288.226605 388.786616 
C 309.923965 379.799275 329.640036 366.625417 346.246477 350.018977 
C 362.852917 333.412536 376.026775 313.696465 385.014116 291.999105 
C 394.001457 270.301745 398.6275 247.045054 398.6275 223.56 
M 219.7875 223.56 
C 219.7875 223.56 219.7875 223.56 219.7875 223.56 
C 219.7875 223.56 219.7875 223.56 219.7875 223.56 
C 219.7875 223.56 219.7875 223.56 219.7875 223.56 
C 219.7875 223.56 219.7875 223.56 219.7875 223.56 
C 219.7875 223.56 219.7875 223.56 219.7875 223.56 
C 219.7875 223.56 219.7875 223.56 219.7875 223.56 
C 219.7875 223.56 219.7875 223.56 219.7875 223.56 
C 219.7875 223.56 219.7875 223.56 219.7875 223.56 
C 219.7875 223.56 219.7875 223.56 219.7875 223.56 
C 219.7875 223.56 219.7875 223.56 219.7875 223.56 
C 219.7875 223.56 219.7875 223.56 219.7875 223.56 
C 219.7875 223.56 219.7875 223.56 219.7875 223.56 
C 219.7875 223.56 219.7875 223.56 219.7875 223.56 
C 219.7875 223.56 219.7875 223.56 219.7875 223.56 
C 219.7875 223.56 219.7875 223.56 219.7875 223.56 
C 219.7875 223.56 219.7875 223.56 219.7875 223.56 
z
" style="fill: #ffffff"/>
   </g>
   <g id="patch_3">
    <path d="M 244.194892 223.56 
L 243.341671 218.183914 
L 230.648612 218.329564 
L 233.846328 212.348459 
L 224.937785 217.101747 
L 223.35816 216.145448 
L 221.62005 215.531072 
L 219.7875 214.294839 
L 217.959615 215.551511 
L 216.241336 216.196315 
L 214.714562 217.198737 
L 213.412646 218.476224 
L 212.422004 220.012964 
L 211.812615 221.739785 
L 211.611976 223.56 
L 211.766912 225.390647 
L 212.420284 227.107864 
L 213.413239 228.643303 
L 214.692986 229.948318 
L 216.239339 230.927831 
L 217.970761 231.519654 
L 219.7875 231.827074 
L 221.612388 231.555358 
L 223.316489 230.888022 
L 224.886322 229.953721 
L 226.143079 228.628405 
L 227.142586 227.102023 
L 227.753118 225.3781 
z
" clip-path="url(#ped4b20cb48)" style="fill: #ff0000; opacity: 0.1"/>
   </g>
   <g id="patch_4">
    <path d="M 290.392471 223.56 
L 339.828415 196.161444 
L 373.592715 149.491312 
L 340.125681 127.593503 
L 235.372558 204.016955 
L 228.821584 204.800531 
L 226.602414 193.701909 
L 219.7875 103.582035 
L 217.898665 215.284474 
L 215.261596 214.161865 
L 210.050445 211.35012 
L 178.752006 190.835286 
L 201.332138 214.672366 
L 196.927883 218.342442 
L 186.535536 223.56 
L 198.957715 228.314262 
L 209.705548 228.415212 
L 155.548463 274.788923 
L 210.420023 235.306444 
L 198.150702 268.489273 
L 210.186583 265.624366 
L 219.7875 234.556386 
L 222.97817 237.539239 
L 223.720575 231.727115 
L 237.513891 245.788191 
L 237.358828 237.572666 
L 233.56582 230.195289 
L 243.23993 228.912864 
z
" clip-path="url(#ped4b20cb48)" style="fill: #0000ff; opacity: 0.1"/>
   </g>
   <g id="matplotlib.axis_1">
    <g id="xtick_1">
     <g id="line2d_1">
      <path d="M 219.7875 223.56 
L 398.6275 223.56 
" clip-path="url(#ped4b20cb48)" style="fill: none; stroke: #b0b0b0; stroke-width: 0.8; stroke-linecap: square"/>
     </g>
     <g id="text_1">
      <!-- V2 -->
      <g transform="translate(406.025937 226.319375) scale(0.1 -0.1)">
       <defs>
        <path id="DejaVuSans-56" d="M 1831 0 
L 50 4666 
L 709 4666 
L 2188 738 
L 3669 4666 
L 4325 4666 
L 2547 0 
L 1831 0 
z
" transform="scale(0.015625)"/>
        <path id="DejaVuSans-32" d="M 1228 531 
L 3431 531 
L 3431 0 
L 469 0 
L 469 531 
Q 828 903 1448 1529 
Q 2069 2156 2228 2338 
Q 2531 2678 2651 2914 
Q 2772 3150 2772 3378 
Q 2772 3750 2511 3984 
Q 2250 4219 1831 4219 
Q 1534 4219 1204 4116 
Q 875 4013 500 3803 
L 500 4441 
Q 881 4594 1212 4672 
Q 1544 4750 1819 4750 
Q 2544 4750 2975 4387 
Q 3406 4025 3406 3419 
Q 3406 3131 3298 2873 
Q 3191 2616 2906 2266 
Q 2828 2175 2409 1742 
Q 1991 1309 1228 531 
z
" transform="scale(0.015625)"/>
       </defs>
       <use xlink:href="#DejaVuSans-56"/>
       <use xlink:href="#DejaVuSans-32" x="68.408203"/>
      </g>
     </g>
    </g>
    <g id="xtick_2">
     <g id="line2d_2">
      <path d="M 219.7875 223.56 
L 394.143608 183.764356 
" clip-path="url(#ped4b20cb48)" style="fill: none; stroke: #b0b0b0; stroke-width: 0.8; stroke-linecap: square"/>
     </g>
     <g id="text_2">
      <!-- V4 -->
      <g transform="translate(401.191036 183.408438) scale(0.1 -0.1)">
       <defs>
        <path id="DejaVuSans-34" d="M 2419 4116 
L 825 1625 
L 2419 1625 
L 2419 4116 
z
M 2253 4666 
L 3047 4666 
L 3047 1625 
L 3713 1625 
L 3713 1100 
L 3047 1100 
L 3047 0 
L 2419 0 
L 2419 1100 
L 313 1100 
L 313 1709 
L 2253 4666 
z
" transform="scale(0.015625)"/>
       </defs>
       <use xlink:href="#DejaVuSans-56"/>
       <use xlink:href="#DejaVuSans-34" x="68.408203"/>
      </g>
     </g>
    </g>
    <g id="xtick_3">
     <g id="line2d_3">
      <path d="M 219.7875 223.56 
L 380.916772 145.964232 
" clip-path="url(#ped4b20cb48)" style="fill: none; stroke: #b0b0b0; stroke-width: 0.8; stroke-linecap: square"/>
     </g>
     <g id="text_3">
      <!-- DP -->
      <g transform="translate(386.665493 142.649235) scale(0.1 -0.1)">
       <defs>
        <path id="DejaVuSans-44" d="M 1259 4147 
L 1259 519 
L 2022 519 
Q 2988 519 3436 956 
Q 3884 1394 3884 2338 
Q 3884 3275 3436 3711 
Q 2988 4147 2022 4147 
L 1259 4147 
z
M 628 4666 
L 1925 4666 
Q 3281 4666 3915 4102 
Q 4550 3538 4550 2338 
Q 4550 1131 3912 565 
Q 3275 0 1925 0 
L 628 0 
L 628 4666 
z
" transform="scale(0.015625)"/>
        <path id="DejaVuSans-50" d="M 1259 4147 
L 1259 2394 
L 2053 2394 
Q 2494 2394 2734 2622 
Q 2975 2850 2975 3272 
Q 2975 3691 2734 3919 
Q 2494 4147 2053 4147 
L 1259 4147 
z
M 628 4666 
L 2053 4666 
Q 2838 4666 3239 4311 
Q 3641 3956 3641 3272 
Q 3641 2581 3239 2228 
Q 2838 1875 2053 1875 
L 1259 1875 
L 1259 0 
L 628 0 
L 628 4666 
z
" transform="scale(0.015625)"/>
       </defs>
       <use xlink:href="#DejaVuSans-44"/>
       <use xlink:href="#DejaVuSans-50" x="77.001953"/>
      </g>
     </g>
    </g>
    <g id="xtick_4">
     <g id="line2d_4">
      <path d="M 219.7875 223.56 
L 359.610242 112.055084 
" clip-path="url(#ped4b20cb48)" style="fill: none; stroke: #b0b0b0; stroke-width: 0.8; stroke-linecap: square"/>
     </g>
     <g id="text_4">
      <!-- MT -->
      <g transform="translate(363.187914 106.085602) scale(0.1 -0.1)">
       <defs>
        <path id="DejaVuSans-4d" d="M 628 4666 
L 1569 4666 
L 2759 1491 
L 3956 4666 
L 4897 4666 
L 4897 0 
L 4281 0 
L 4281 4097 
L 3078 897 
L 2444 897 
L 1241 4097 
L 1241 0 
L 628 0 
L 628 4666 
z
" transform="scale(0.015625)"/>
        <path id="DejaVuSans-54" d="M -19 4666 
L 3928 4666 
L 3928 4134 
L 2272 4134 
L 2272 0 
L 1638 0 
L 1638 4134 
L -19 4134 
L -19 4666 
z
" transform="scale(0.015625)"/>
       </defs>
       <use xlink:href="#DejaVuSans-4d"/>
       <use xlink:href="#DejaVuSans-54" x="86.279297"/>
      </g>
     </g>
    </g>
    <g id="xtick_5">
     <g id="line2d_5">
      <path d="M 219.7875 223.56 
L 331.292416 83.737258 
" clip-path="url(#ped4b20cb48)" style="fill: none; stroke: #b0b0b0; stroke-width: 0.8; stroke-linecap: square"/>
     </g>
     <g id="text_5">
      <!-- 8m -->
      <g transform="translate(331.969711 75.550992) scale(0.1 -0.1)">
       <defs>
        <path id="DejaVuSans-38" d="M 2034 2216 
Q 1584 2216 1326 1975 
Q 1069 1734 1069 1313 
Q 1069 891 1326 650 
Q 1584 409 2034 409 
Q 2484 409 2743 651 
Q 3003 894 3003 1313 
Q 3003 1734 2745 1975 
Q 2488 2216 2034 2216 
z
M 1403 2484 
Q 997 2584 770 2862 
Q 544 3141 544 3541 
Q 544 4100 942 4425 
Q 1341 4750 2034 4750 
Q 2731 4750 3128 4425 
Q 3525 4100 3525 3541 
Q 3525 3141 3298 2862 
Q 3072 2584 2669 2484 
Q 3125 2378 3379 2068 
Q 3634 1759 3634 1313 
Q 3634 634 3220 271 
Q 2806 -91 2034 -91 
Q 1263 -91 848 271 
Q 434 634 434 1313 
Q 434 1759 690 2068 
Q 947 2378 1403 2484 
z
M 1172 3481 
Q 1172 3119 1398 2916 
Q 1625 2713 2034 2713 
Q 2441 2713 2670 2916 
Q 2900 3119 2900 3481 
Q 2900 3844 2670 4047 
Q 2441 4250 2034 4250 
Q 1625 4250 1398 4047 
Q 1172 3844 1172 3481 
z
" transform="scale(0.015625)"/>
        <path id="DejaVuSans-6d" d="M 3328 2828 
Q 3544 3216 3844 3400 
Q 4144 3584 4550 3584 
Q 5097 3584 5394 3201 
Q 5691 2819 5691 2113 
L 5691 0 
L 5113 0 
L 5113 2094 
Q 5113 2597 4934 2840 
Q 4756 3084 4391 3084 
Q 3944 3084 3684 2787 
Q 3425 2491 3425 1978 
L 3425 0 
L 2847 0 
L 2847 2094 
Q 2847 2600 2669 2842 
Q 2491 3084 2119 3084 
Q 1678 3084 1418 2786 
Q 1159 2488 1159 1978 
L 1159 0 
L 581 0 
L 581 3500 
L 1159 3500 
L 1159 2956 
Q 1356 3278 1631 3431 
Q 1906 3584 2284 3584 
Q 2666 3584 2933 3390 
Q 3200 3197 3328 2828 
z
" transform="scale(0.015625)"/>
       </defs>
       <use xlink:href="#DejaVuSans-38"/>
       <use xlink:href="#DejaVuSans-6d" x="63.623047"/>
      </g>
     </g>
    </g>
    <g id="xtick_6">
     <g id="line2d_6">
      <path d="M 219.7875 223.56 
L 297.383268 62.430728 
" clip-path="url(#ped4b20cb48)" style="fill: none; stroke: #b0b0b0; stroke-width: 0.8; stroke-linecap: square"/>
     </g>
     <g id="text_6">
      <!-- 5 -->
      <g transform="translate(300.27639 52.576539) scale(0.1 -0.1)">
       <defs>
        <path id="DejaVuSans-35" d="M 691 4666 
L 3169 4666 
L 3169 4134 
L 1269 4134 
L 1269 2991 
Q 1406 3038 1543 3061 
Q 1681 3084 1819 3084 
Q 2600 3084 3056 2656 
Q 3513 2228 3513 1497 
Q 3513 744 3044 326 
Q 2575 -91 1722 -91 
Q 1428 -91 1123 -41 
Q 819 9 494 109 
L 494 744 
Q 775 591 1075 516 
Q 1375 441 1709 441 
Q 2250 441 2565 725 
Q 2881 1009 2881 1497 
Q 2881 1984 2565 2268 
Q 2250 2553 1709 2553 
Q 1456 2553 1204 2497 
Q 953 2441 691 2322 
L 691 4666 
z
" transform="scale(0.015625)"/>
       </defs>
       <use xlink:href="#DejaVuSans-35"/>
      </g>
     </g>
    </g>
    <g id="xtick_7">
     <g id="line2d_7">
      <path d="M 219.7875 223.56 
L 259.583144 49.203892 
" clip-path="url(#ped4b20cb48)" style="fill: none; stroke: #b0b0b0; stroke-width: 0.8; stroke-linecap: square"/>
     </g>
     <g id="text_7">
      <!-- 8l -->
      <g transform="translate(258.128124 38.314276) scale(0.1 -0.1)">
       <defs>
        <path id="DejaVuSans-6c" d="M 603 4863 
L 1178 4863 
L 1178 0 
L 603 0 
L 603 4863 
z
" transform="scale(0.015625)"/>
       </defs>
       <use xlink:href="#DejaVuSans-38"/>
       <use xlink:href="#DejaVuSans-6c" x="63.623047"/>
      </g>
     </g>
    </g>
    <g id="xtick_8">
     <g id="line2d_8">
      <path d="M 219.7875 223.56 
L 219.7875 44.72 
" clip-path="url(#ped4b20cb48)" style="fill: none; stroke: #b0b0b0; stroke-width: 0.8; stroke-linecap: square"/>
     </g>
     <g id="text_8">
      <!-- TEO -->
      <g transform="translate(209.638281 33.479375) scale(0.1 -0.1)">
       <defs>
        <path id="DejaVuSans-45" d="M 628 4666 
L 3578 4666 
L 3578 4134 
L 1259 4134 
L 1259 2753 
L 3481 2753 
L 3481 2222 
L 1259 2222 
L 1259 531 
L 3634 531 
L 3634 0 
L 628 0 
L 628 4666 
z
" transform="scale(0.015625)"/>
        <path id="DejaVuSans-4f" d="M 2522 4238 
Q 1834 4238 1429 3725 
Q 1025 3213 1025 2328 
Q 1025 1447 1429 934 
Q 1834 422 2522 422 
Q 3209 422 3611 934 
Q 4013 1447 4013 2328 
Q 4013 3213 3611 3725 
Q 3209 4238 2522 4238 
z
M 2522 4750 
Q 3503 4750 4090 4092 
Q 4678 3434 4678 2328 
Q 4678 1225 4090 567 
Q 3503 -91 2522 -91 
Q 1538 -91 948 565 
Q 359 1222 359 2328 
Q 359 3434 948 4092 
Q 1538 4750 2522 4750 
z
" transform="scale(0.015625)"/>
       </defs>
       <use xlink:href="#DejaVuSans-54"/>
       <use xlink:href="#DejaVuSans-45" x="61.083984"/>
       <use xlink:href="#DejaVuSans-4f" x="124.267578"/>
      </g>
     </g>
    </g>
    <g id="xtick_9">
     <g id="line2d_9">
      <path d="M 219.7875 223.56 
L 179.991856 49.203892 
" clip-path="url(#ped4b20cb48)" style="fill: none; stroke: #b0b0b0; stroke-width: 0.8; stroke-linecap: square"/>
     </g>
     <g id="text_9">
      <!-- 2 -->
      <g transform="translate(173.695313 38.314276) scale(0.1 -0.1)">
       <use xlink:href="#DejaVuSans-32"/>
      </g>
     </g>
    </g>
    <g id="xtick_10">
     <g id="line2d_10">
      <path d="M 219.7875 223.56 
L 142.191732 62.430728 
" clip-path="url(#ped4b20cb48)" style="fill: none; stroke: #b0b0b0; stroke-width: 0.8; stroke-linecap: square"/>
     </g>
     <g id="text_10">
      <!-- F1 -->
      <g transform="translate(130.060328 52.576539) scale(0.1 -0.1)">
       <defs>
        <path id="DejaVuSans-46" d="M 628 4666 
L 3309 4666 
L 3309 4134 
L 1259 4134 
L 1259 2759 
L 3109 2759 
L 3109 2228 
L 1259 2228 
L 1259 0 
L 628 0 
L 628 4666 
z
" transform="scale(0.015625)"/>
        <path id="DejaVuSans-31" d="M 794 531 
L 1825 531 
L 1825 4091 
L 703 3866 
L 703 4441 
L 1819 4666 
L 2450 4666 
L 2450 531 
L 3481 531 
L 3481 0 
L 794 0 
L 794 531 
z
" transform="scale(0.015625)"/>
       </defs>
       <use xlink:href="#DejaVuSans-46"/>
       <use xlink:href="#DejaVuSans-31" x="57.519531"/>
      </g>
     </g>
    </g>
    <g id="xtick_11">
     <g id="line2d_11">
      <path d="M 219.7875 223.56 
L 108.282584 83.737258 
" clip-path="url(#ped4b20cb48)" style="fill: none; stroke: #b0b0b0; stroke-width: 0.8; stroke-linecap: square"/>
     </g>
     <g id="text_11">
      <!-- STPc -->
      <g transform="translate(87.561539 75.550992) scale(0.1 -0.1)">
       <defs>
        <path id="DejaVuSans-53" d="M 3425 4513 
L 3425 3897 
Q 3066 4069 2747 4153 
Q 2428 4238 2131 4238 
Q 1616 4238 1336 4038 
Q 1056 3838 1056 3469 
Q 1056 3159 1242 3001 
Q 1428 2844 1947 2747 
L 2328 2669 
Q 3034 2534 3370 2195 
Q 3706 1856 3706 1288 
Q 3706 609 3251 259 
Q 2797 -91 1919 -91 
Q 1588 -91 1214 -16 
Q 841 59 441 206 
L 441 856 
Q 825 641 1194 531 
Q 1563 422 1919 422 
Q 2459 422 2753 634 
Q 3047 847 3047 1241 
Q 3047 1584 2836 1778 
Q 2625 1972 2144 2069 
L 1759 2144 
Q 1053 2284 737 2584 
Q 422 2884 422 3419 
Q 422 4038 858 4394 
Q 1294 4750 2059 4750 
Q 2388 4750 2728 4690 
Q 3069 4631 3425 4513 
z
" transform="scale(0.015625)"/>
        <path id="DejaVuSans-63" d="M 3122 3366 
L 3122 2828 
Q 2878 2963 2633 3030 
Q 2388 3097 2138 3097 
Q 1578 3097 1268 2742 
Q 959 2388 959 1747 
Q 959 1106 1268 751 
Q 1578 397 2138 397 
Q 2388 397 2633 464 
Q 2878 531 3122 666 
L 3122 134 
Q 2881 22 2623 -34 
Q 2366 -91 2075 -91 
Q 1284 -91 818 406 
Q 353 903 353 1747 
Q 353 2603 823 3093 
Q 1294 3584 2113 3584 
Q 2378 3584 2631 3529 
Q 2884 3475 3122 3366 
z
" transform="scale(0.015625)"/>
       </defs>
       <use xlink:href="#DejaVuSans-53"/>
       <use xlink:href="#DejaVuSans-54" x="63.476562"/>
       <use xlink:href="#DejaVuSans-50" x="124.560547"/>
       <use xlink:href="#DejaVuSans-63" x="184.863281"/>
      </g>
     </g>
    </g>
    <g id="xtick_12">
     <g id="line2d_12">
      <path d="M 219.7875 223.56 
L 79.964758 112.055084 
" clip-path="url(#ped4b20cb48)" style="fill: none; stroke: #b0b0b0; stroke-width: 0.8; stroke-linecap: square"/>
     </g>
     <g id="text_12">
      <!-- 7A -->
      <g transform="translate(62.417554 106.085602) scale(0.1 -0.1)">
       <defs>
        <path id="DejaVuSans-37" d="M 525 4666 
L 3525 4666 
L 3525 4397 
L 1831 0 
L 1172 0 
L 2766 4134 
L 525 4134 
L 525 4666 
z
" transform="scale(0.015625)"/>
        <path id="DejaVuSans-41" d="M 2188 4044 
L 1331 1722 
L 3047 1722 
L 2188 4044 
z
M 1831 4666 
L 2547 4666 
L 4325 0 
L 3669 0 
L 3244 1197 
L 1141 1197 
L 716 0 
L 50 0 
L 1831 4666 
z
" transform="scale(0.015625)"/>
       </defs>
       <use xlink:href="#DejaVuSans-37"/>
       <use xlink:href="#DejaVuSans-41" x="63.623047"/>
      </g>
     </g>
    </g>
    <g id="xtick_13">
     <g id="line2d_13">
      <path d="M 219.7875 223.56 
L 58.658228 145.964232 
" clip-path="url(#ped4b20cb48)" style="fill: none; stroke: #b0b0b0; stroke-width: 0.8; stroke-linecap: square"/>
     </g>
     <g id="text_13">
      <!-- 46d -->
      <g transform="translate(36.507945 142.649235) scale(0.1 -0.1)">
       <defs>
        <path id="DejaVuSans-36" d="M 2113 2584 
Q 1688 2584 1439 2293 
Q 1191 2003 1191 1497 
Q 1191 994 1439 701 
Q 1688 409 2113 409 
Q 2538 409 2786 701 
Q 3034 994 3034 1497 
Q 3034 2003 2786 2293 
Q 2538 2584 2113 2584 
z
M 3366 4563 
L 3366 3988 
Q 3128 4100 2886 4159 
Q 2644 4219 2406 4219 
Q 1781 4219 1451 3797 
Q 1122 3375 1075 2522 
Q 1259 2794 1537 2939 
Q 1816 3084 2150 3084 
Q 2853 3084 3261 2657 
Q 3669 2231 3669 1497 
Q 3669 778 3244 343 
Q 2819 -91 2113 -91 
Q 1303 -91 875 529 
Q 447 1150 447 2328 
Q 447 3434 972 4092 
Q 1497 4750 2381 4750 
Q 2619 4750 2861 4703 
Q 3103 4656 3366 4563 
z
" transform="scale(0.015625)"/>
        <path id="DejaVuSans-64" d="M 2906 2969 
L 2906 4863 
L 3481 4863 
L 3481 0 
L 2906 0 
L 2906 525 
Q 2725 213 2448 61 
Q 2172 -91 1784 -91 
Q 1150 -91 751 415 
Q 353 922 353 1747 
Q 353 2572 751 3078 
Q 1150 3584 1784 3584 
Q 2172 3584 2448 3432 
Q 2725 3281 2906 2969 
z
M 947 1747 
Q 947 1113 1208 752 
Q 1469 391 1925 391 
Q 2381 391 2643 752 
Q 2906 1113 2906 1747 
Q 2906 2381 2643 2742 
Q 2381 3103 1925 3103 
Q 1469 3103 1208 2742 
Q 947 2381 947 1747 
z
" transform="scale(0.015625)"/>
       </defs>
       <use xlink:href="#DejaVuSans-34"/>
       <use xlink:href="#DejaVuSans-36" x="63.623047"/>
       <use xlink:href="#DejaVuSans-64" x="127.246094"/>
      </g>
     </g>
    </g>
    <g id="xtick_14">
     <g id="line2d_14">
      <path d="M 219.7875 223.56 
L 45.431392 183.764356 
" clip-path="url(#ped4b20cb48)" style="fill: none; stroke: #b0b0b0; stroke-width: 0.8; stroke-linecap: square"/>
     </g>
     <g id="text_14">
      <!-- 10 -->
      <g transform="translate(25.419901 183.408438) scale(0.1 -0.1)">
       <defs>
        <path id="DejaVuSans-30" d="M 2034 4250 
Q 1547 4250 1301 3770 
Q 1056 3291 1056 2328 
Q 1056 1369 1301 889 
Q 1547 409 2034 409 
Q 2525 409 2770 889 
Q 3016 1369 3016 2328 
Q 3016 3291 2770 3770 
Q 2525 4250 2034 4250 
z
M 2034 4750 
Q 2819 4750 3233 4129 
Q 3647 3509 3647 2328 
Q 3647 1150 3233 529 
Q 2819 -91 2034 -91 
Q 1250 -91 836 529 
Q 422 1150 422 2328 
Q 422 3509 836 4129 
Q 1250 4750 2034 4750 
z
" transform="scale(0.015625)"/>
       </defs>
       <use xlink:href="#DejaVuSans-31"/>
       <use xlink:href="#DejaVuSans-30" x="63.623047"/>
      </g>
     </g>
    </g>
    <g id="xtick_15">
     <g id="line2d_15">
      <path d="M 219.7875 223.56 
L 40.9475 223.56 
" clip-path="url(#ped4b20cb48)" style="fill: none; stroke: #b0b0b0; stroke-width: 0.8; stroke-linecap: square"/>
     </g>
     <g id="text_15">
      <!-- 9/46v -->
      <g transform="translate(12.76 226.319375) scale(0.1 -0.1)">
       <defs>
        <path id="DejaVuSans-39" d="M 703 97 
L 703 672 
Q 941 559 1184 500 
Q 1428 441 1663 441 
Q 2288 441 2617 861 
Q 2947 1281 2994 2138 
Q 2813 1869 2534 1725 
Q 2256 1581 1919 1581 
Q 1219 1581 811 2004 
Q 403 2428 403 3163 
Q 403 3881 828 4315 
Q 1253 4750 1959 4750 
Q 2769 4750 3195 4129 
Q 3622 3509 3622 2328 
Q 3622 1225 3098 567 
Q 2575 -91 1691 -91 
Q 1453 -91 1209 -44 
Q 966 3 703 97 
z
M 1959 2075 
Q 2384 2075 2632 2365 
Q 2881 2656 2881 3163 
Q 2881 3666 2632 3958 
Q 2384 4250 1959 4250 
Q 1534 4250 1286 3958 
Q 1038 3666 1038 3163 
Q 1038 2656 1286 2365 
Q 1534 2075 1959 2075 
z
" transform="scale(0.015625)"/>
        <path id="DejaVuSans-2f" d="M 1625 4666 
L 2156 4666 
L 531 -594 
L 0 -594 
L 1625 4666 
z
" transform="scale(0.015625)"/>
        <path id="DejaVuSans-76" d="M 191 3500 
L 800 3500 
L 1894 563 
L 2988 3500 
L 3597 3500 
L 2284 0 
L 1503 0 
L 191 3500 
z
" transform="scale(0.015625)"/>
       </defs>
       <use xlink:href="#DejaVuSans-39"/>
       <use xlink:href="#DejaVuSans-2f" x="63.623047"/>
       <use xlink:href="#DejaVuSans-34" x="97.314453"/>
       <use xlink:href="#DejaVuSans-36" x="160.9375"/>
       <use xlink:href="#DejaVuSans-76" x="224.560547"/>
      </g>
     </g>
    </g>
    <g id="xtick_16">
     <g id="line2d_16">
      <path d="M 219.7875 223.56 
L 45.431392 263.355644 
" clip-path="url(#ped4b20cb48)" style="fill: none; stroke: #b0b0b0; stroke-width: 0.8; stroke-linecap: square"/>
     </g>
     <g id="text_16">
      <!-- 9/46d -->
      <g transform="translate(17.380058 269.230312) scale(0.1 -0.1)">
       <use xlink:href="#DejaVuSans-39"/>
       <use xlink:href="#DejaVuSans-2f" x="63.623047"/>
       <use xlink:href="#DejaVuSans-34" x="97.314453"/>
       <use xlink:href="#DejaVuSans-36" x="160.9375"/>
       <use xlink:href="#DejaVuSans-64" x="224.560547"/>
      </g>
     </g>
    </g>
    <g id="xtick_17">
     <g id="line2d_17">
      <path d="M 219.7875 223.56 
L 58.658228 301.155768 
" clip-path="url(#ped4b20cb48)" style="fill: none; stroke: #b0b0b0; stroke-width: 0.8; stroke-linecap: square"/>
     </g>
     <g id="text_17">
      <!-- F5 -->
      <g transform="translate(39.987632 309.989515) scale(0.1 -0.1)">
       <use xlink:href="#DejaVuSans-46"/>
       <use xlink:href="#DejaVuSans-35" x="57.519531"/>
      </g>
     </g>
    </g>
    <g id="xtick_18">
     <g id="line2d_18">
      <path d="M 219.7875 223.56 
L 79.964758 335.064916 
" clip-path="url(#ped4b20cb48)" style="fill: none; stroke: #b0b0b0; stroke-width: 0.8; stroke-linecap: square"/>
     </g>
     <g id="text_18">
      <!-- TEpd -->
      <g transform="translate(56.457398 346.553148) scale(0.1 -0.1)">
       <defs>
        <path id="DejaVuSans-70" d="M 1159 525 
L 1159 -1331 
L 581 -1331 
L 581 3500 
L 1159 3500 
L 1159 2969 
Q 1341 3281 1617 3432 
Q 1894 3584 2278 3584 
Q 2916 3584 3314 3078 
Q 3713 2572 3713 1747 
Q 3713 922 3314 415 
Q 2916 -91 2278 -91 
Q 1894 -91 1617 61 
Q 1341 213 1159 525 
z
M 3116 1747 
Q 3116 2381 2855 2742 
Q 2594 3103 2138 3103 
Q 1681 3103 1420 2742 
Q 1159 2381 1159 1747 
Q 1159 1113 1420 752 
Q 1681 391 2138 391 
Q 2594 391 2855 752 
Q 3116 1113 3116 1747 
z
" transform="scale(0.015625)"/>
       </defs>
       <use xlink:href="#DejaVuSans-54"/>
       <use xlink:href="#DejaVuSans-45" x="61.083984"/>
       <use xlink:href="#DejaVuSans-70" x="124.267578"/>
       <use xlink:href="#DejaVuSans-64" x="187.744141"/>
      </g>
     </g>
    </g>
    <g id="xtick_19">
     <g id="line2d_19">
      <path d="M 219.7875 223.56 
L 108.282584 363.382742 
" clip-path="url(#ped4b20cb48)" style="fill: none; stroke: #b0b0b0; stroke-width: 0.8; stroke-linecap: square"/>
     </g>
     <g id="text_19">
      <!-- PBr -->
      <g transform="translate(91.052945 377.087758) scale(0.1 -0.1)">
       <defs>
        <path id="DejaVuSans-42" d="M 1259 2228 
L 1259 519 
L 2272 519 
Q 2781 519 3026 730 
Q 3272 941 3272 1375 
Q 3272 1813 3026 2020 
Q 2781 2228 2272 2228 
L 1259 2228 
z
M 1259 4147 
L 1259 2741 
L 2194 2741 
Q 2656 2741 2882 2914 
Q 3109 3088 3109 3444 
Q 3109 3797 2882 3972 
Q 2656 4147 2194 4147 
L 1259 4147 
z
M 628 4666 
L 2241 4666 
Q 2963 4666 3353 4366 
Q 3744 4066 3744 3513 
Q 3744 3084 3544 2831 
Q 3344 2578 2956 2516 
Q 3422 2416 3680 2098 
Q 3938 1781 3938 1306 
Q 3938 681 3513 340 
Q 3088 0 2303 0 
L 628 0 
L 628 4666 
z
" transform="scale(0.015625)"/>
        <path id="DejaVuSans-72" d="M 2631 2963 
Q 2534 3019 2420 3045 
Q 2306 3072 2169 3072 
Q 1681 3072 1420 2755 
Q 1159 2438 1159 1844 
L 1159 0 
L 581 0 
L 581 3500 
L 1159 3500 
L 1159 2956 
Q 1341 3275 1631 3429 
Q 1922 3584 2338 3584 
Q 2397 3584 2469 3576 
Q 2541 3569 2628 3553 
L 2631 2963 
z
" transform="scale(0.015625)"/>
       </defs>
       <use xlink:href="#DejaVuSans-50"/>
       <use xlink:href="#DejaVuSans-42" x="60.302734"/>
       <use xlink:href="#DejaVuSans-72" x="128.90625"/>
      </g>
     </g>
    </g>
    <g id="xtick_20">
     <g id="line2d_20">
      <path d="M 219.7875 223.56 
L 142.191732 384.689272 
" clip-path="url(#ped4b20cb48)" style="fill: none; stroke: #b0b0b0; stroke-width: 0.8; stroke-linecap: square"/>
     </g>
     <g id="text_20">
      <!-- 7m -->
      <g transform="translate(128.065797 400.062211) scale(0.1 -0.1)">
       <use xlink:href="#DejaVuSans-37"/>
       <use xlink:href="#DejaVuSans-6d" x="63.623047"/>
      </g>
     </g>
    </g>
    <g id="xtick_21">
     <g id="line2d_21">
      <path d="M 219.7875 223.56 
L 179.991856 397.916108 
" clip-path="url(#ped4b20cb48)" style="fill: none; stroke: #b0b0b0; stroke-width: 0.8; stroke-linecap: square"/>
     </g>
     <g id="text_21">
      <!-- 7B -->
      <g transform="translate(170.264844 414.324474) scale(0.1 -0.1)">
       <use xlink:href="#DejaVuSans-37"/>
       <use xlink:href="#DejaVuSans-42" x="63.623047"/>
      </g>
     </g>
    </g>
    <g id="xtick_22">
     <g id="line2d_22">
      <path d="M 219.7875 223.56 
L 219.7875 402.4 
" clip-path="url(#ped4b20cb48)" style="fill: none; stroke: #b0b0b0; stroke-width: 0.8; stroke-linecap: square"/>
     </g>
     <g id="text_22">
      <!-- F2 -->
      <g transform="translate(213.730469 419.159375) scale(0.1 -0.1)">
       <use xlink:href="#DejaVuSans-46"/>
       <use xlink:href="#DejaVuSans-32" x="57.519531"/>
      </g>
     </g>
    </g>
    <g id="xtick_23">
     <g id="line2d_23">
      <path d="M 219.7875 223.56 
L 259.583144 397.916108 
" clip-path="url(#ped4b20cb48)" style="fill: none; stroke: #b0b0b0; stroke-width: 0.8; stroke-linecap: square"/>
     </g>
     <g id="text_23">
      <!-- STPi -->
      <g transform="translate(252.178906 414.324474) scale(0.1 -0.1)">
       <defs>
        <path id="DejaVuSans-69" d="M 603 3500 
L 1178 3500 
L 1178 0 
L 603 0 
L 603 3500 
z
M 603 4863 
L 1178 4863 
L 1178 4134 
L 603 4134 
L 603 4863 
z
" transform="scale(0.015625)"/>
       </defs>
       <use xlink:href="#DejaVuSans-53"/>
       <use xlink:href="#DejaVuSans-54" x="63.476562"/>
       <use xlink:href="#DejaVuSans-50" x="124.560547"/>
       <use xlink:href="#DejaVuSans-69" x="182.613281"/>
      </g>
     </g>
    </g>
    <g id="xtick_24">
     <g id="line2d_24">
      <path d="M 219.7875 223.56 
L 297.383268 384.689272 
" clip-path="url(#ped4b20cb48)" style="fill: none; stroke: #b0b0b0; stroke-width: 0.8; stroke-linecap: square"/>
     </g>
     <g id="text_24">
      <!-- PROm -->
      <g transform="translate(288.162328 400.062211) scale(0.1 -0.1)">
       <defs>
        <path id="DejaVuSans-52" d="M 2841 2188 
Q 3044 2119 3236 1894 
Q 3428 1669 3622 1275 
L 4263 0 
L 3584 0 
L 2988 1197 
Q 2756 1666 2539 1819 
Q 2322 1972 1947 1972 
L 1259 1972 
L 1259 0 
L 628 0 
L 628 4666 
L 2053 4666 
Q 2853 4666 3247 4331 
Q 3641 3997 3641 3322 
Q 3641 2881 3436 2590 
Q 3231 2300 2841 2188 
z
M 1259 4147 
L 1259 2491 
L 2053 2491 
Q 2509 2491 2742 2702 
Q 2975 2913 2975 3322 
Q 2975 3731 2742 3939 
Q 2509 4147 2053 4147 
L 1259 4147 
z
" transform="scale(0.015625)"/>
       </defs>
       <use xlink:href="#DejaVuSans-50"/>
       <use xlink:href="#DejaVuSans-52" x="60.302734"/>
       <use xlink:href="#DejaVuSans-4f" x="129.785156"/>
       <use xlink:href="#DejaVuSans-6d" x="208.496094"/>
      </g>
     </g>
    </g>
    <g id="xtick_25">
     <g id="line2d_25">
      <path d="M 219.7875 223.56 
L 331.292416 363.382742 
" clip-path="url(#ped4b20cb48)" style="fill: none; stroke: #b0b0b0; stroke-width: 0.8; stroke-linecap: square"/>
     </g>
     <g id="text_25">
      <!-- F7 -->
      <g transform="translate(333.964242 377.087758) scale(0.1 -0.1)">
       <use xlink:href="#DejaVuSans-46"/>
       <use xlink:href="#DejaVuSans-37" x="57.519531"/>
      </g>
     </g>
    </g>
    <g id="xtick_26">
     <g id="line2d_26">
      <path d="M 219.7875 223.56 
L 359.610242 335.064916 
" clip-path="url(#ped4b20cb48)" style="fill: none; stroke: #b0b0b0; stroke-width: 0.8; stroke-linecap: square"/>
     </g>
     <g id="text_26">
      <!-- 8B -->
      <g transform="translate(363.944164 346.553148) scale(0.1 -0.1)">
       <use xlink:href="#DejaVuSans-38"/>
       <use xlink:href="#DejaVuSans-42" x="63.623047"/>
      </g>
     </g>
    </g>
    <g id="xtick_27">
     <g id="line2d_27">
      <path d="M 219.7875 223.56 
L 380.916772 301.155768 
" clip-path="url(#ped4b20cb48)" style="fill: none; stroke: #b0b0b0; stroke-width: 0.8; stroke-linecap: square"/>
     </g>
     <g id="text_27">
      <!-- STPr -->
      <g transform="translate(382.319399 309.989515) scale(0.1 -0.1)">
       <use xlink:href="#DejaVuSans-53"/>
       <use xlink:href="#DejaVuSans-54" x="63.476562"/>
       <use xlink:href="#DejaVuSans-50" x="124.560547"/>
       <use xlink:href="#DejaVuSans-72" x="183.113281"/>
      </g>
     </g>
    </g>
    <g id="xtick_28">
     <g id="line2d_28">
      <path d="M 219.7875 223.56 
L 394.143608 263.355644 
" clip-path="url(#ped4b20cb48)" style="fill: none; stroke: #b0b0b0; stroke-width: 0.8; stroke-linecap: square"/>
     </g>
     <g id="text_28">
      <!-- 24c -->
      <g transform="translate(398.68088 269.230312) scale(0.1 -0.1)">
       <use xlink:href="#DejaVuSans-32"/>
       <use xlink:href="#DejaVuSans-34" x="63.623047"/>
       <use xlink:href="#DejaVuSans-63" x="127.246094"/>
      </g>
     </g>
    </g>
   </g>
   <g id="matplotlib.axis_2">
    <g id="ytick_1">
     <g id="line2d_29">
      <path d="M 227.968206 223.56 
C 227.968206 222.48572 227.756596 221.421885 227.345487 220.429379 
C 226.934377 219.436874 226.331764 218.534998 225.572133 217.775367 
C 224.812502 217.015736 223.910626 216.413123 222.918121 216.002013 
C 221.925615 215.590904 220.86178 215.379294 219.7875 215.379294 
C 218.71322 215.379294 217.649385 215.590904 216.656879 216.002013 
C 215.664374 216.413123 214.762498 217.015736 214.002867 217.775367 
C 213.243236 218.534998 212.640623 219.436874 212.229513 220.429379 
C 211.818404 221.421885 211.606794 222.48572 211.606794 223.56 
C 211.606794 224.63428 211.818404 225.698115 212.229513 226.690621 
C 212.640623 227.683126 213.243236 228.585002 214.002867 229.344633 
C 214.762498 230.104264 215.664374 230.706877 216.656879 231.117987 
C 217.649385 231.529096 218.71322 231.740706 219.7875 231.740706 
C 220.86178 231.740706 221.925615 231.529096 222.918121 231.117987 
C 223.910626 230.706877 224.812502 230.104264 225.572133 229.344633 
C 226.331764 228.585002 226.934377 227.683126 227.345487 226.690621 
C 227.756596 225.698115 227.968206 224.63428 227.968206 223.56 
" clip-path="url(#ped4b20cb48)" style="fill: none; stroke: #b0b0b0; stroke-width: 0.8; stroke-linecap: square"/>
     </g>
     <g id="text_29">
      <!-- 0.00 -->
      <g transform="translate(227.345487 218.349692) scale(0.1 -0.1)">
       <defs>
        <path id="DejaVuSans-2e" d="M 684 794 
L 1344 794 
L 1344 0 
L 684 0 
L 684 794 
z
" transform="scale(0.015625)"/>
       </defs>
       <use xlink:href="#DejaVuSans-30"/>
       <use xlink:href="#DejaVuSans-2e" x="63.623047"/>
       <use xlink:href="#DejaVuSans-30" x="95.410156"/>
       <use xlink:href="#DejaVuSans-30" x="159.033203"/>
      </g>
     </g>
    </g>
    <g id="ytick_2">
     <g id="line2d_30">
      <path d="M 248.834833 223.56 
C 248.834833 219.745539 248.083467 215.968169 246.623736 212.444067 
C 245.164005 208.919965 243.024297 205.717665 240.327066 203.020434 
C 237.629835 200.323203 234.427535 198.183495 230.903433 196.723764 
C 227.379331 195.264033 223.601961 194.512667 219.7875 194.512667 
C 215.973039 194.512667 212.195669 195.264033 208.671567 196.723764 
C 205.147465 198.183495 201.945165 200.323203 199.247934 203.020434 
C 196.550703 205.717665 194.410995 208.919965 192.951264 212.444067 
C 191.491533 215.968169 190.740167 219.745539 190.740167 223.56 
C 190.740167 227.374461 191.491533 231.151831 192.951264 234.675933 
C 194.410995 238.200035 196.550703 241.402335 199.247934 244.099566 
C 201.945165 246.796797 205.147465 248.936505 208.671567 250.396236 
C 212.195669 251.855967 215.973039 252.607333 219.7875 252.607333 
C 223.601961 252.607333 227.379331 251.855967 230.903433 250.396236 
C 234.427535 248.936505 237.629835 246.796797 240.327066 244.099566 
C 243.024297 241.402335 245.164005 238.200035 246.623736 234.675933 
C 248.083467 231.151831 248.834833 227.374461 248.834833 223.56 
" clip-path="url(#ped4b20cb48)" style="fill: none; stroke: #b0b0b0; stroke-width: 0.8; stroke-linecap: square"/>
     </g>
     <g id="text_30">
      <!-- 0.01 -->
      <g transform="translate(246.623736 210.364379) scale(0.1 -0.1)">
       <use xlink:href="#DejaVuSans-30"/>
       <use xlink:href="#DejaVuSans-2e" x="63.623047"/>
       <use xlink:href="#DejaVuSans-30" x="95.410156"/>
       <use xlink:href="#DejaVuSans-31" x="159.033203"/>
      </g>
     </g>
    </g>
    <g id="ytick_3">
     <g id="line2d_31">
      <path d="M 269.70146 223.56 
C 269.70146 217.005359 268.410339 210.514453 265.901986 204.458754 
C 263.393634 198.403056 259.716831 192.900332 255.082 188.2655 
C 250.447168 183.630669 244.944444 179.953866 238.888746 177.445514 
C 232.833047 174.937161 226.342141 173.64604 219.7875 173.64604 
C 213.232859 173.64604 206.741953 174.937161 200.686254 177.445514 
C 194.630556 179.953866 189.127832 183.630669 184.493 188.2655 
C 179.858169 192.900332 176.181366 198.403056 173.673014 204.458754 
C 171.164661 210.514453 169.87354 217.005359 169.87354 223.56 
C 169.87354 230.114641 171.164661 236.605547 173.673014 242.661246 
C 176.181366 248.716944 179.858169 254.219668 184.493 258.8545 
C 189.127832 263.489331 194.630556 267.166134 200.686254 269.674486 
C 206.741953 272.182839 213.232859 273.47396 219.7875 273.47396 
C 226.342141 273.47396 232.833047 272.182839 238.888746 269.674486 
C 244.944444 267.166134 250.447168 263.489331 255.082 258.8545 
C 259.716831 254.219668 263.393634 248.716944 265.901986 242.661246 
C 268.410339 236.605547 269.70146 230.114641 269.70146 223.56 
" clip-path="url(#ped4b20cb48)" style="fill: none; stroke: #b0b0b0; stroke-width: 0.8; stroke-linecap: square"/>
     </g>
     <g id="text_31">
      <!-- 0.02 -->
      <g transform="translate(265.901986 202.379067) scale(0.1 -0.1)">
       <use xlink:href="#DejaVuSans-30"/>
       <use xlink:href="#DejaVuSans-2e" x="63.623047"/>
       <use xlink:href="#DejaVuSans-30" x="95.410156"/>
       <use xlink:href="#DejaVuSans-32" x="159.033203"/>
      </g>
     </g>
    </g>
    <g id="ytick_4">
     <g id="line2d_32">
      <path d="M 290.568087 223.56 
C 290.568087 214.265178 288.73721 205.060737 285.180236 196.473442 
C 281.623262 187.886147 276.409365 180.082998 269.836933 173.510567 
C 263.264502 166.938135 255.461353 161.724238 246.874058 158.167264 
C 238.286763 154.61029 229.082322 152.779413 219.7875 152.779413 
C 210.492678 152.779413 201.288237 154.61029 192.700942 158.167264 
C 184.113647 161.724238 176.310498 166.938135 169.738067 173.510567 
C 163.165635 180.082998 157.951738 187.886147 154.394764 196.473442 
C 150.83779 205.060737 149.006913 214.265178 149.006913 223.56 
C 149.006913 232.854822 150.83779 242.059263 154.394764 250.646558 
C 157.951738 259.233853 163.165635 267.037002 169.738067 273.609433 
C 176.310498 280.181865 184.113647 285.395762 192.700942 288.952736 
C 201.288237 292.50971 210.492678 294.340587 219.7875 294.340587 
C 229.082322 294.340587 238.286763 292.50971 246.874058 288.952736 
C 255.461353 285.395762 263.264502 280.181865 269.836933 273.609433 
C 276.409365 267.037002 281.623262 259.233853 285.180236 250.646558 
C 288.73721 242.059263 290.568087 232.854822 290.568087 223.56 
" clip-path="url(#ped4b20cb48)" style="fill: none; stroke: #b0b0b0; stroke-width: 0.8; stroke-linecap: square"/>
     </g>
     <g id="text_32">
      <!-- 0.03 -->
      <g transform="translate(285.180236 194.393754) scale(0.1 -0.1)">
       <defs>
        <path id="DejaVuSans-33" d="M 2597 2516 
Q 3050 2419 3304 2112 
Q 3559 1806 3559 1356 
Q 3559 666 3084 287 
Q 2609 -91 1734 -91 
Q 1441 -91 1130 -33 
Q 819 25 488 141 
L 488 750 
Q 750 597 1062 519 
Q 1375 441 1716 441 
Q 2309 441 2620 675 
Q 2931 909 2931 1356 
Q 2931 1769 2642 2001 
Q 2353 2234 1838 2234 
L 1294 2234 
L 1294 2753 
L 1863 2753 
Q 2328 2753 2575 2939 
Q 2822 3125 2822 3475 
Q 2822 3834 2567 4026 
Q 2313 4219 1838 4219 
Q 1578 4219 1281 4162 
Q 984 4106 628 3988 
L 628 4550 
Q 988 4650 1302 4700 
Q 1616 4750 1894 4750 
Q 2613 4750 3031 4423 
Q 3450 4097 3450 3541 
Q 3450 3153 3228 2886 
Q 3006 2619 2597 2516 
z
" transform="scale(0.015625)"/>
       </defs>
       <use xlink:href="#DejaVuSans-30"/>
       <use xlink:href="#DejaVuSans-2e" x="63.623047"/>
       <use xlink:href="#DejaVuSans-30" x="95.410156"/>
       <use xlink:href="#DejaVuSans-33" x="159.033203"/>
      </g>
     </g>
    </g>
    <g id="ytick_5">
     <g id="line2d_33">
      <path d="M 311.434714 223.56 
C 311.434714 211.524998 309.064081 199.607021 304.458486 188.488129 
C 299.85289 177.369237 293.101898 167.265665 284.591867 158.755633 
C 276.081835 150.245602 265.978263 143.49461 254.859371 138.889014 
C 243.740479 134.283419 231.822502 131.912786 219.7875 131.912786 
C 207.752498 131.912786 195.834521 134.283419 184.715629 138.889014 
C 173.596737 143.49461 163.493165 150.245602 154.983133 158.755633 
C 146.473102 167.265665 139.72211 177.369237 135.116514 188.488129 
C 130.510919 199.607021 128.140286 211.524998 128.140286 223.56 
C 128.140286 235.595002 130.510919 247.512979 135.116514 258.631871 
C 139.72211 269.750763 146.473102 279.854335 154.983133 288.364367 
C 163.493165 296.874398 173.596737 303.62539 184.715629 308.230986 
C 195.834521 312.836581 207.752498 315.207214 219.7875 315.207214 
C 231.822502 315.207214 243.740479 312.836581 254.859371 308.230986 
C 265.978263 303.62539 276.081835 296.874398 284.591867 288.364367 
C 293.101898 279.854335 299.85289 269.750763 304.458486 258.631871 
C 309.064081 247.512979 311.434714 235.595002 311.434714 223.56 
" clip-path="url(#ped4b20cb48)" style="fill: none; stroke: #b0b0b0; stroke-width: 0.8; stroke-linecap: square"/>
     </g>
     <g id="text_33">
      <!-- 0.04 -->
      <g transform="translate(304.458486 186.408442) scale(0.1 -0.1)">
       <use xlink:href="#DejaVuSans-30"/>
       <use xlink:href="#DejaVuSans-2e" x="63.623047"/>
       <use xlink:href="#DejaVuSans-30" x="95.410156"/>
       <use xlink:href="#DejaVuSans-34" x="159.033203"/>
      </g>
     </g>
    </g>
    <g id="ytick_6">
     <g id="line2d_34">
      <path d="M 332.301342 223.56 
C 332.301342 208.784818 329.390953 194.153305 323.736735 180.502817 
C 318.082518 166.852328 309.794432 154.448331 299.3468 144.0007 
C 288.899169 133.553068 276.495172 125.264982 262.844683 119.610765 
C 249.194195 113.956547 234.562682 111.046158 219.7875 111.046158 
C 205.012318 111.046158 190.380805 113.956547 176.730317 119.610765 
C 163.079828 125.264982 150.675831 133.553068 140.2282 144.0007 
C 129.780568 154.448331 121.492482 166.852328 115.838265 180.502817 
C 110.184047 194.153305 107.273658 208.784818 107.273658 223.56 
C 107.273658 238.335182 110.184047 252.966695 115.838265 266.617183 
C 121.492482 280.267672 129.780568 292.671669 140.2282 303.1193 
C 150.675831 313.566932 163.079828 321.855018 176.730317 327.509235 
C 190.380805 333.163453 205.012318 336.073842 219.7875 336.073842 
C 234.562682 336.073842 249.194195 333.163453 262.844683 327.509235 
C 276.495172 321.855018 288.899169 313.566932 299.3468 303.1193 
C 309.794432 292.671669 318.082518 280.267672 323.736735 266.617183 
C 329.390953 252.966695 332.301342 238.335182 332.301342 223.56 
" clip-path="url(#ped4b20cb48)" style="fill: none; stroke: #b0b0b0; stroke-width: 0.8; stroke-linecap: square"/>
     </g>
     <g id="text_34">
      <!-- 0.05 -->
      <g transform="translate(323.736735 178.423129) scale(0.1 -0.1)">
       <use xlink:href="#DejaVuSans-30"/>
       <use xlink:href="#DejaVuSans-2e" x="63.623047"/>
       <use xlink:href="#DejaVuSans-30" x="95.410156"/>
       <use xlink:href="#DejaVuSans-35" x="159.033203"/>
      </g>
     </g>
    </g>
    <g id="ytick_7">
     <g id="line2d_35">
      <path d="M 353.167969 223.56 
C 353.167969 206.044637 349.717824 188.699589 343.014985 172.517504 
C 336.312146 156.335419 326.486966 141.630998 314.101734 129.245766 
C 301.716502 116.860534 287.012081 107.035354 270.829996 100.332515 
C 254.647911 93.629676 237.302863 90.179531 219.7875 90.179531 
C 202.272137 90.179531 184.927089 93.629676 168.745004 100.332515 
C 152.562919 107.035354 137.858498 116.860534 125.473266 129.245766 
C 113.088034 141.630998 103.262854 156.335419 96.560015 172.517504 
C 89.857176 188.699589 86.407031 206.044637 86.407031 223.56 
C 86.407031 241.075363 89.857176 258.420411 96.560015 274.602496 
C 103.262854 290.784581 113.088034 305.489002 125.473266 317.874234 
C 137.858498 330.259466 152.562919 340.084646 168.745004 346.787485 
C 184.927089 353.490324 202.272137 356.940469 219.7875 356.940469 
C 237.302863 356.940469 254.647911 353.490324 270.829996 346.787485 
C 287.012081 340.084646 301.716502 330.259466 314.101734 317.874234 
C 326.486966 305.489002 336.312146 290.784581 343.014985 274.602496 
C 349.717824 258.420411 353.167969 241.075363 353.167969 223.56 
" clip-path="url(#ped4b20cb48)" style="fill: none; stroke: #b0b0b0; stroke-width: 0.8; stroke-linecap: square"/>
     </g>
     <g id="text_35">
      <!-- 0.06 -->
      <g transform="translate(343.014985 170.437817) scale(0.1 -0.1)">
       <use xlink:href="#DejaVuSans-30"/>
       <use xlink:href="#DejaVuSans-2e" x="63.623047"/>
       <use xlink:href="#DejaVuSans-30" x="95.410156"/>
       <use xlink:href="#DejaVuSans-36" x="159.033203"/>
      </g>
     </g>
    </g>
    <g id="ytick_8">
     <g id="line2d_36">
      <path d="M 374.034596 223.56 
C 374.034596 203.304457 370.044696 183.245874 362.293235 164.532192 
C 354.541774 145.81851 343.179499 128.813664 328.856668 114.490832 
C 314.533836 100.168001 297.52899 88.805726 278.815308 81.054265 
C 260.101626 73.302804 240.043043 69.312904 219.7875 69.312904 
C 199.531957 69.312904 179.473374 73.302804 160.759692 81.054265 
C 142.04601 88.805726 125.041164 100.168001 110.718332 114.490832 
C 96.395501 128.813664 85.033226 145.81851 77.281765 164.532192 
C 69.530304 183.245874 65.540404 203.304457 65.540404 223.56 
C 65.540404 243.815543 69.530304 263.874126 77.281765 282.587808 
C 85.033226 301.30149 96.395501 318.306336 110.718332 332.629168 
C 125.041164 346.951999 142.04601 358.314274 160.759692 366.065735 
C 179.473374 373.817196 199.531957 377.807096 219.7875 377.807096 
C 240.043043 377.807096 260.101626 373.817196 278.815308 366.065735 
C 297.52899 358.314274 314.533836 346.951999 328.856668 332.629168 
C 343.179499 318.306336 354.541774 301.30149 362.293235 282.587808 
C 370.044696 263.874126 374.034596 243.815543 374.034596 223.56 
" clip-path="url(#ped4b20cb48)" style="fill: none; stroke: #b0b0b0; stroke-width: 0.8; stroke-linecap: square"/>
     </g>
     <g id="text_36">
      <!-- 0.07 -->
      <g transform="translate(362.293235 162.452504) scale(0.1 -0.1)">
       <use xlink:href="#DejaVuSans-30"/>
       <use xlink:href="#DejaVuSans-2e" x="63.623047"/>
       <use xlink:href="#DejaVuSans-30" x="95.410156"/>
       <use xlink:href="#DejaVuSans-37" x="159.033203"/>
      </g>
     </g>
    </g>
    <g id="ytick_9">
     <g id="line2d_37">
      <path d="M 394.901223 223.56 
C 394.901223 200.564277 390.371567 177.792158 381.571485 156.546879 
C 372.771402 135.301601 359.872033 115.996331 343.611601 99.735899 
C 327.351169 83.475467 308.045899 70.576098 286.800621 61.776015 
C 265.555342 52.975933 242.783223 48.446277 219.7875 48.446277 
C 196.791777 48.446277 174.019658 52.975933 152.774379 61.776015 
C 131.529101 70.576098 112.223831 83.475467 95.963399 99.735899 
C 79.702967 115.996331 66.803598 135.301601 58.003515 156.546879 
C 49.203433 177.792158 44.673777 200.564277 44.673777 223.56 
C 44.673777 246.555723 49.203433 269.327842 58.003515 290.573121 
C 66.803598 311.818399 79.702967 331.123669 95.963399 347.384101 
C 112.223831 363.644533 131.529101 376.543902 152.774379 385.343985 
C 174.019658 394.144067 196.791777 398.673723 219.7875 398.673723 
C 242.783223 398.673723 265.555342 394.144067 286.800621 385.343985 
C 308.045899 376.543902 327.351169 363.644533 343.611601 347.384101 
C 359.872033 331.123669 372.771402 311.818399 381.571485 290.573121 
C 390.371567 269.327842 394.901223 246.555723 394.901223 223.56 
" clip-path="url(#ped4b20cb48)" style="fill: none; stroke: #b0b0b0; stroke-width: 0.8; stroke-linecap: square"/>
     </g>
     <g id="text_37">
      <!-- 0.08 -->
      <g transform="translate(381.571485 154.467192) scale(0.1 -0.1)">
       <use xlink:href="#DejaVuSans-30"/>
       <use xlink:href="#DejaVuSans-2e" x="63.623047"/>
       <use xlink:href="#DejaVuSans-30" x="95.410156"/>
       <use xlink:href="#DejaVuSans-38" x="159.033203"/>
      </g>
     </g>
    </g>
   </g>
   <g id="line2d_38">
    <path d="M 244.194892 223.56 
L 243.341671 218.183914 
L 230.648612 218.329564 
L 233.846328 212.348459 
L 224.937785 217.101747 
L 223.35816 216.145448 
L 221.62005 215.531072 
L 219.7875 214.294839 
L 217.959615 215.551511 
L 216.241336 216.196315 
L 214.714562 217.198737 
L 213.412646 218.476224 
L 212.422004 220.012964 
L 211.812615 221.739785 
L 211.611976 223.56 
L 211.766912 225.390647 
L 212.420284 227.107864 
L 213.413239 228.643303 
L 214.692986 229.948318 
L 216.239339 230.927831 
L 217.970761 231.519654 
L 219.7875 231.827074 
L 221.612388 231.555358 
L 223.316489 230.888022 
L 224.886322 229.953721 
L 226.143079 228.628405 
L 227.142586 227.102023 
L 227.753118 225.3781 
" clip-path="url(#ped4b20cb48)" style="fill: none; stroke: #ff0000; stroke-width: 1.5; stroke-linecap: square"/>
   </g>
   <g id="line2d_39">
    <path d="M 290.392471 223.56 
L 339.828415 196.161444 
L 373.592715 149.491312 
L 340.125681 127.593503 
L 235.372558 204.016955 
L 228.821584 204.800531 
L 226.602414 193.701909 
L 219.7875 103.582035 
L 217.898665 215.284474 
L 215.261596 214.161865 
L 210.050445 211.35012 
L 178.752006 190.835286 
L 201.332138 214.672366 
L 196.927883 218.342442 
L 186.535536 223.56 
L 198.957715 228.314262 
L 209.705548 228.415212 
L 155.548463 274.788923 
L 210.420023 235.306444 
L 198.150702 268.489273 
L 210.186583 265.624366 
L 219.7875 234.556386 
L 222.97817 237.539239 
L 223.720575 231.727115 
L 237.513891 245.788191 
L 237.358828 237.572666 
L 233.56582 230.195289 
L 243.23993 228.912864 
" clip-path="url(#ped4b20cb48)" style="fill: none; stroke: #0000ff; stroke-width: 1.5; stroke-linecap: square"/>
   </g>
   <g id="patch_5">
    <path d="M 398.6275 223.56 
C 398.6275 200.074946 394.001457 176.818255 385.014116 155.120895 
C 376.026775 133.423535 362.852917 113.707464 346.246477 97.101023 
C 329.640036 80.494583 309.923965 67.320725 288.226605 58.333384 
C 266.529245 49.346043 243.272554 44.72 219.7875 44.72 
C 196.302446 44.72 173.045755 49.346043 151.348395 58.333384 
C 129.651035 67.320725 109.934964 80.494583 93.328523 97.101023 
C 76.722083 113.707464 63.548225 133.423535 54.560884 155.120895 
C 45.573543 176.818255 40.9475 200.074946 40.9475 223.56 
C 40.9475 247.045054 45.573543 270.301745 54.560884 291.999105 
C 63.548225 313.696465 76.722083 333.412536 93.328523 350.018977 
C 109.934964 366.625417 129.651035 379.799275 151.348395 388.786616 
C 173.045755 397.773957 196.302446 402.4 219.7875 402.4 
C 243.272554 402.4 266.529245 397.773957 288.226605 388.786616 
C 309.923965 379.799275 329.640036 366.625417 346.246477 350.018977 
C 362.852917 333.412536 376.026775 313.696465 385.014116 291.999105 
C 394.001457 270.301745 398.6275 247.045054 398.6275 223.56 
" style="fill: none; stroke: #000000; stroke-width: 0.8; stroke-linejoin: miter; stroke-linecap: square"/>
   </g>
   <g id="text_38">
    <!-- FF -->
    <g transform="translate(212.885625 19.880938) scale(0.12 -0.12)">
     <use xlink:href="#DejaVuSans-46"/>
     <use xlink:href="#DejaVuSans-46" x="57.519531"/>
    </g>
   </g>
  </g>
 </g>
 <defs>
  <clipPath id="ped4b20cb48">
   <path d="M 398.6275 223.56 
C 398.6275 200.074946 394.001457 176.818255 385.014116 155.120895 
C 376.026775 133.423535 362.852917 113.707464 346.246477 97.101023 
C 329.640036 80.494583 309.923965 67.320725 288.226605 58.333384 
C 266.529245 49.346043 243.272554 44.72 219.7875 44.72 
C 196.302446 44.72 173.045755 49.346043 151.348395 58.333384 
C 129.651035 67.320725 109.934964 80.494583 93.328523 97.101023 
C 76.722083 113.707464 63.548225 133.423535 54.560884 155.120895 
C 45.573543 176.818255 40.9475 200.074946 40.9475 223.56 
C 40.9475 247.045054 45.573543 270.301745 54.560884 291.999105 
C 63.548225 313.696465 76.722083 333.412536 93.328523 350.018977 
C 109.934964 366.625417 129.651035 379.799275 151.348395 388.786616 
C 173.045755 397.773957 196.302446 402.4 219.7875 402.4 
C 243.272554 402.4 266.529245 397.773957 288.226605 388.786616 
C 309.923965 379.799275 329.640036 366.625417 346.246477 350.018977 
C 362.852917 333.412536 376.026775 313.696465 385.014116 291.999105 
C 394.001457 270.301745 398.6275 247.045054 398.6275 223.56 
M 219.7875 223.56 
C 219.7875 223.56 219.7875 223.56 219.7875 223.56 
C 219.7875 223.56 219.7875 223.56 219.7875 223.56 
C 219.7875 223.56 219.7875 223.56 219.7875 223.56 
C 219.7875 223.56 219.7875 223.56 219.7875 223.56 
C 219.7875 223.56 219.7875 223.56 219.7875 223.56 
C 219.7875 223.56 219.7875 223.56 219.7875 223.56 
C 219.7875 223.56 219.7875 223.56 219.7875 223.56 
C 219.7875 223.56 219.7875 223.56 219.7875 223.56 
C 219.7875 223.56 219.7875 223.56 219.7875 223.56 
C 219.7875 223.56 219.7875 223.56 219.7875 223.56 
C 219.7875 223.56 219.7875 223.56 219.7875 223.56 
C 219.7875 223.56 219.7875 223.56 219.7875 223.56 
C 219.7875 223.56 219.7875 223.56 219.7875 223.56 
C 219.7875 223.56 219.7875 223.56 219.7875 223.56 
C 219.7875 223.56 219.7875 223.56 219.7875 223.56 
C 219.7875 223.56 219.7875 223.56 219.7875 223.56 
z
"/>
  </clipPath>
 </defs>
</svg>
