<?xml version="1.0" encoding="utf-8" standalone="no"?>
<!DOCTYPE svg PUBLIC "-//W3C//DTD SVG 1.1//EN"
  "http://www.w3.org/Graphics/SVG/1.1/DTD/svg11.dtd">
<svg xmlns:xlink="http://www.w3.org/1999/xlink" width="432pt" height="432pt" viewBox="0 0 432 432" xmlns="http://www.w3.org/2000/svg" version="1.1">
 <metadata>
  <rdf:RDF xmlns:dc="http://purl.org/dc/elements/1.1/" xmlns:cc="http://creativecommons.org/ns#" xmlns:rdf="http://www.w3.org/1999/02/22-rdf-syntax-ns#">
   <cc:Work>
    <dc:type rdf:resource="http://purl.org/dc/dcmitype/StillImage"/>
    <dc:date>2023-05-10T10:10:19.866174</dc:date>
    <dc:format>image/svg+xml</dc:format>
    <dc:creator>
     <cc:Agent>
      <dc:title>Matplotlib v3.7.1, https://matplotlib.org/</dc:title>
     </cc:Agent>
    </dc:creator>
   </cc:Work>
  </rdf:RDF>
 </metadata>
 <defs>
  <style type="text/css">*{stroke-linejoin: round; stroke-linecap: butt}</style>
 </defs>
 <g id="figure_1">
  <g id="patch_1">
   <path d="M 0 432 
L 432 432 
L 432 0 
L 0 0 
z
" style="fill: #ffffff"/>
  </g>
  <g id="axes_1">
   <g id="patch_2">
    <path d="M 398.3875 223.56 
C 398.3875 200.106463 393.767665 176.880982 384.792385 155.212739 
C 375.817104 133.544496 362.660926 113.854884 346.076771 97.270729 
C 329.492616 80.686574 309.803004 67.530396 288.134761 58.555115 
C 266.466518 49.579835 243.241037 44.96 219.7875 44.96 
C 196.333963 44.96 173.108482 49.579835 151.440239 58.555115 
C 129.771996 67.530396 110.082384 80.686574 93.498229 97.270729 
C 76.914074 113.854884 63.757896 133.544496 54.782615 155.212739 
C 45.807335 176.880982 41.1875 200.106463 41.1875 223.56 
C 41.1875 247.013537 45.807335 270.239018 54.782615 291.907261 
C 63.757896 313.575504 76.914074 333.265116 93.498229 349.849271 
C 110.082384 366.433426 129.771996 379.589604 151.440239 388.564885 
C 173.108482 397.540165 196.333963 402.16 219.7875 402.16 
C 243.241037 402.16 266.466518 397.540165 288.134761 388.564885 
C 309.803004 379.589604 329.492616 366.433426 346.076771 349.849271 
C 362.660926 333.265116 375.817104 313.575504 384.792385 291.907261 
C 393.767665 270.239018 398.3875 247.013537 398.3875 223.56 
M 219.7875 223.56 
C 219.7875 223.56 219.7875 223.56 219.7875 223.56 
C 219.7875 223.56 219.7875 223.56 219.7875 223.56 
C 219.7875 223.56 219.7875 223.56 219.7875 223.56 
C 219.7875 223.56 219.7875 223.56 219.7875 223.56 
C 219.7875 223.56 219.7875 223.56 219.7875 223.56 
C 219.7875 223.56 219.7875 223.56 219.7875 223.56 
C 219.7875 223.56 219.7875 223.56 219.7875 223.56 
C 219.7875 223.56 219.7875 223.56 219.7875 223.56 
C 219.7875 223.56 219.7875 223.56 219.7875 223.56 
C 219.7875 223.56 219.7875 223.56 219.7875 223.56 
C 219.7875 223.56 219.7875 223.56 219.7875 223.56 
C 219.7875 223.56 219.7875 223.56 219.7875 223.56 
C 219.7875 223.56 219.7875 223.56 219.7875 223.56 
C 219.7875 223.56 219.7875 223.56 219.7875 223.56 
C 219.7875 223.56 219.7875 223.56 219.7875 223.56 
C 219.7875 223.56 219.7875 223.56 219.7875 223.56 
z
" style="fill: #ffffff"/>
   </g>
   <g id="patch_3">
    <path d="M 243.229035 223.56 
L 242.61769 218.349158 
L 230.193386 218.548789 
L 233.758592 212.418426 
L 224.858688 217.200931 
L 223.335682 216.192125 
L 221.61022 215.574142 
L 219.7875 214.544271 
L 217.978527 215.634373 
L 216.258663 216.232294 
L 214.722324 217.208471 
L 213.375339 218.446472 
L 212.448694 220.025817 
L 211.854746 221.749401 
L 211.612534 223.56 
L 211.781595 225.387296 
L 212.453992 227.091632 
L 213.424085 228.634655 
L 214.690138 229.95189 
L 216.247992 230.909863 
L 217.981035 231.474642 
L 219.7875 231.748139 
L 221.603275 231.515428 
L 223.328321 230.91259 
L 224.862353 229.923665 
L 226.170311 228.650122 
L 227.170116 227.11528 
L 227.796407 225.387981 
z
" clip-path="url(#p8a01b5f8aa)" style="fill: #ff0000; opacity: 0.1"/>
   </g>
   <g id="patch_4">
    <path d="M 311.264639 223.56 
L 348.911902 194.088198 
L 373.386311 149.590711 
L 340.764221 127.084284 
L 235.373363 204.015946 
L 227.665366 207.201442 
L 226.651338 193.48756 
L 219.7875 105.159868 
L 217.928297 215.4143 
L 215.488365 214.632753 
L 210.675008 212.133296 
L 180.163085 191.960584 
L 202.154554 215.068421 
L 197.397494 218.449627 
L 189.028812 223.56 
L 199.917757 228.095139 
L 209.886776 228.327938 
L 157.508474 273.225866 
L 211.003212 234.575148 
L 198.650664 267.451092 
L 210.570037 263.944343 
L 219.7875 233.785686 
L 222.741483 236.502246 
L 223.590159 231.456303 
L 237.070205 245.231827 
L 237.268417 237.500566 
L 232.661657 229.759867 
L 241.728507 228.567892 
z
" clip-path="url(#p8a01b5f8aa)" style="fill: #0000ff; opacity: 0.1"/>
   </g>
   <g id="matplotlib.axis_1">
    <g id="xtick_1">
     <g id="line2d_1">
      <path d="M 219.7875 223.56 
L 398.3875 223.56 
" clip-path="url(#p8a01b5f8aa)" style="fill: none; stroke: #b0b0b0; stroke-width: 0.8; stroke-linecap: square"/>
     </g>
     <g id="text_1">
      <!-- V2 -->
      <g transform="translate(405.785937 226.319375) scale(0.1 -0.1)">
       <defs>
        <path id="DejaVuSans-56" d="M 1831 0 
L 50 4666 
L 709 4666 
L 2188 738 
L 3669 4666 
L 4325 4666 
L 2547 0 
L 1831 0 
z
" transform="scale(0.015625)"/>
        <path id="DejaVuSans-32" d="M 1228 531 
L 3431 531 
L 3431 0 
L 469 0 
L 469 531 
Q 828 903 1448 1529 
Q 2069 2156 2228 2338 
Q 2531 2678 2651 2914 
Q 2772 3150 2772 3378 
Q 2772 3750 2511 3984 
Q 2250 4219 1831 4219 
Q 1534 4219 1204 4116 
Q 875 4013 500 3803 
L 500 4441 
Q 881 4594 1212 4672 
Q 1544 4750 1819 4750 
Q 2544 4750 2975 4387 
Q 3406 4025 3406 3419 
Q 3406 3131 3298 2873 
Q 3191 2616 2906 2266 
Q 2828 2175 2409 1742 
Q 1991 1309 1228 531 
z
" transform="scale(0.015625)"/>
       </defs>
       <use xlink:href="#DejaVuSans-56"/>
       <use xlink:href="#DejaVuSans-32" x="68.408203"/>
      </g>
     </g>
    </g>
    <g id="xtick_2">
     <g id="line2d_2">
      <path d="M 219.7875 223.56 
L 393.909625 183.817761 
" clip-path="url(#p8a01b5f8aa)" style="fill: none; stroke: #b0b0b0; stroke-width: 0.8; stroke-linecap: square"/>
     </g>
     <g id="text_2">
      <!-- V4 -->
      <g transform="translate(400.957053 183.461843) scale(0.1 -0.1)">
       <defs>
        <path id="DejaVuSans-34" d="M 2419 4116 
L 825 1625 
L 2419 1625 
L 2419 4116 
z
M 2253 4666 
L 3047 4666 
L 3047 1625 
L 3713 1625 
L 3713 1100 
L 3047 1100 
L 3047 0 
L 2419 0 
L 2419 1100 
L 313 1100 
L 313 1709 
L 2253 4666 
z
" transform="scale(0.015625)"/>
       </defs>
       <use xlink:href="#DejaVuSans-56"/>
       <use xlink:href="#DejaVuSans-34" x="68.408203"/>
      </g>
     </g>
    </g>
    <g id="xtick_3">
     <g id="line2d_3">
      <path d="M 219.7875 223.56 
L 380.70054 146.068364 
" clip-path="url(#p8a01b5f8aa)" style="fill: none; stroke: #b0b0b0; stroke-width: 0.8; stroke-linecap: square"/>
     </g>
     <g id="text_3">
      <!-- DP -->
      <g transform="translate(386.44926 142.753367) scale(0.1 -0.1)">
       <defs>
        <path id="DejaVuSans-44" d="M 1259 4147 
L 1259 519 
L 2022 519 
Q 2988 519 3436 956 
Q 3884 1394 3884 2338 
Q 3884 3275 3436 3711 
Q 2988 4147 2022 4147 
L 1259 4147 
z
M 628 4666 
L 1925 4666 
Q 3281 4666 3915 4102 
Q 4550 3538 4550 2338 
Q 4550 1131 3912 565 
Q 3275 0 1925 0 
L 628 0 
L 628 4666 
z
" transform="scale(0.015625)"/>
        <path id="DejaVuSans-50" d="M 1259 4147 
L 1259 2394 
L 2053 2394 
Q 2494 2394 2734 2622 
Q 2975 2850 2975 3272 
Q 2975 3691 2734 3919 
Q 2494 4147 2053 4147 
L 1259 4147 
z
M 628 4666 
L 2053 4666 
Q 2838 4666 3239 4311 
Q 3641 3956 3641 3272 
Q 3641 2581 3239 2228 
Q 2838 1875 2053 1875 
L 1259 1875 
L 1259 0 
L 628 0 
L 628 4666 
z
" transform="scale(0.015625)"/>
       </defs>
       <use xlink:href="#DejaVuSans-44"/>
       <use xlink:href="#DejaVuSans-50" x="77.001953"/>
      </g>
     </g>
    </g>
    <g id="xtick_4">
     <g id="line2d_4">
      <path d="M 219.7875 223.56 
L 359.422603 112.204721 
" clip-path="url(#p8a01b5f8aa)" style="fill: none; stroke: #b0b0b0; stroke-width: 0.8; stroke-linecap: square"/>
     </g>
     <g id="text_4">
      <!-- MT -->
      <g transform="translate(363.000275 106.235239) scale(0.1 -0.1)">
       <defs>
        <path id="DejaVuSans-4d" d="M 628 4666 
L 1569 4666 
L 2759 1491 
L 3956 4666 
L 4897 4666 
L 4897 0 
L 4281 0 
L 4281 4097 
L 3078 897 
L 2444 897 
L 1241 4097 
L 1241 0 
L 628 0 
L 628 4666 
z
" transform="scale(0.015625)"/>
        <path id="DejaVuSans-54" d="M -19 4666 
L 3928 4666 
L 3928 4134 
L 2272 4134 
L 2272 0 
L 1638 0 
L 1638 4134 
L -19 4134 
L -19 4666 
z
" transform="scale(0.015625)"/>
       </defs>
       <use xlink:href="#DejaVuSans-4d"/>
       <use xlink:href="#DejaVuSans-54" x="86.279297"/>
      </g>
     </g>
    </g>
    <g id="xtick_5">
     <g id="line2d_5">
      <path d="M 219.7875 223.56 
L 331.142779 83.924897 
" clip-path="url(#p8a01b5f8aa)" style="fill: none; stroke: #b0b0b0; stroke-width: 0.8; stroke-linecap: square"/>
     </g>
     <g id="text_5">
      <!-- 8m -->
      <g transform="translate(331.820073 75.738631) scale(0.1 -0.1)">
       <defs>
        <path id="DejaVuSans-38" d="M 2034 2216 
Q 1584 2216 1326 1975 
Q 1069 1734 1069 1313 
Q 1069 891 1326 650 
Q 1584 409 2034 409 
Q 2484 409 2743 651 
Q 3003 894 3003 1313 
Q 3003 1734 2745 1975 
Q 2488 2216 2034 2216 
z
M 1403 2484 
Q 997 2584 770 2862 
Q 544 3141 544 3541 
Q 544 4100 942 4425 
Q 1341 4750 2034 4750 
Q 2731 4750 3128 4425 
Q 3525 4100 3525 3541 
Q 3525 3141 3298 2862 
Q 3072 2584 2669 2484 
Q 3125 2378 3379 2068 
Q 3634 1759 3634 1313 
Q 3634 634 3220 271 
Q 2806 -91 2034 -91 
Q 1263 -91 848 271 
Q 434 634 434 1313 
Q 434 1759 690 2068 
Q 947 2378 1403 2484 
z
M 1172 3481 
Q 1172 3119 1398 2916 
Q 1625 2713 2034 2713 
Q 2441 2713 2670 2916 
Q 2900 3119 2900 3481 
Q 2900 3844 2670 4047 
Q 2441 4250 2034 4250 
Q 1625 4250 1398 4047 
Q 1172 3844 1172 3481 
z
" transform="scale(0.015625)"/>
        <path id="DejaVuSans-6d" d="M 3328 2828 
Q 3544 3216 3844 3400 
Q 4144 3584 4550 3584 
Q 5097 3584 5394 3201 
Q 5691 2819 5691 2113 
L 5691 0 
L 5113 0 
L 5113 2094 
Q 5113 2597 4934 2840 
Q 4756 3084 4391 3084 
Q 3944 3084 3684 2787 
Q 3425 2491 3425 1978 
L 3425 0 
L 2847 0 
L 2847 2094 
Q 2847 2600 2669 2842 
Q 2491 3084 2119 3084 
Q 1678 3084 1418 2786 
Q 1159 2488 1159 1978 
L 1159 0 
L 581 0 
L 581 3500 
L 1159 3500 
L 1159 2956 
Q 1356 3278 1631 3431 
Q 1906 3584 2284 3584 
Q 2666 3584 2933 3390 
Q 3200 3197 3328 2828 
z
" transform="scale(0.015625)"/>
       </defs>
       <use xlink:href="#DejaVuSans-38"/>
       <use xlink:href="#DejaVuSans-6d" x="63.623047"/>
      </g>
     </g>
    </g>
    <g id="xtick_6">
     <g id="line2d_6">
      <path d="M 219.7875 223.56 
L 297.279136 62.64696 
" clip-path="url(#p8a01b5f8aa)" style="fill: none; stroke: #b0b0b0; stroke-width: 0.8; stroke-linecap: square"/>
     </g>
     <g id="text_6">
      <!-- 5 -->
      <g transform="translate(300.172258 52.792771) scale(0.1 -0.1)">
       <defs>
        <path id="DejaVuSans-35" d="M 691 4666 
L 3169 4666 
L 3169 4134 
L 1269 4134 
L 1269 2991 
Q 1406 3038 1543 3061 
Q 1681 3084 1819 3084 
Q 2600 3084 3056 2656 
Q 3513 2228 3513 1497 
Q 3513 744 3044 326 
Q 2575 -91 1722 -91 
Q 1428 -91 1123 -41 
Q 819 9 494 109 
L 494 744 
Q 775 591 1075 516 
Q 1375 441 1709 441 
Q 2250 441 2565 725 
Q 2881 1009 2881 1497 
Q 2881 1984 2565 2268 
Q 2250 2553 1709 2553 
Q 1456 2553 1204 2497 
Q 953 2441 691 2322 
L 691 4666 
z
" transform="scale(0.015625)"/>
       </defs>
       <use xlink:href="#DejaVuSans-35"/>
      </g>
     </g>
    </g>
    <g id="xtick_7">
     <g id="line2d_7">
      <path d="M 219.7875 223.56 
L 259.529739 49.437875 
" clip-path="url(#p8a01b5f8aa)" style="fill: none; stroke: #b0b0b0; stroke-width: 0.8; stroke-linecap: square"/>
     </g>
     <g id="text_7">
      <!-- 8l -->
      <g transform="translate(258.074719 38.548259) scale(0.1 -0.1)">
       <defs>
        <path id="DejaVuSans-6c" d="M 603 4863 
L 1178 4863 
L 1178 0 
L 603 0 
L 603 4863 
z
" transform="scale(0.015625)"/>
       </defs>
       <use xlink:href="#DejaVuSans-38"/>
       <use xlink:href="#DejaVuSans-6c" x="63.623047"/>
      </g>
     </g>
    </g>
    <g id="xtick_8">
     <g id="line2d_8">
      <path d="M 219.7875 223.56 
L 219.7875 44.96 
" clip-path="url(#p8a01b5f8aa)" style="fill: none; stroke: #b0b0b0; stroke-width: 0.8; stroke-linecap: square"/>
     </g>
     <g id="text_8">
      <!-- TEO -->
      <g transform="translate(209.638281 33.719375) scale(0.1 -0.1)">
       <defs>
        <path id="DejaVuSans-45" d="M 628 4666 
L 3578 4666 
L 3578 4134 
L 1259 4134 
L 1259 2753 
L 3481 2753 
L 3481 2222 
L 1259 2222 
L 1259 531 
L 3634 531 
L 3634 0 
L 628 0 
L 628 4666 
z
" transform="scale(0.015625)"/>
        <path id="DejaVuSans-4f" d="M 2522 4238 
Q 1834 4238 1429 3725 
Q 1025 3213 1025 2328 
Q 1025 1447 1429 934 
Q 1834 422 2522 422 
Q 3209 422 3611 934 
Q 4013 1447 4013 2328 
Q 4013 3213 3611 3725 
Q 3209 4238 2522 4238 
z
M 2522 4750 
Q 3503 4750 4090 4092 
Q 4678 3434 4678 2328 
Q 4678 1225 4090 567 
Q 3503 -91 2522 -91 
Q 1538 -91 948 565 
Q 359 1222 359 2328 
Q 359 3434 948 4092 
Q 1538 4750 2522 4750 
z
" transform="scale(0.015625)"/>
       </defs>
       <use xlink:href="#DejaVuSans-54"/>
       <use xlink:href="#DejaVuSans-45" x="61.083984"/>
       <use xlink:href="#DejaVuSans-4f" x="124.267578"/>
      </g>
     </g>
    </g>
    <g id="xtick_9">
     <g id="line2d_9">
      <path d="M 219.7875 223.56 
L 180.045261 49.437875 
" clip-path="url(#p8a01b5f8aa)" style="fill: none; stroke: #b0b0b0; stroke-width: 0.8; stroke-linecap: square"/>
     </g>
     <g id="text_9">
      <!-- 2 -->
      <g transform="translate(173.748718 38.548259) scale(0.1 -0.1)">
       <use xlink:href="#DejaVuSans-32"/>
      </g>
     </g>
    </g>
    <g id="xtick_10">
     <g id="line2d_10">
      <path d="M 219.7875 223.56 
L 142.295864 62.64696 
" clip-path="url(#p8a01b5f8aa)" style="fill: none; stroke: #b0b0b0; stroke-width: 0.8; stroke-linecap: square"/>
     </g>
     <g id="text_10">
      <!-- F1 -->
      <g transform="translate(130.164461 52.792771) scale(0.1 -0.1)">
       <defs>
        <path id="DejaVuSans-46" d="M 628 4666 
L 3309 4666 
L 3309 4134 
L 1259 4134 
L 1259 2759 
L 3109 2759 
L 3109 2228 
L 1259 2228 
L 1259 0 
L 628 0 
L 628 4666 
z
" transform="scale(0.015625)"/>
        <path id="DejaVuSans-31" d="M 794 531 
L 1825 531 
L 1825 4091 
L 703 3866 
L 703 4441 
L 1819 4666 
L 2450 4666 
L 2450 531 
L 3481 531 
L 3481 0 
L 794 0 
L 794 531 
z
" transform="scale(0.015625)"/>
       </defs>
       <use xlink:href="#DejaVuSans-46"/>
       <use xlink:href="#DejaVuSans-31" x="57.519531"/>
      </g>
     </g>
    </g>
    <g id="xtick_11">
     <g id="line2d_11">
      <path d="M 219.7875 223.56 
L 108.432221 83.924897 
" clip-path="url(#p8a01b5f8aa)" style="fill: none; stroke: #b0b0b0; stroke-width: 0.8; stroke-linecap: square"/>
     </g>
     <g id="text_11">
      <!-- STPc -->
      <g transform="translate(87.711177 75.738631) scale(0.1 -0.1)">
       <defs>
        <path id="DejaVuSans-53" d="M 3425 4513 
L 3425 3897 
Q 3066 4069 2747 4153 
Q 2428 4238 2131 4238 
Q 1616 4238 1336 4038 
Q 1056 3838 1056 3469 
Q 1056 3159 1242 3001 
Q 1428 2844 1947 2747 
L 2328 2669 
Q 3034 2534 3370 2195 
Q 3706 1856 3706 1288 
Q 3706 609 3251 259 
Q 2797 -91 1919 -91 
Q 1588 -91 1214 -16 
Q 841 59 441 206 
L 441 856 
Q 825 641 1194 531 
Q 1563 422 1919 422 
Q 2459 422 2753 634 
Q 3047 847 3047 1241 
Q 3047 1584 2836 1778 
Q 2625 1972 2144 2069 
L 1759 2144 
Q 1053 2284 737 2584 
Q 422 2884 422 3419 
Q 422 4038 858 4394 
Q 1294 4750 2059 4750 
Q 2388 4750 2728 4690 
Q 3069 4631 3425 4513 
z
" transform="scale(0.015625)"/>
        <path id="DejaVuSans-63" d="M 3122 3366 
L 3122 2828 
Q 2878 2963 2633 3030 
Q 2388 3097 2138 3097 
Q 1578 3097 1268 2742 
Q 959 2388 959 1747 
Q 959 1106 1268 751 
Q 1578 397 2138 397 
Q 2388 397 2633 464 
Q 2878 531 3122 666 
L 3122 134 
Q 2881 22 2623 -34 
Q 2366 -91 2075 -91 
Q 1284 -91 818 406 
Q 353 903 353 1747 
Q 353 2603 823 3093 
Q 1294 3584 2113 3584 
Q 2378 3584 2631 3529 
Q 2884 3475 3122 3366 
z
" transform="scale(0.015625)"/>
       </defs>
       <use xlink:href="#DejaVuSans-53"/>
       <use xlink:href="#DejaVuSans-54" x="63.476562"/>
       <use xlink:href="#DejaVuSans-50" x="124.560547"/>
       <use xlink:href="#DejaVuSans-63" x="184.863281"/>
      </g>
     </g>
    </g>
    <g id="xtick_12">
     <g id="line2d_12">
      <path d="M 219.7875 223.56 
L 80.152397 112.204721 
" clip-path="url(#p8a01b5f8aa)" style="fill: none; stroke: #b0b0b0; stroke-width: 0.8; stroke-linecap: square"/>
     </g>
     <g id="text_12">
      <!-- 7A -->
      <g transform="translate(62.605194 106.235239) scale(0.1 -0.1)">
       <defs>
        <path id="DejaVuSans-37" d="M 525 4666 
L 3525 4666 
L 3525 4397 
L 1831 0 
L 1172 0 
L 2766 4134 
L 525 4134 
L 525 4666 
z
" transform="scale(0.015625)"/>
        <path id="DejaVuSans-41" d="M 2188 4044 
L 1331 1722 
L 3047 1722 
L 2188 4044 
z
M 1831 4666 
L 2547 4666 
L 4325 0 
L 3669 0 
L 3244 1197 
L 1141 1197 
L 716 0 
L 50 0 
L 1831 4666 
z
" transform="scale(0.015625)"/>
       </defs>
       <use xlink:href="#DejaVuSans-37"/>
       <use xlink:href="#DejaVuSans-41" x="63.623047"/>
      </g>
     </g>
    </g>
    <g id="xtick_13">
     <g id="line2d_13">
      <path d="M 219.7875 223.56 
L 58.87446 146.068364 
" clip-path="url(#p8a01b5f8aa)" style="fill: none; stroke: #b0b0b0; stroke-width: 0.8; stroke-linecap: square"/>
     </g>
     <g id="text_13">
      <!-- 46d -->
      <g transform="translate(36.724177 142.753367) scale(0.1 -0.1)">
       <defs>
        <path id="DejaVuSans-36" d="M 2113 2584 
Q 1688 2584 1439 2293 
Q 1191 2003 1191 1497 
Q 1191 994 1439 701 
Q 1688 409 2113 409 
Q 2538 409 2786 701 
Q 3034 994 3034 1497 
Q 3034 2003 2786 2293 
Q 2538 2584 2113 2584 
z
M 3366 4563 
L 3366 3988 
Q 3128 4100 2886 4159 
Q 2644 4219 2406 4219 
Q 1781 4219 1451 3797 
Q 1122 3375 1075 2522 
Q 1259 2794 1537 2939 
Q 1816 3084 2150 3084 
Q 2853 3084 3261 2657 
Q 3669 2231 3669 1497 
Q 3669 778 3244 343 
Q 2819 -91 2113 -91 
Q 1303 -91 875 529 
Q 447 1150 447 2328 
Q 447 3434 972 4092 
Q 1497 4750 2381 4750 
Q 2619 4750 2861 4703 
Q 3103 4656 3366 4563 
z
" transform="scale(0.015625)"/>
        <path id="DejaVuSans-64" d="M 2906 2969 
L 2906 4863 
L 3481 4863 
L 3481 0 
L 2906 0 
L 2906 525 
Q 2725 213 2448 61 
Q 2172 -91 1784 -91 
Q 1150 -91 751 415 
Q 353 922 353 1747 
Q 353 2572 751 3078 
Q 1150 3584 1784 3584 
Q 2172 3584 2448 3432 
Q 2725 3281 2906 2969 
z
M 947 1747 
Q 947 1113 1208 752 
Q 1469 391 1925 391 
Q 2381 391 2643 752 
Q 2906 1113 2906 1747 
Q 2906 2381 2643 2742 
Q 2381 3103 1925 3103 
Q 1469 3103 1208 2742 
Q 947 2381 947 1747 
z
" transform="scale(0.015625)"/>
       </defs>
       <use xlink:href="#DejaVuSans-34"/>
       <use xlink:href="#DejaVuSans-36" x="63.623047"/>
       <use xlink:href="#DejaVuSans-64" x="127.246094"/>
      </g>
     </g>
    </g>
    <g id="xtick_14">
     <g id="line2d_14">
      <path d="M 219.7875 223.56 
L 45.665375 183.817761 
" clip-path="url(#p8a01b5f8aa)" style="fill: none; stroke: #b0b0b0; stroke-width: 0.8; stroke-linecap: square"/>
     </g>
     <g id="text_14">
      <!-- 10 -->
      <g transform="translate(25.653884 183.461843) scale(0.1 -0.1)">
       <defs>
        <path id="DejaVuSans-30" d="M 2034 4250 
Q 1547 4250 1301 3770 
Q 1056 3291 1056 2328 
Q 1056 1369 1301 889 
Q 1547 409 2034 409 
Q 2525 409 2770 889 
Q 3016 1369 3016 2328 
Q 3016 3291 2770 3770 
Q 2525 4250 2034 4250 
z
M 2034 4750 
Q 2819 4750 3233 4129 
Q 3647 3509 3647 2328 
Q 3647 1150 3233 529 
Q 2819 -91 2034 -91 
Q 1250 -91 836 529 
Q 422 1150 422 2328 
Q 422 3509 836 4129 
Q 1250 4750 2034 4750 
z
" transform="scale(0.015625)"/>
       </defs>
       <use xlink:href="#DejaVuSans-31"/>
       <use xlink:href="#DejaVuSans-30" x="63.623047"/>
      </g>
     </g>
    </g>
    <g id="xtick_15">
     <g id="line2d_15">
      <path d="M 219.7875 223.56 
L 41.1875 223.56 
" clip-path="url(#p8a01b5f8aa)" style="fill: none; stroke: #b0b0b0; stroke-width: 0.8; stroke-linecap: square"/>
     </g>
     <g id="text_15">
      <!-- 9/46v -->
      <g transform="translate(13 226.319375) scale(0.1 -0.1)">
       <defs>
        <path id="DejaVuSans-39" d="M 703 97 
L 703 672 
Q 941 559 1184 500 
Q 1428 441 1663 441 
Q 2288 441 2617 861 
Q 2947 1281 2994 2138 
Q 2813 1869 2534 1725 
Q 2256 1581 1919 1581 
Q 1219 1581 811 2004 
Q 403 2428 403 3163 
Q 403 3881 828 4315 
Q 1253 4750 1959 4750 
Q 2769 4750 3195 4129 
Q 3622 3509 3622 2328 
Q 3622 1225 3098 567 
Q 2575 -91 1691 -91 
Q 1453 -91 1209 -44 
Q 966 3 703 97 
z
M 1959 2075 
Q 2384 2075 2632 2365 
Q 2881 2656 2881 3163 
Q 2881 3666 2632 3958 
Q 2384 4250 1959 4250 
Q 1534 4250 1286 3958 
Q 1038 3666 1038 3163 
Q 1038 2656 1286 2365 
Q 1534 2075 1959 2075 
z
" transform="scale(0.015625)"/>
        <path id="DejaVuSans-2f" d="M 1625 4666 
L 2156 4666 
L 531 -594 
L 0 -594 
L 1625 4666 
z
" transform="scale(0.015625)"/>
        <path id="DejaVuSans-76" d="M 191 3500 
L 800 3500 
L 1894 563 
L 2988 3500 
L 3597 3500 
L 2284 0 
L 1503 0 
L 191 3500 
z
" transform="scale(0.015625)"/>
       </defs>
       <use xlink:href="#DejaVuSans-39"/>
       <use xlink:href="#DejaVuSans-2f" x="63.623047"/>
       <use xlink:href="#DejaVuSans-34" x="97.314453"/>
       <use xlink:href="#DejaVuSans-36" x="160.9375"/>
       <use xlink:href="#DejaVuSans-76" x="224.560547"/>
      </g>
     </g>
    </g>
    <g id="xtick_16">
     <g id="line2d_16">
      <path d="M 219.7875 223.56 
L 45.665375 263.302239 
" clip-path="url(#p8a01b5f8aa)" style="fill: none; stroke: #b0b0b0; stroke-width: 0.8; stroke-linecap: square"/>
     </g>
     <g id="text_16">
      <!-- 9/46d -->
      <g transform="translate(17.61404 269.176907) scale(0.1 -0.1)">
       <use xlink:href="#DejaVuSans-39"/>
       <use xlink:href="#DejaVuSans-2f" x="63.623047"/>
       <use xlink:href="#DejaVuSans-34" x="97.314453"/>
       <use xlink:href="#DejaVuSans-36" x="160.9375"/>
       <use xlink:href="#DejaVuSans-64" x="224.560547"/>
      </g>
     </g>
    </g>
    <g id="xtick_17">
     <g id="line2d_17">
      <path d="M 219.7875 223.56 
L 58.87446 301.051636 
" clip-path="url(#p8a01b5f8aa)" style="fill: none; stroke: #b0b0b0; stroke-width: 0.8; stroke-linecap: square"/>
     </g>
     <g id="text_17">
      <!-- F5 -->
      <g transform="translate(40.203865 309.885383) scale(0.1 -0.1)">
       <use xlink:href="#DejaVuSans-46"/>
       <use xlink:href="#DejaVuSans-35" x="57.519531"/>
      </g>
     </g>
    </g>
    <g id="xtick_18">
     <g id="line2d_18">
      <path d="M 219.7875 223.56 
L 80.152397 334.915279 
" clip-path="url(#p8a01b5f8aa)" style="fill: none; stroke: #b0b0b0; stroke-width: 0.8; stroke-linecap: square"/>
     </g>
     <g id="text_18">
      <!-- TEpd -->
      <g transform="translate(56.645038 346.403511) scale(0.1 -0.1)">
       <defs>
        <path id="DejaVuSans-70" d="M 1159 525 
L 1159 -1331 
L 581 -1331 
L 581 3500 
L 1159 3500 
L 1159 2969 
Q 1341 3281 1617 3432 
Q 1894 3584 2278 3584 
Q 2916 3584 3314 3078 
Q 3713 2572 3713 1747 
Q 3713 922 3314 415 
Q 2916 -91 2278 -91 
Q 1894 -91 1617 61 
Q 1341 213 1159 525 
z
M 3116 1747 
Q 3116 2381 2855 2742 
Q 2594 3103 2138 3103 
Q 1681 3103 1420 2742 
Q 1159 2381 1159 1747 
Q 1159 1113 1420 752 
Q 1681 391 2138 391 
Q 2594 391 2855 752 
Q 3116 1113 3116 1747 
z
" transform="scale(0.015625)"/>
       </defs>
       <use xlink:href="#DejaVuSans-54"/>
       <use xlink:href="#DejaVuSans-45" x="61.083984"/>
       <use xlink:href="#DejaVuSans-70" x="124.267578"/>
       <use xlink:href="#DejaVuSans-64" x="187.744141"/>
      </g>
     </g>
    </g>
    <g id="xtick_19">
     <g id="line2d_19">
      <path d="M 219.7875 223.56 
L 108.432221 363.195103 
" clip-path="url(#p8a01b5f8aa)" style="fill: none; stroke: #b0b0b0; stroke-width: 0.8; stroke-linecap: square"/>
     </g>
     <g id="text_19">
      <!-- PBr -->
      <g transform="translate(91.202583 376.900119) scale(0.1 -0.1)">
       <defs>
        <path id="DejaVuSans-42" d="M 1259 2228 
L 1259 519 
L 2272 519 
Q 2781 519 3026 730 
Q 3272 941 3272 1375 
Q 3272 1813 3026 2020 
Q 2781 2228 2272 2228 
L 1259 2228 
z
M 1259 4147 
L 1259 2741 
L 2194 2741 
Q 2656 2741 2882 2914 
Q 3109 3088 3109 3444 
Q 3109 3797 2882 3972 
Q 2656 4147 2194 4147 
L 1259 4147 
z
M 628 4666 
L 2241 4666 
Q 2963 4666 3353 4366 
Q 3744 4066 3744 3513 
Q 3744 3084 3544 2831 
Q 3344 2578 2956 2516 
Q 3422 2416 3680 2098 
Q 3938 1781 3938 1306 
Q 3938 681 3513 340 
Q 3088 0 2303 0 
L 628 0 
L 628 4666 
z
" transform="scale(0.015625)"/>
        <path id="DejaVuSans-72" d="M 2631 2963 
Q 2534 3019 2420 3045 
Q 2306 3072 2169 3072 
Q 1681 3072 1420 2755 
Q 1159 2438 1159 1844 
L 1159 0 
L 581 0 
L 581 3500 
L 1159 3500 
L 1159 2956 
Q 1341 3275 1631 3429 
Q 1922 3584 2338 3584 
Q 2397 3584 2469 3576 
Q 2541 3569 2628 3553 
L 2631 2963 
z
" transform="scale(0.015625)"/>
       </defs>
       <use xlink:href="#DejaVuSans-50"/>
       <use xlink:href="#DejaVuSans-42" x="60.302734"/>
       <use xlink:href="#DejaVuSans-72" x="128.90625"/>
      </g>
     </g>
    </g>
    <g id="xtick_20">
     <g id="line2d_20">
      <path d="M 219.7875 223.56 
L 142.295864 384.47304 
" clip-path="url(#p8a01b5f8aa)" style="fill: none; stroke: #b0b0b0; stroke-width: 0.8; stroke-linecap: square"/>
     </g>
     <g id="text_20">
      <!-- 7m -->
      <g transform="translate(128.169929 399.845979) scale(0.1 -0.1)">
       <use xlink:href="#DejaVuSans-37"/>
       <use xlink:href="#DejaVuSans-6d" x="63.623047"/>
      </g>
     </g>
    </g>
    <g id="xtick_21">
     <g id="line2d_21">
      <path d="M 219.7875 223.56 
L 180.045261 397.682125 
" clip-path="url(#p8a01b5f8aa)" style="fill: none; stroke: #b0b0b0; stroke-width: 0.8; stroke-linecap: square"/>
     </g>
     <g id="text_21">
      <!-- 7B -->
      <g transform="translate(170.318249 414.090491) scale(0.1 -0.1)">
       <use xlink:href="#DejaVuSans-37"/>
       <use xlink:href="#DejaVuSans-42" x="63.623047"/>
      </g>
     </g>
    </g>
    <g id="xtick_22">
     <g id="line2d_22">
      <path d="M 219.7875 223.56 
L 219.7875 402.16 
" clip-path="url(#p8a01b5f8aa)" style="fill: none; stroke: #b0b0b0; stroke-width: 0.8; stroke-linecap: square"/>
     </g>
     <g id="text_22">
      <!-- F2 -->
      <g transform="translate(213.730469 418.919375) scale(0.1 -0.1)">
       <use xlink:href="#DejaVuSans-46"/>
       <use xlink:href="#DejaVuSans-32" x="57.519531"/>
      </g>
     </g>
    </g>
    <g id="xtick_23">
     <g id="line2d_23">
      <path d="M 219.7875 223.56 
L 259.529739 397.682125 
" clip-path="url(#p8a01b5f8aa)" style="fill: none; stroke: #b0b0b0; stroke-width: 0.8; stroke-linecap: square"/>
     </g>
     <g id="text_23">
      <!-- STPi -->
      <g transform="translate(252.125501 414.090491) scale(0.1 -0.1)">
       <defs>
        <path id="DejaVuSans-69" d="M 603 3500 
L 1178 3500 
L 1178 0 
L 603 0 
L 603 3500 
z
M 603 4863 
L 1178 4863 
L 1178 4134 
L 603 4134 
L 603 4863 
z
" transform="scale(0.015625)"/>
       </defs>
       <use xlink:href="#DejaVuSans-53"/>
       <use xlink:href="#DejaVuSans-54" x="63.476562"/>
       <use xlink:href="#DejaVuSans-50" x="124.560547"/>
       <use xlink:href="#DejaVuSans-69" x="182.613281"/>
      </g>
     </g>
    </g>
    <g id="xtick_24">
     <g id="line2d_24">
      <path d="M 219.7875 223.56 
L 297.279136 384.47304 
" clip-path="url(#p8a01b5f8aa)" style="fill: none; stroke: #b0b0b0; stroke-width: 0.8; stroke-linecap: square"/>
     </g>
     <g id="text_24">
      <!-- PROm -->
      <g transform="translate(288.058196 399.845979) scale(0.1 -0.1)">
       <defs>
        <path id="DejaVuSans-52" d="M 2841 2188 
Q 3044 2119 3236 1894 
Q 3428 1669 3622 1275 
L 4263 0 
L 3584 0 
L 2988 1197 
Q 2756 1666 2539 1819 
Q 2322 1972 1947 1972 
L 1259 1972 
L 1259 0 
L 628 0 
L 628 4666 
L 2053 4666 
Q 2853 4666 3247 4331 
Q 3641 3997 3641 3322 
Q 3641 2881 3436 2590 
Q 3231 2300 2841 2188 
z
M 1259 4147 
L 1259 2491 
L 2053 2491 
Q 2509 2491 2742 2702 
Q 2975 2913 2975 3322 
Q 2975 3731 2742 3939 
Q 2509 4147 2053 4147 
L 1259 4147 
z
" transform="scale(0.015625)"/>
       </defs>
       <use xlink:href="#DejaVuSans-50"/>
       <use xlink:href="#DejaVuSans-52" x="60.302734"/>
       <use xlink:href="#DejaVuSans-4f" x="129.785156"/>
       <use xlink:href="#DejaVuSans-6d" x="208.496094"/>
      </g>
     </g>
    </g>
    <g id="xtick_25">
     <g id="line2d_25">
      <path d="M 219.7875 223.56 
L 331.142779 363.195103 
" clip-path="url(#p8a01b5f8aa)" style="fill: none; stroke: #b0b0b0; stroke-width: 0.8; stroke-linecap: square"/>
     </g>
     <g id="text_25">
      <!-- F7 -->
      <g transform="translate(333.814605 376.900119) scale(0.1 -0.1)">
       <use xlink:href="#DejaVuSans-46"/>
       <use xlink:href="#DejaVuSans-37" x="57.519531"/>
      </g>
     </g>
    </g>
    <g id="xtick_26">
     <g id="line2d_26">
      <path d="M 219.7875 223.56 
L 359.422603 334.915279 
" clip-path="url(#p8a01b5f8aa)" style="fill: none; stroke: #b0b0b0; stroke-width: 0.8; stroke-linecap: square"/>
     </g>
     <g id="text_26">
      <!-- 8B -->
      <g transform="translate(363.756525 346.403511) scale(0.1 -0.1)">
       <use xlink:href="#DejaVuSans-38"/>
       <use xlink:href="#DejaVuSans-42" x="63.623047"/>
      </g>
     </g>
    </g>
    <g id="xtick_27">
     <g id="line2d_27">
      <path d="M 219.7875 223.56 
L 380.70054 301.051636 
" clip-path="url(#p8a01b5f8aa)" style="fill: none; stroke: #b0b0b0; stroke-width: 0.8; stroke-linecap: square"/>
     </g>
     <g id="text_27">
      <!-- STPr -->
      <g transform="translate(382.103166 309.885383) scale(0.1 -0.1)">
       <use xlink:href="#DejaVuSans-53"/>
       <use xlink:href="#DejaVuSans-54" x="63.476562"/>
       <use xlink:href="#DejaVuSans-50" x="124.560547"/>
       <use xlink:href="#DejaVuSans-72" x="183.113281"/>
      </g>
     </g>
    </g>
    <g id="xtick_28">
     <g id="line2d_28">
      <path d="M 219.7875 223.56 
L 393.909625 263.302239 
" clip-path="url(#p8a01b5f8aa)" style="fill: none; stroke: #b0b0b0; stroke-width: 0.8; stroke-linecap: square"/>
     </g>
     <g id="text_28">
      <!-- 24c -->
      <g transform="translate(398.446897 269.176907) scale(0.1 -0.1)">
       <use xlink:href="#DejaVuSans-32"/>
       <use xlink:href="#DejaVuSans-34" x="63.623047"/>
       <use xlink:href="#DejaVuSans-63" x="127.246094"/>
      </g>
     </g>
    </g>
   </g>
   <g id="matplotlib.axis_2">
    <g id="ytick_1">
     <g id="line2d_29">
      <path d="M 227.948631 223.56 
C 227.948631 222.48829 227.737528 221.427001 227.327402 220.43687 
C 226.917277 219.446739 226.316105 218.547022 225.558291 217.789209 
C 224.800478 217.031395 223.900761 216.430223 222.91063 216.020098 
C 221.920499 215.609972 220.85921 215.398869 219.7875 215.398869 
C 218.71579 215.398869 217.654501 215.609972 216.66437 216.020098 
C 215.674239 216.430223 214.774522 217.031395 214.016709 217.789209 
C 213.258895 218.547022 212.657723 219.446739 212.247598 220.43687 
C 211.837472 221.427001 211.626369 222.48829 211.626369 223.56 
C 211.626369 224.63171 211.837472 225.692999 212.247598 226.68313 
C 212.657723 227.673261 213.258895 228.572978 214.016709 229.330791 
C 214.774522 230.088605 215.674239 230.689777 216.66437 231.099902 
C 217.654501 231.510028 218.71579 231.721131 219.7875 231.721131 
C 220.85921 231.721131 221.920499 231.510028 222.91063 231.099902 
C 223.900761 230.689777 224.800478 230.088605 225.558291 229.330791 
C 226.316105 228.572978 226.917277 227.673261 227.327402 226.68313 
C 227.737528 225.692999 227.948631 224.63171 227.948631 223.56 
" clip-path="url(#p8a01b5f8aa)" style="fill: none; stroke: #b0b0b0; stroke-width: 0.8; stroke-linecap: square"/>
     </g>
     <g id="text_29">
      <!-- 0.00 -->
      <g transform="translate(227.327402 218.357183) scale(0.1 -0.1)">
       <defs>
        <path id="DejaVuSans-2e" d="M 684 794 
L 1344 794 
L 1344 0 
L 684 0 
L 684 794 
z
" transform="scale(0.015625)"/>
       </defs>
       <use xlink:href="#DejaVuSans-30"/>
       <use xlink:href="#DejaVuSans-2e" x="63.623047"/>
       <use xlink:href="#DejaVuSans-30" x="95.410156"/>
       <use xlink:href="#DejaVuSans-30" x="159.033203"/>
      </g>
     </g>
    </g>
    <g id="ytick_2">
     <g id="line2d_30">
      <path d="M 265.908067 223.56 
C 265.908067 217.503503 264.715069 211.505897 262.397348 205.910423 
C 260.079627 200.314949 256.682256 195.230425 252.399666 190.947834 
C 248.117075 186.665244 243.032551 183.267873 237.437077 180.950152 
C 231.841603 178.632431 225.843997 177.439433 219.7875 177.439433 
C 213.731003 177.439433 207.733397 178.632431 202.137923 180.950152 
C 196.542449 183.267873 191.457925 186.665244 187.175334 190.947834 
C 182.892744 195.230425 179.495373 200.314949 177.177652 205.910423 
C 174.859931 211.505897 173.666933 217.503503 173.666933 223.56 
C 173.666933 229.616497 174.859931 235.614103 177.177652 241.209577 
C 179.495373 246.805051 182.892744 251.889575 187.175334 256.172166 
C 191.457925 260.454756 196.542449 263.852127 202.137923 266.169848 
C 207.733397 268.487569 213.731003 269.680567 219.7875 269.680567 
C 225.843997 269.680567 231.841603 268.487569 237.437077 266.169848 
C 243.032551 263.852127 248.117075 260.454756 252.399666 256.172166 
C 256.682256 251.889575 260.079627 246.805051 262.397348 241.209577 
C 264.715069 235.614103 265.908067 229.616497 265.908067 223.56 
" clip-path="url(#p8a01b5f8aa)" style="fill: none; stroke: #b0b0b0; stroke-width: 0.8; stroke-linecap: square"/>
     </g>
     <g id="text_30">
      <!-- 0.02 -->
      <g transform="translate(262.397348 203.830736) scale(0.1 -0.1)">
       <use xlink:href="#DejaVuSans-30"/>
       <use xlink:href="#DejaVuSans-2e" x="63.623047"/>
       <use xlink:href="#DejaVuSans-30" x="95.410156"/>
       <use xlink:href="#DejaVuSans-32" x="159.033203"/>
      </g>
     </g>
    </g>
    <g id="ytick_3">
     <g id="line2d_31">
      <path d="M 303.867502 223.56 
C 303.867502 212.518715 301.69261 201.584793 297.467293 191.383976 
C 293.241976 181.183159 287.048407 171.913828 279.24104 164.10646 
C 271.433672 156.299093 262.164341 150.105524 251.963524 145.880207 
C 241.762707 141.65489 230.828785 139.479998 219.7875 139.479998 
C 208.746215 139.479998 197.812293 141.65489 187.611476 145.880207 
C 177.410659 150.105524 168.141328 156.299093 160.33396 164.10646 
C 152.526593 171.913828 146.333024 181.183159 142.107707 191.383976 
C 137.88239 201.584793 135.707498 212.518715 135.707498 223.56 
C 135.707498 234.601285 137.88239 245.535207 142.107707 255.736024 
C 146.333024 265.936841 152.526593 275.206172 160.33396 283.01354 
C 168.141328 290.820907 177.410659 297.014476 187.611476 301.239793 
C 197.812293 305.46511 208.746215 307.640002 219.7875 307.640002 
C 230.828785 307.640002 241.762707 305.46511 251.963524 301.239793 
C 262.164341 297.014476 271.433672 290.820907 279.24104 283.01354 
C 287.048407 275.206172 293.241976 265.936841 297.467293 255.736024 
C 301.69261 245.535207 303.867502 234.601285 303.867502 223.56 
" clip-path="url(#p8a01b5f8aa)" style="fill: none; stroke: #b0b0b0; stroke-width: 0.8; stroke-linecap: square"/>
     </g>
     <g id="text_31">
      <!-- 0.04 -->
      <g transform="translate(297.467293 189.304289) scale(0.1 -0.1)">
       <use xlink:href="#DejaVuSans-30"/>
       <use xlink:href="#DejaVuSans-2e" x="63.623047"/>
       <use xlink:href="#DejaVuSans-30" x="95.410156"/>
       <use xlink:href="#DejaVuSans-34" x="159.033203"/>
      </g>
     </g>
    </g>
    <g id="ytick_4">
     <g id="line2d_32">
      <path d="M 341.826938 223.56 
C 341.826938 207.533928 338.670151 191.663689 332.537239 176.857529 
C 326.404326 162.051369 317.414558 148.59723 306.082414 137.265086 
C 294.75027 125.932942 281.296131 116.943174 266.489971 110.810261 
C 251.683811 104.677349 235.813572 101.520562 219.7875 101.520562 
C 203.761428 101.520562 187.891189 104.677349 173.085029 110.810261 
C 158.278869 116.943174 144.82473 125.932942 133.492586 137.265086 
C 122.160442 148.59723 113.170674 162.051369 107.037761 176.857529 
C 100.904849 191.663689 97.748062 207.533928 97.748062 223.56 
C 97.748062 239.586072 100.904849 255.456311 107.037761 270.262471 
C 113.170674 285.068631 122.160442 298.52277 133.492586 309.854914 
C 144.82473 321.187058 158.278869 330.176826 173.085029 336.309739 
C 187.891189 342.442651 203.761428 345.599438 219.7875 345.599438 
C 235.813572 345.599438 251.683811 342.442651 266.489971 336.309739 
C 281.296131 330.176826 294.75027 321.187058 306.082414 309.854914 
C 317.414558 298.52277 326.404326 285.068631 332.537239 270.262471 
C 338.670151 255.456311 341.826938 239.586072 341.826938 223.56 
" clip-path="url(#p8a01b5f8aa)" style="fill: none; stroke: #b0b0b0; stroke-width: 0.8; stroke-linecap: square"/>
     </g>
     <g id="text_32">
      <!-- 0.06 -->
      <g transform="translate(332.537239 174.777842) scale(0.1 -0.1)">
       <use xlink:href="#DejaVuSans-30"/>
       <use xlink:href="#DejaVuSans-2e" x="63.623047"/>
       <use xlink:href="#DejaVuSans-30" x="95.410156"/>
       <use xlink:href="#DejaVuSans-36" x="159.033203"/>
      </g>
     </g>
    </g>
    <g id="ytick_5">
     <g id="line2d_33">
      <path d="M 379.786373 223.56 
C 379.786373 202.54914 375.647692 181.742585 367.607184 162.331082 
C 359.566676 142.919579 347.780709 125.280633 332.923788 110.423712 
C 318.066867 95.566791 300.427921 83.780824 281.016418 75.740316 
C 261.604915 67.699808 240.79836 63.561127 219.7875 63.561127 
C 198.77664 63.561127 177.970085 67.699808 158.558582 75.740316 
C 139.147079 83.780824 121.508133 95.566791 106.651212 110.423712 
C 91.794291 125.280633 80.008324 142.919579 71.967816 162.331082 
C 63.927308 181.742585 59.788627 202.54914 59.788627 223.56 
C 59.788627 244.57086 63.927308 265.377415 71.967816 284.788918 
C 80.008324 304.200421 91.794291 321.839367 106.651212 336.696288 
C 121.508133 351.553209 139.147079 363.339176 158.558582 371.379684 
C 177.970085 379.420192 198.77664 383.558873 219.7875 383.558873 
C 240.79836 383.558873 261.604915 379.420192 281.016418 371.379684 
C 300.427921 363.339176 318.066867 351.553209 332.923788 336.696288 
C 347.780709 321.839367 359.566676 304.200421 367.607184 284.788918 
C 375.647692 265.377415 379.786373 244.57086 379.786373 223.56 
" clip-path="url(#p8a01b5f8aa)" style="fill: none; stroke: #b0b0b0; stroke-width: 0.8; stroke-linecap: square"/>
     </g>
     <g id="text_33">
      <!-- 0.08 -->
      <g transform="translate(367.607184 160.251395) scale(0.1 -0.1)">
       <use xlink:href="#DejaVuSans-30"/>
       <use xlink:href="#DejaVuSans-2e" x="63.623047"/>
       <use xlink:href="#DejaVuSans-30" x="95.410156"/>
       <use xlink:href="#DejaVuSans-38" x="159.033203"/>
      </g>
     </g>
    </g>
   </g>
   <g id="line2d_34">
    <path d="M 243.229035 223.56 
L 242.61769 218.349158 
L 230.193386 218.548789 
L 233.758592 212.418426 
L 224.858688 217.200931 
L 223.335682 216.192125 
L 221.61022 215.574142 
L 219.7875 214.544271 
L 217.978527 215.634373 
L 216.258663 216.232294 
L 214.722324 217.208471 
L 213.375339 218.446472 
L 212.448694 220.025817 
L 211.854746 221.749401 
L 211.612534 223.56 
L 211.781595 225.387296 
L 212.453992 227.091632 
L 213.424085 228.634655 
L 214.690138 229.95189 
L 216.247992 230.909863 
L 217.981035 231.474642 
L 219.7875 231.748139 
L 221.603275 231.515428 
L 223.328321 230.91259 
L 224.862353 229.923665 
L 226.170311 228.650122 
L 227.170116 227.11528 
L 227.796407 225.387981 
" clip-path="url(#p8a01b5f8aa)" style="fill: none; stroke: #ff0000; stroke-width: 1.5; stroke-linecap: square"/>
   </g>
   <g id="line2d_35">
    <path d="M 311.264639 223.56 
L 348.911902 194.088198 
L 373.386311 149.590711 
L 340.764221 127.084284 
L 235.373363 204.015946 
L 227.665366 207.201442 
L 226.651338 193.48756 
L 219.7875 105.159868 
L 217.928297 215.4143 
L 215.488365 214.632753 
L 210.675008 212.133296 
L 180.163085 191.960584 
L 202.154554 215.068421 
L 197.397494 218.449627 
L 189.028812 223.56 
L 199.917757 228.095139 
L 209.886776 228.327938 
L 157.508474 273.225866 
L 211.003212 234.575148 
L 198.650664 267.451092 
L 210.570037 263.944343 
L 219.7875 233.785686 
L 222.741483 236.502246 
L 223.590159 231.456303 
L 237.070205 245.231827 
L 237.268417 237.500566 
L 232.661657 229.759867 
L 241.728507 228.567892 
" clip-path="url(#p8a01b5f8aa)" style="fill: none; stroke: #0000ff; stroke-width: 1.5; stroke-linecap: square"/>
   </g>
   <g id="patch_5">
    <path d="M 398.3875 223.56 
C 398.3875 200.106463 393.767665 176.880982 384.792385 155.212739 
C 375.817104 133.544496 362.660926 113.854884 346.076771 97.270729 
C 329.492616 80.686574 309.803004 67.530396 288.134761 58.555115 
C 266.466518 49.579835 243.241037 44.96 219.7875 44.96 
C 196.333963 44.96 173.108482 49.579835 151.440239 58.555115 
C 129.771996 67.530396 110.082384 80.686574 93.498229 97.270729 
C 76.914074 113.854884 63.757896 133.544496 54.782615 155.212739 
C 45.807335 176.880982 41.1875 200.106463 41.1875 223.56 
C 41.1875 247.013537 45.807335 270.239018 54.782615 291.907261 
C 63.757896 313.575504 76.914074 333.265116 93.498229 349.849271 
C 110.082384 366.433426 129.771996 379.589604 151.440239 388.564885 
C 173.108482 397.540165 196.333963 402.16 219.7875 402.16 
C 243.241037 402.16 266.466518 397.540165 288.134761 388.564885 
C 309.803004 379.589604 329.492616 366.433426 346.076771 349.849271 
C 362.660926 333.265116 375.817104 313.575504 384.792385 291.907261 
C 393.767665 270.239018 398.3875 247.013537 398.3875 223.56 
" style="fill: none; stroke: #000000; stroke-width: 0.8; stroke-linejoin: miter; stroke-linecap: square"/>
   </g>
   <g id="text_34">
    <!-- FF -->
    <g transform="translate(212.885625 20.120938) scale(0.12 -0.12)">
     <use xlink:href="#DejaVuSans-46"/>
     <use xlink:href="#DejaVuSans-46" x="57.519531"/>
    </g>
   </g>
  </g>
 </g>
 <defs>
  <clipPath id="p8a01b5f8aa">
   <path d="M 398.3875 223.56 
C 398.3875 200.106463 393.767665 176.880982 384.792385 155.212739 
C 375.817104 133.544496 362.660926 113.854884 346.076771 97.270729 
C 329.492616 80.686574 309.803004 67.530396 288.134761 58.555115 
C 266.466518 49.579835 243.241037 44.96 219.7875 44.96 
C 196.333963 44.96 173.108482 49.579835 151.440239 58.555115 
C 129.771996 67.530396 110.082384 80.686574 93.498229 97.270729 
C 76.914074 113.854884 63.757896 133.544496 54.782615 155.212739 
C 45.807335 176.880982 41.1875 200.106463 41.1875 223.56 
C 41.1875 247.013537 45.807335 270.239018 54.782615 291.907261 
C 63.757896 313.575504 76.914074 333.265116 93.498229 349.849271 
C 110.082384 366.433426 129.771996 379.589604 151.440239 388.564885 
C 173.108482 397.540165 196.333963 402.16 219.7875 402.16 
C 243.241037 402.16 266.466518 397.540165 288.134761 388.564885 
C 309.803004 379.589604 329.492616 366.433426 346.076771 349.849271 
C 362.660926 333.265116 375.817104 313.575504 384.792385 291.907261 
C 393.767665 270.239018 398.3875 247.013537 398.3875 223.56 
M 219.7875 223.56 
C 219.7875 223.56 219.7875 223.56 219.7875 223.56 
C 219.7875 223.56 219.7875 223.56 219.7875 223.56 
C 219.7875 223.56 219.7875 223.56 219.7875 223.56 
C 219.7875 223.56 219.7875 223.56 219.7875 223.56 
C 219.7875 223.56 219.7875 223.56 219.7875 223.56 
C 219.7875 223.56 219.7875 223.56 219.7875 223.56 
C 219.7875 223.56 219.7875 223.56 219.7875 223.56 
C 219.7875 223.56 219.7875 223.56 219.7875 223.56 
C 219.7875 223.56 219.7875 223.56 219.7875 223.56 
C 219.7875 223.56 219.7875 223.56 219.7875 223.56 
C 219.7875 223.56 219.7875 223.56 219.7875 223.56 
C 219.7875 223.56 219.7875 223.56 219.7875 223.56 
C 219.7875 223.56 219.7875 223.56 219.7875 223.56 
C 219.7875 223.56 219.7875 223.56 219.7875 223.56 
C 219.7875 223.56 219.7875 223.56 219.7875 223.56 
C 219.7875 223.56 219.7875 223.56 219.7875 223.56 
z
"/>
  </clipPath>
 </defs>
</svg>
